<?xml version="1.0" encoding="UTF-8"?>
<svg version="1.1" xmlns="http://www.w3.org/2000/svg" width="407" height="381">
<path d="M0 0 C1.45535408 -0.00422974 1.45535408 -0.00422974 2.94010925 -0.00854492 C4.52682686 -0.00550858 4.52682686 -0.00550858 6.14559937 -0.00241089 C7.2646315 -0.00416321 8.38366364 -0.00591553 9.53660583 -0.00772095 C13.23880561 -0.01212559 16.94095769 -0.00920671 20.64315796 -0.00582886 C23.21097828 -0.0065022 25.77879855 -0.00747248 28.34661865 -0.00872803 C33.72834946 -0.01020304 39.11006229 -0.00815154 44.49179077 -0.00338745 C50.71753367 0.00206006 56.94324385 0.00028764 63.16898596 -0.00521386 C69.15655001 -0.01029341 75.14409802 -0.00976264 81.13166428 -0.00683212 C83.68106465 -0.00616326 86.23046586 -0.00698986 88.77986526 -0.00931168 C92.3353932 -0.01183944 95.89085745 -0.00799606 99.44638062 -0.00241089 C100.50824081 -0.00443512 101.57010101 -0.00645935 102.66413879 -0.00854492 C104.1110334 -0.00431519 104.1110334 -0.00431519 105.5871582 0 C106.42816889 0.00037703 107.26917957 0.00075405 108.13567543 0.0011425 C110.16659546 0.12698364 110.16659546 0.12698364 112.16659546 1.12698364 C111.52470845 8.18774069 106.86912003 12.75627196 101.72909546 17.12698364 C90.02991495 26.05712735 74.22069143 33.35588944 59.16659546 32.12698364 C59.16659546 33.11698364 59.16659546 34.10698364 59.16659546 35.12698364 C59.76618576 35.11445557 60.36577606 35.10192749 60.98353577 35.08901978 C117.25317561 33.91859481 117.25317561 33.91859481 141.16659546 34.12698364 C141.47000854 33.34814819 141.77342163 32.56931274 142.08602905 31.76687622 C143.12069406 29.23912368 144.31572873 27.10596094 145.79159546 24.81448364 C146.23761108 24.11710083 146.68362671 23.41971802 147.14315796 22.70120239 C147.48089233 22.18171021 147.81862671 21.66221802 148.16659546 21.12698364 C150.45956421 21.31838989 150.45956421 21.31838989 153.16659546 22.12698364 C154.96737671 24.34182739 154.96737671 24.34182739 156.47909546 27.06448364 C156.99085327 27.96038208 157.50261108 28.85628052 158.02987671 29.77932739 C159.16659546 32.12698364 159.16659546 32.12698364 159.16659546 34.12698364 C186.22659546 34.12698364 213.28659546 34.12698364 241.16659546 34.12698364 C239.5739243 32.53431248 237.67649615 32.65772725 235.47909546 32.31448364 C217.23008723 29.08709077 200.23856103 22.00332187 189.22909546 6.37698364 C188.16659546 4.12698364 188.16659546 4.12698364 188.16659546 1.12698364 C191.11204306 0.14516777 192.94280717 0.01538524 196.00709534 0.04469299 C197.00408951 0.05173248 198.00108368 0.05877197 199.02828979 0.06602478 C200.12089111 0.07897079 201.21349243 0.09191681 202.33920288 0.10525513 C203.49056229 0.11486267 204.64192169 0.12447021 205.82817078 0.1343689 C209.64286309 0.16741254 213.45744278 0.20772462 217.27206421 0.24807739 C219.91336161 0.27237325 222.55466321 0.29621708 225.19596863 0.31962585 C231.443289 0.37575736 237.69054669 0.43711658 243.9377988 0.5003472 C251.05015089 0.57207975 258.16255315 0.63799481 265.27496564 0.70341766 C279.90557332 0.83812644 294.53610449 0.98015248 309.16659546 1.12698364 C306.25958166 10.56112765 298.93842584 17.75338937 290.56893921 22.85745239 C280.82873416 28.00471522 270.46300834 31.53431277 259.47909546 32.68948364 C258.38597046 32.83385864 257.29284546 32.97823364 256.16659546 33.12698364 C255.83659546 33.78698364 255.50659546 34.44698364 255.16659546 35.12698364 C255.99804077 35.09217896 256.82948608 35.05737427 257.68612671 35.02151489 C259.31614624 34.98090942 259.31614624 34.98090942 260.97909546 34.93948364 C262.05804077 34.90467896 263.13698608 34.86987427 264.24862671 34.83401489 C267.16659546 35.12698364 267.16659546 35.12698364 269.06503296 36.44338989 C270.16659546 38.12698364 270.16659546 38.12698364 269.97909546 41.25198364 C269.57690796 42.67510864 269.57690796 42.67510864 269.16659546 44.12698364 C266.89082078 45.26487098 265.65626122 45.25040428 263.12969971 45.24723816 C261.86345261 45.24930016 261.86345261 45.24930016 260.57162476 45.25140381 C259.64374146 45.24780853 258.71585815 45.24421326 257.75985718 45.24050903 C256.29638351 45.24072807 256.29638351 45.24072807 254.80334473 45.24095154 C251.56763512 45.240253 248.33198256 45.23246331 245.09628296 45.22463989 C242.85711702 45.22277551 240.61795067 45.2213517 238.37878418 45.22035217 C232.47686645 45.21652863 226.57497322 45.20669971 220.67306519 45.19564819 C214.6539849 45.18543059 208.63490066 45.1808538 202.61581421 45.17581177 C190.79939718 45.16507732 178.98299835 45.14800283 167.16659546 45.12698364 C167.35222046 46.07573364 167.53784546 47.02448364 167.72909546 48.00198364 C168.16659546 51.12698364 168.16659546 51.12698364 167.16659546 53.12698364 C167.86784546 53.37448364 168.56909546 53.62198364 169.29159546 53.87698364 C176.83827504 57.15814868 183.00021856 62.02871189 187.16659546 69.12698364 C187.16659546 69.78698364 187.16659546 70.44698364 187.16659546 71.12698364 C188.11534546 71.10635864 189.06409546 71.08573364 190.04159546 71.06448364 C193.16659546 71.12698364 193.16659546 71.12698364 195.16659546 72.12698364 C196.04159546 74.93948364 196.04159546 74.93948364 196.16659546 78.12698364 C194.76815796 80.29495239 194.76815796 80.29495239 192.16659546 82.12698364 C188.98967127 82.71986301 185.88974842 82.68532125 182.66659546 82.62698364 C181.3846228 82.65018677 181.3846228 82.65018677 180.07675171 82.67385864 C176.08798422 82.64896774 173.86708043 82.62613161 170.55722046 80.26760864 C169.16659546 78.12698364 169.16659546 78.12698364 169.41659546 75.37698364 C169.66409546 74.63448364 169.91159546 73.89198364 170.16659546 73.12698364 C164.24385805 69.5733412 157.05956535 69.93379501 150.35409546 69.93948364 C149.17194458 69.93851685 149.17194458 69.93851685 147.96591187 69.93753052 C142.19111662 69.98980186 136.74694429 70.55663422 131.16659546 72.12698364 C131.41409546 73.03448364 131.66159546 73.94198364 131.91659546 74.87698364 C132.16659546 78.12698364 132.16659546 78.12698364 130.77597046 80.29885864 C126.86754088 83.03709972 123.326218 82.7113207 118.66659546 82.62698364 C117.3846228 82.65018677 117.3846228 82.65018677 116.07675171 82.67385864 C112.1091292 82.64909969 109.8656992 82.61677488 106.55722046 80.29885864 C105.16659546 78.12698364 105.16659546 78.12698364 105.41659546 74.87698364 C105.78784546 73.51573364 105.78784546 73.51573364 106.16659546 72.12698364 C107.19784546 71.96198364 108.22909546 71.79698364 109.29159546 71.62698364 C113.63617069 70.40561711 115.17588563 67.82757204 117.63925171 64.22073364 C121.66402269 58.70340053 127.22146685 55.28154168 133.16659546 52.12698364 C132.98097046 51.50823364 132.79534546 50.88948364 132.60409546 50.25198364 C132.16659546 48.12698364 132.16659546 48.12698364 133.16659546 46.12698364 C131.29737679 46.1215152 131.29737679 46.1215152 129.39039612 46.11593628 C117.66240558 46.07903917 105.9346789 46.02132455 94.20688915 45.9430809 C88.17708921 45.90352528 82.14743708 45.87137648 76.11752319 45.85598755 C70.30129591 45.84087424 64.48547478 45.80652362 58.66942787 45.75867462 C56.44744707 45.74380574 54.2254083 45.73593949 52.00337791 45.73509979 C48.89742803 45.73274495 45.79261424 45.70578478 42.68685913 45.67288208 C41.76257111 45.67791245 40.83828308 45.68294281 39.88598633 45.68812561 C33.68489073 45.58609054 33.68489073 45.58609054 31.05986023 43.26083374 C29.89144246 40.46969224 30.17385431 38.95247768 31.16659546 36.12698364 C33.93111578 34.74472348 36.21273176 35.03172977 39.29159546 35.06448364 C40.38729858 35.07350708 41.48300171 35.08253052 42.61190796 35.09182739 C43.87647827 35.10922974 43.87647827 35.10922974 45.16659546 35.12698364 C44.83659546 34.46698364 44.50659546 33.80698364 44.16659546 33.12698364 C42.04347222 32.69854119 39.91688036 32.28284488 37.77890015 31.93606567 C19.87161658 29.02997311 4.55746661 21.56568247 -6.83340454 7.12698364 C-8.83340454 4.12698364 -8.83340454 4.12698364 -8.83340454 1.12698364 C-5.81808971 0.2531302 -3.1349578 0.00140414 0 0 Z M149.16659546 37.12698364 C148.83659546 38.77698364 148.50659546 40.42698364 148.16659546 42.12698364 C149.81659546 41.79698364 151.46659546 41.46698364 153.16659546 41.12698364 C152.50659546 39.80698364 151.84659546 38.48698364 151.16659546 37.12698364 C150.50659546 37.12698364 149.84659546 37.12698364 149.16659546 37.12698364 Z " fill="#3D3D3D" transform="translate(84.83340454101563,246.87301635742188)"/>
<path d="M0 0 C2.37547226 1.45278521 4.38419554 3.18953596 6.4375 5.0625 C6.97826172 5.53494141 7.51902344 6.00738281 8.07617188 6.49414062 C9.3954401 7.64995969 10.69937365 8.82324283 12 10 C12.66 9.34 13.32 8.68 14 8 C17.0390625 7.8046875 17.0390625 7.8046875 20.625 7.875 C22.40777344 7.90207031 22.40777344 7.90207031 24.2265625 7.9296875 C25.14179688 7.95289063 26.05703125 7.97609375 27 8 C28 10 28 10 27.89453125 13.08984375 C27.55964317 20.2593785 27.55964317 20.2593785 30.22070312 26.70068359 C32.26956524 28.81365526 34.42566237 30.64924749 36.7824707 32.40991211 C40.91717119 35.516364 40.91717119 35.516364 41.4609375 38.69140625 C41 41 41 41 39.5625 42.8125 C36.80737137 44.08926693 35.33091497 44.12537118 32.33984375 44.07421875 C31.52765381 44.06350342 30.71546387 44.05278809 29.87866211 44.04174805 C28.94872437 44.02108276 28.94872437 44.02108276 28 44 C28.01047363 45.11036621 28.02094727 46.22073242 28.03173828 47.36474609 C28.06787949 51.47587879 28.09087896 55.58699739 28.10986328 59.69824219 C28.11993431 61.47919067 28.13359185 63.26012257 28.15087891 65.04101562 C28.17507913 67.59769783 28.18647184 70.15416185 28.1953125 72.7109375 C28.20563507 73.50994476 28.21595764 74.30895203 28.22659302 75.13217163 C28.22699226 77.0895722 28.12241069 79.04643077 28 81 C26 83 26 83 23.75341797 83.22705078 C22.38660889 83.21134033 22.38660889 83.21134033 20.9921875 83.1953125 C19.51298828 83.18564453 19.51298828 83.18564453 18.00390625 83.17578125 C16.45509766 83.15064453 16.45509766 83.15064453 14.875 83.125 C13.31458984 83.11146484 13.31458984 83.11146484 11.72265625 83.09765625 C9.14820908 83.07403747 6.57421788 83.04110149 4 83 C2.79970092 80.59940183 2.88540257 79.10639351 2.90234375 76.4296875 C2.90556641 75.53378906 2.90878906 74.63789063 2.91210938 73.71484375 C2.92467773 72.30912109 2.92467773 72.30912109 2.9375 70.875 C2.94201172 69.93011719 2.94652344 68.98523438 2.95117188 68.01171875 C2.96297625 65.6744523 2.98091201 63.33721831 3 61 C-1.95 61 -6.9 61 -12 61 C-12 68.26 -12 75.52 -12 83 C-15.58875 83.020625 -19.1775 83.04125 -22.875 83.0625 C-24.00534668 83.071604 -25.13569336 83.08070801 -26.30029297 83.09008789 C-27.18861816 83.09258545 -28.07694336 83.09508301 -28.9921875 83.09765625 C-29.90339355 83.10289307 -30.81459961 83.10812988 -31.75341797 83.11352539 C-34 83 -34 83 -36 82 C-37.23180134 78.30459598 -37.12412112 74.89696622 -37.09765625 71.05078125 C-37.0962413 70.27816452 -37.09482635 69.50554779 -37.09336853 68.70951843 C-37.08777466 66.24380611 -37.07522333 63.77818485 -37.0625 61.3125 C-37.05748421 59.63997527 -37.05292144 57.96744912 -37.04882812 56.29492188 C-37.03780724 52.19657954 -37.02054684 48.09830521 -37 44 C-37.61488281 44.02320313 -38.22976562 44.04640625 -38.86328125 44.0703125 C-39.67152344 44.08835938 -40.47976562 44.10640625 -41.3125 44.125 C-42.11300781 44.14820313 -42.91351563 44.17140625 -43.73828125 44.1953125 C-46 44 -46 44 -49 42 C-49.51953125 38.7109375 -49.51953125 38.7109375 -49 35 C-47.2433323 32.82332624 -45.80993455 31.35224039 -43.6875 29.625 C-43.14134033 29.15368652 -42.59518066 28.68237305 -42.0324707 28.19677734 C-40.37276696 26.7748597 -38.69145194 25.38391523 -37 24 C-36.1028125 23.2575 -35.205625 22.515 -34.28125 21.75 C-32.52981865 20.31509239 -30.77181218 18.88817832 -29.0078125 17.46875 C-24.63469632 13.87938711 -20.3809056 10.15612554 -16.12573242 6.42822266 C-14.9337676 5.38693332 -13.73609103 4.35213157 -12.53173828 3.32519531 C-11.31761687 2.27478871 -10.14802909 1.17294052 -8.99609375 0.0546875 C-5.70695013 -1.68321617 -3.51104534 -0.96506808 0 0 Z " fill="#393939" transform="translate(141,156)"/>
<path d="M0 0 C0.84215561 0.00561951 1.68431122 0.01123901 2.55198669 0.01702881 C3.43824738 0.01513046 4.32450806 0.01323212 5.23762512 0.01127625 C8.17640438 0.00756188 11.11493827 0.01828127 14.05369568 0.02947998 C16.08868379 0.03067142 18.12367245 0.03112502 20.15866089 0.03086853 C24.42668594 0.03243449 28.69462724 0.04073335 32.96263123 0.05413818 C38.44644455 0.07113894 43.93016583 0.07495229 49.41400242 0.074193 C53.61658617 0.07446429 57.8191496 0.07993869 62.02172661 0.08719444 C64.04443648 0.09038701 66.06714866 0.09234988 68.08986092 0.09308815 C70.91060981 0.0952449 73.73125904 0.10397433 76.55198669 0.11468506 C77.39616653 0.11423187 78.24034637 0.11377869 79.11010742 0.11331177 C84.87281518 0.14547448 84.87281518 0.14547448 85.98728943 1.25994873 C86.25891003 4.30813552 86.46365629 7.33005164 86.61228943 10.38494873 C86.65732605 11.28116943 86.70236267 12.17739014 86.74876404 13.10076904 C87.08222642 20.89588547 86.75173327 28.49790357 85.98728943 36.25994873 C72.59819276 39.76014405 59.93840705 42.70519717 45.98728943 42.25994873 C44.99728943 39.94994873 44.00728943 37.63994873 42.98728943 35.25994873 C40.67728943 35.25994873 38.36728943 35.25994873 35.98728943 35.25994873 C34.99728943 37.56994873 34.00728943 39.87994873 32.98728943 42.25994873 C23.76332861 42.59451629 15.32184641 41.70355538 6.29978943 39.82244873 C5.13512146 39.59235107 3.97045349 39.36225342 2.77049255 39.12518311 C-5.67037274 37.43111764 -5.67037274 37.43111764 -8.01271057 36.25994873 C-8.0620794 31.45446276 -8.098415 26.64912379 -8.12257385 21.84344482 C-8.13264311 20.20800201 -8.14629938 18.57257724 -8.16358948 16.93719482 C-8.18779762 14.58900503 -8.19918415 12.24105286 -8.20802307 9.89276123 C-8.22350693 8.79268234 -8.22350693 8.79268234 -8.23930359 7.67037964 C-8.23970426 5.86532176 -8.13483812 4.06087043 -8.01271057 2.25994873 C-5.39764143 -0.35512041 -3.56072485 0.01947271 0 0 Z " fill="#373737" transform="translate(294.01271057128906,167.74005126953125)"/>
<path d="M0 0 C1.50605049 0.01055923 1.50605049 0.01055923 3.04252625 0.02133179 C4.14807358 0.0342778 5.25362091 0.04722382 6.39266968 0.06056213 C7.55363663 0.07016968 8.71460358 0.07977722 9.91075134 0.0896759 C13.76334518 0.12276126 17.61582897 0.16305727 21.46835327 0.2033844 C24.13350138 0.2276762 26.79865005 0.2515702 29.46380615 0.27493286 C35.77136613 0.33110095 42.07886467 0.39245354 48.38635767 0.4556542 C55.56640061 0.5273464 62.74649278 0.59328115 69.92659497 0.65872467 C84.69839001 0.79349256 99.47011005 0.93551554 114.24179077 1.08229065 C111.33477698 10.51643466 104.01362115 17.70869638 95.64413452 22.8127594 C85.90392948 27.96002223 75.53820366 31.48961978 64.55429077 32.64479065 C63.46116577 32.78916565 62.36804077 32.93354065 61.24179077 33.08229065 C60.74679077 34.07229065 60.74679077 34.07229065 60.24179077 35.08229065 C61.07323608 35.04748596 61.9046814 35.01268127 62.76132202 34.9768219 C64.39134155 34.93621643 64.39134155 34.93621643 66.05429077 34.89479065 C67.13323608 34.85998596 68.2121814 34.82518127 69.32382202 34.7893219 C72.24179077 35.08229065 72.24179077 35.08229065 74.19100952 36.2190094 C75.24179077 38.08229065 75.24179077 38.08229065 74.24179077 44.08229065 C41.90179077 43.75229065 9.56179077 43.42229065 -23.75820923 43.08229065 C-23.75820923 42.75229065 -23.75820923 42.42229065 -23.75820923 42.08229065 C-22.8982132 42.0742038 -22.03821716 42.06611694 -21.15216064 42.05778503 C-13.05877363 41.97993638 -4.96555518 41.89267554 3.12761497 41.79476357 C7.28868635 41.74475666 11.44973179 41.69842724 15.6109314 41.66041565 C19.62457944 41.62361803 23.63801278 41.57727362 27.65147781 41.52422714 C29.18488433 41.50565369 30.71833693 41.49055669 32.25181198 41.47894669 C34.39501823 41.46213424 36.53772958 41.43311277 38.68075562 41.40113831 C39.90209198 41.38781464 41.12342834 41.37449097 42.3817749 41.36076355 C45.37232644 41.37525721 45.37232644 41.37525721 47.24179077 39.08229065 C47.40856359 35.49885089 47.40856359 35.49885089 47.24179077 32.08229065 C46.66848022 32.01759583 46.09516968 31.952901 45.50448608 31.88624573 C25.52141937 29.55168168 9.93460373 24.67961956 -3.75820923 9.08229065 C-6.75820923 4.86354065 -6.75820923 4.86354065 -6.75820923 1.08229065 C-4.30154311 -0.14604241 -2.74624594 -0.02601707 0 0 Z " fill="#353535" transform="translate(279.7582092285156,246.91770935058594)"/>
<path d="M0 0 C5.81464008 0.57503712 11.51273893 1.40419463 17.25 2.5 C24.49821157 3.83903675 31.63139486 4.628366 39 5 C39.66 7.31 40.32 9.62 41 12 C45.61507774 13.04214691 45.61507774 13.04214691 50 12 C50.73075648 9.6859378 51.40138258 7.35171131 52 5 C53.670625 4.83564453 53.670625 4.83564453 55.375 4.66796875 C64.57669985 3.72436076 73.58331727 2.45175322 82.64453125 0.5859375 C85.54480724 0.07948651 88.07478142 -0.04677356 91 0 C91.07407906 4.23580253 91.12856696 8.47126341 91.16479492 12.70751953 C91.17989483 14.14899258 91.20037658 15.59041959 91.22631836 17.03173828 C91.2626513 19.10200343 91.27971329 21.17166207 91.29296875 23.2421875 C91.3086792 24.4885498 91.32438965 25.73491211 91.34057617 27.01904297 C91.22818604 28.00275879 91.1157959 28.98647461 91 30 C87.20873715 32.52750857 84.18789941 32.281286 79.79663086 32.25878906 C78.9605983 32.2622937 78.12456573 32.26579834 77.26319885 32.26940918 C74.49699628 32.27821904 71.73104897 32.27238051 68.96484375 32.265625 C67.04578095 32.26697174 65.12671849 32.26891234 63.20765686 32.27142334 C59.18519849 32.27437349 55.16282892 32.27007998 51.14038086 32.26074219 C45.97613183 32.24934006 40.81209051 32.25591264 35.64784908 32.26788712 C31.68541387 32.27510211 27.72302818 32.27281958 23.76059151 32.26763153 C21.85593199 32.26629443 19.95126802 32.26794484 18.04661369 32.27259064 C15.38894548 32.2776508 12.73161738 32.26995327 10.07397461 32.25878906 C9.28171478 32.26283752 8.48945496 32.26688599 7.67318726 32.27105713 C2.22852994 32.22852994 2.22852994 32.22852994 0 30 C-0.22705078 27.01904297 -0.22705078 27.01904297 -0.1953125 23.2421875 C-0.1924826 22.57913605 -0.18965271 21.91608459 -0.18673706 21.23294067 C-0.17553435 19.11344417 -0.15043051 16.99436896 -0.125 14.875 C-0.11497028 13.43880818 -0.10584441 12.00260975 -0.09765625 10.56640625 C-0.075595 7.04413372 -0.04106494 3.52210797 0 0 Z " fill="#3B3B3B" transform="translate(288,207)"/>
<path d="M0 0 C0.78810059 -0.00233643 1.57620117 -0.00467285 2.38818359 -0.00708008 C6.98994575 0.12391188 10.15659157 0.59478912 13.875 3.5625 C16.0269437 6.79041555 16.07586443 7.84650809 15.875 11.5625 C12.5 11.6875 12.5 11.6875 8.875 11.5625 C8.215 10.9025 7.555 10.2425 6.875 9.5625 C3.51755888 9.31872117 3.51755888 9.31872117 -0.25 9.4375 C-1.53132813 9.45554688 -2.81265625 9.47359375 -4.1328125 9.4921875 C-5.12023437 9.51539063 -6.10765625 9.53859375 -7.125 9.5625 C-7.455 10.2225 -7.785 10.8825 -8.125 11.5625 C-10.765 11.5625 -13.405 11.5625 -16.125 11.5625 C-16.66099659 8.95908798 -16.49698315 7.23269749 -15.19921875 4.89453125 C-10.92211507 0.0409985 -6.08439307 0.01279002 0 0 Z " fill="#3F3F3F" transform="translate(333.125,155.4375)"/>
<path d="M0 0 C1.79244141 0.01740234 1.79244141 0.01740234 3.62109375 0.03515625 C5.41740234 0.04869141 5.41740234 0.04869141 7.25 0.0625 C8.17683594 0.07410156 9.10367188 0.08570313 10.05859375 0.09765625 C10.16171875 0.73703125 10.26484375 1.37640625 10.37109375 2.03515625 C10.71140625 3.05609375 10.71140625 3.05609375 11.05859375 4.09765625 C14.71913039 5.31783513 18.11299694 5.27394507 21.92651367 5.30297852 C22.72674454 5.31287811 23.5269754 5.32277771 24.35145569 5.33297729 C26.9972945 5.36457228 29.64315127 5.38934183 32.2890625 5.4140625 C34.12323982 5.43463375 35.95741242 5.45563027 37.7915802 5.47703552 C42.61990535 5.53223848 47.44827317 5.58165562 52.27667236 5.62988281 C57.20336709 5.68011077 62.12999984 5.73579009 67.05664062 5.79101562 C76.72390539 5.89857549 86.39122397 6.00002532 96.05859375 6.09765625 C96.05859375 6.42765625 96.05859375 6.75765625 96.05859375 7.09765625 C83.1678712 7.12077735 70.27715355 7.13857014 57.38641453 7.14946842 C51.40140109 7.15469776 45.41640179 7.16179633 39.43139648 7.1730957 C33.66075946 7.18392278 27.89013607 7.1899327 22.11948967 7.19253349 C19.91256432 7.19438807 17.70563975 7.19800929 15.49872017 7.20338631 C12.41913334 7.21059435 9.33960361 7.21164729 6.26000977 7.21118164 C5.33788193 7.21477692 4.41575409 7.21837219 3.46568298 7.22207642 C-2.82735409 7.21170841 -2.82735409 7.21170841 -3.94140625 6.09765625 C-4.06640625 3.59765625 -4.06640625 3.59765625 -3.94140625 1.09765625 C-2.94140625 0.09765625 -2.94140625 0.09765625 0 0 Z " fill="#292929" transform="translate(120.94140625,282.90234375)"/>
<path d="M0 0 C3.07921132 -0.25660094 5.21136993 -0.39431504 8 1 C8.08075665 3.29109597 8.13907731 5.58299267 8.1875 7.875 C8.22230469 9.15117187 8.25710938 10.42734375 8.29296875 11.7421875 C8.19628906 12.81726563 8.09960938 13.89234375 8 15 C5 17 5 17 2.4375 16.9375 C0 16 0 16 -1.3125 13.9375 C-2.21322282 10.08895706 -2.25544813 6.95944596 -2 3 C-1.34 2.01 -0.68 1.02 0 0 Z " fill="#505050" transform="translate(330,203)"/>
<path d="M0 0 C0.66 0.33 1.32 0.66 2 1 C2 1.66 2 2.32 2 3 C2.66 3 3.32 3 4 3 C4 3.66 4 4.32 4 5 C4.99 5.33 5.98 5.66 7 6 C7.6875 8.8125 7.6875 8.8125 8 12 C6.51953125 13.69921875 6.51953125 13.69921875 5 15 C3.68381002 14.21448343 2.37214772 13.4213763 1.0625 12.625 C-0.03384766 11.96371094 -0.03384766 11.96371094 -1.15234375 11.2890625 C-3 10 -3 10 -4 8 C-4.66 8.66 -5.32 9.32 -6 10 C-6.33 9.01 -6.66 8.02 -7 7 C-6.21625 6.401875 -5.4325 5.80375 -4.625 5.1875 C-1.85425677 3.08914751 -1.85425677 3.08914751 0 0 Z " fill="#303030" transform="translate(235,271)"/>
<path d="M0 0 C2.89640118 -0.08120751 5.79050912 -0.14059421 8.6875 -0.1875 C9.50412109 -0.21263672 10.32074219 -0.23777344 11.16210938 -0.26367188 C15.9425753 -0.32173421 19.14632382 -0.16104605 23 3 C25.1519437 6.22791555 25.20086443 7.28400809 25 11 C21.625 11.125 21.625 11.125 18 11 C17.34 10.34 16.68 9.68 16 9 C13.41935871 8.85502015 10.95056116 8.81322455 8.375 8.875 C7.66859375 8.88402344 6.9621875 8.89304688 6.234375 8.90234375 C4.48943902 8.92592397 2.74467705 8.96179539 1 9 C1 8.34 1 7.68 1 7 C2.69769531 6.96132812 2.69769531 6.96132812 4.4296875 6.921875 C5.91149743 6.86560374 7.39326677 6.80825618 8.875 6.75 C9.62136719 6.73582031 10.36773437 6.72164062 11.13671875 6.70703125 C13.57138381 6.64013659 13.57138381 6.64013659 17 6 C17.66 4.68 18.32 3.36 19 2 C12.73 1.67 6.46 1.34 0 1 C0 0.67 0 0.34 0 0 Z " fill="#777777" transform="translate(324,156)"/>
<path d="M0 0 C1.79244141 0.01740234 1.79244141 0.01740234 3.62109375 0.03515625 C5.41740234 0.04869141 5.41740234 0.04869141 7.25 0.0625 C8.17683594 0.07410156 9.10367188 0.08570313 10.05859375 0.09765625 C10.16171875 0.73703125 10.26484375 1.37640625 10.37109375 2.03515625 C10.71140625 3.05609375 10.71140625 3.05609375 11.05859375 4.09765625 C12.04859375 4.42765625 13.03859375 4.75765625 14.05859375 5.09765625 C14.05859375 5.42765625 14.05859375 5.75765625 14.05859375 6.09765625 C11.2463967 6.29149804 8.43405179 6.47802228 5.62109375 6.66015625 C4.41743164 6.74426758 4.41743164 6.74426758 3.18945312 6.83007812 C1.14797264 6.95928575 -0.89686994 7.03278355 -2.94140625 7.09765625 C-3.94140625 6.09765625 -3.94140625 6.09765625 -4.06640625 3.59765625 C-3.88521871 -0.02609447 -3.6770741 0.12208081 0 0 Z " fill="#2F2F2F" transform="translate(120.94140625,282.90234375)"/>
<path d="M0 0 C1.32 0 2.64 0 4 0 C3.67 2.97 3.34 5.94 3 9 C10.26 9 17.52 9 25 9 C21.79167513 12.20832487 17.98776504 11.36854621 13.625 11.375 C12.32949219 11.41173828 12.32949219 11.41173828 11.0078125 11.44921875 C4.67457952 11.47853927 4.67457952 11.47853927 1.37890625 9.140625 C0 7 0 7 0.3125 4.375 C0.539375 3.59125 0.76625 2.8075 1 2 C0.67 1.34 0.34 0.68 0 0 Z " fill="#969696" transform="translate(254,318)"/>
<path d="M0 0 C2.25 0.125 2.25 0.125 5 1 C7.3125 4.0625 7.3125 4.0625 9 7 C8.67 7.66 8.34 8.32 8 9 C7.34 8.67 6.68 8.34 6 8 C6 7.34 6 6.68 6 6 C5.34 6 4.68 6 4 6 C3.34 5.34 2.68 4.68 2 4 C1.21625 4.99 0.4325 5.98 -0.375 7 C-1.24125 7.99 -2.1075 8.98 -3 10 C-3.66 10 -4.32 10 -5 10 C-5 10.99 -5 11.98 -5 13 C-5.66 13 -6.32 13 -7 13 C-5.35821735 8.22390502 -2.73453298 4.20617096 0 0 Z " fill="#878787" transform="translate(233,268)"/>
<path d="M0 0 C3.3 0 6.6 0 10 0 C10 0.33 10 0.66 10 1 C8.329375 1.309375 8.329375 1.309375 6.625 1.625 C5.42875 2.07875 4.2325 2.5325 3 3 C2.34 4.98 1.68 6.96 1 9 C-3.29 9 -7.58 9 -12 9 C-12 8.67 -12 8.34 -12 8 C-8.04 8 -4.08 8 0 8 C0 5.36 0 2.72 0 0 Z " fill="#868686" transform="translate(326,201)"/>
<path d="M0 0 C1.98 0 3.96 0 6 0 C2.54143152 2.94995547 -0.80021485 5.22675738 -5 7 C-5.66 6.67 -6.32 6.34 -7 6 C-6.67 5.34 -6.34 4.68 -6 4 C-3.4375 3.375 -3.4375 3.375 -1 3 C-0.67 2.01 -0.34 1.02 0 0 Z " fill="#767676" transform="translate(373,266)"/>
<path d="M0 0 C2.125 0.375 2.125 0.375 4 1 C4 2.32 4 3.64 4 5 C2.68 5.33 1.36 5.66 0 6 C-0.66 4.68 -1.32 3.36 -2 2 C-1.34 1.34 -0.68 0.68 0 0 Z " fill="#D36D6C" transform="translate(2,0)"/>
<path d="M0 0 C1.32 0 2.64 0 4 0 C3.814375 1.093125 3.62875 2.18625 3.4375 3.3125 C2.7421932 6.93624133 2.7421932 6.93624133 4 10 C3.01 9.67 2.02 9.34 1 9 C0.33164813 5.9088726 0 3.16770671 0 0 Z " fill="#8E8E8E" transform="translate(254,318)"/>
<path d="M0 0 C3.36591866 1.44253657 5.51047079 3.33264727 8 6 C7.67 6.66 7.34 7.32 7 8 C6.34 7.67 5.68 7.34 5 7 C5 6.34 5 5.68 5 5 C4.34 5 3.68 5 3 5 C2.34 4.34 1.68 3.68 1 3 C0.34 3 -0.32 3 -1 3 C-0.67 2.01 -0.34 1.02 0 0 Z " fill="#5F5F5F" transform="translate(234,269)"/>
</svg>
