<?xml version="1.0" encoding="UTF-8"?>
<svg version="1.1" xmlns="http://www.w3.org/2000/svg" width="256" height="287">
<path d="M0 0 C3.58462043 2.73967419 6.24872084 5.42333709 9 9 C9.5775 9.53625 10.155 10.0725 10.75 10.625 C12 12 12 12 12 15 C12.66 15 13.32 15 14 15 C17.77624681 22.57624361 20.89860413 29.57503679 22 38 C22.10957031 38.79019531 22.21914062 39.58039063 22.33203125 40.39453125 C22.57708608 42.26021538 22.79219999 44.12979993 23 46 C23.556875 45.71125 24.11375 45.4225 24.6875 45.125 C27 44 27 44 29.203125 43.2109375 C32.76079854 41.67060398 35.83984098 39.63932613 39.0625 37.5 C46.43988516 32.6335689 46.43988516 32.6335689 50 31 C50 30.34 50 29.68 50 29 C50.66 29 51.32 29 52 29 C53.44524884 24.57394994 53.44524884 24.57394994 54 20 C46.46320894 17.26871486 39.54365737 16.51252148 31.5625 16.375 C29.43870939 16.32403922 27.31500031 16.26951941 25.19140625 16.2109375 C24.26529541 16.19337402 23.33918457 16.17581055 22.38500977 16.15771484 C20 16 20 16 17 15 C13 9.74285714 13 9.74285714 13 6 C13.33 5.34 13.66 4.68 14 4 C17.91085671 4.0699195 21.82085747 4.15835297 25.73095703 4.26245117 C27.69933525 4.3112441 29.66804034 4.34623438 31.63671875 4.38085938 C43.34178944 4.70765069 53.74848655 5.7486953 62.8125 13.5625 C65.59158629 16.92665709 65.45047823 21.14331848 65.4140625 25.30078125 C64.38231763 32.02658978 59.0196972 37.67748297 54 42 C53.34 42 52.68 42 52 42 C52 42.66 52 43.32 52 44 C51.113125 44.495 50.22625 44.99 49.3125 45.5 C46.89290338 46.86949169 44.54166111 48.29510367 42.203125 49.80078125 C17.43411755 65.6665012 -12.87888778 75.01348077 -41.4128418 81.44042969 C-42.68188354 81.72708496 -42.68188354 81.72708496 -43.9765625 82.01953125 C-44.73018066 82.18557861 -45.48379883 82.35162598 -46.26025391 82.52270508 C-48.01469621 82.84975301 -48.01469621 82.84975301 -49 84 C-53.88616696 84.87557906 -58.8243937 85.45094299 -63.75 86.0625 C-64.4860849 86.15404358 -65.2221698 86.24558716 -65.9805603 86.33990479 C-76.6099095 87.63219449 -87.10086225 88.37993689 -97.8125 88.375 C-99.54161621 88.37705444 -99.54161621 88.37705444 -101.30566406 88.37915039 C-112.97677547 88.22809842 -124.53647689 87.52841813 -133.68359375 79.52734375 C-136.52716447 76.22812669 -136.28015004 72.38686594 -136.20703125 68.265625 C-135.59919831 61.6138683 -130.67151293 56.40617742 -126 52 C-121.81364802 48.75823211 -117.4592282 45.84417497 -113 43 C-111.35064453 41.93072266 -111.35064453 41.93072266 -109.66796875 40.83984375 C-101.73168302 35.91758515 -101.73168302 35.91758515 -98.15625 36.3203125 C-97.08890625 36.65675781 -97.08890625 36.65675781 -96 37 C-95.68973932 40.58603622 -95.80681365 43.58450406 -97 47 C-100.89779824 50.53237965 -105.41595966 52.8080823 -110.16796875 55 C-112.18163348 56.09914322 -113.43159749 57.33591246 -115 59 C-116.77718007 60.51990455 -118.57580457 62.010987 -120.37890625 63.5 C-122.23688684 65.10184635 -122.23688684 65.10184635 -124 68 C-123.6878236 70.64632287 -123.6878236 70.64632287 -123 73 C-114.56611611 75.79474279 -106.66171999 76.52053359 -97.8125 76.6875 C-96.57435547 76.72166016 -95.33621094 76.75582031 -94.06054688 76.79101562 C-91.04045533 76.87263972 -88.02062292 76.94206498 -85 77 C-85.26917236 76.48123291 -85.53834473 75.96246582 -85.81567383 75.42797852 C-93.75946196 59.88015695 -95.07833168 43.75307284 -90 27 C-86.25579933 17.51266226 -81.29737119 10.0873749 -74 3 C-73.44828125 2.42765625 -72.8965625 1.8553125 -72.328125 1.265625 C-52.28519911 -17.98352165 -21.03656611 -15.00100536 0 0 Z M-60.1875 11.25 C-68.27402001 20.6869212 -71.52178418 30.97390768 -71.3125 43.30859375 C-70.44947319 53.50309798 -66.37941193 65.62058807 -59 73 C-56.88249633 73.09846917 -56.88249633 73.09846917 -54.5625 72.75 C-53.78003906 72.66234375 -52.99757813 72.5746875 -52.19140625 72.484375 C-49.72446565 72.07779114 -49.72446565 72.07779114 -47 70 C-49.67478244 68.3372974 -51.9995144 67.00016187 -55 66 C-56.0546875 64.22265625 -56.0546875 64.22265625 -57 62 C-57.35320312 61.27683594 -57.70640625 60.55367187 -58.0703125 59.80859375 C-61.70894009 51.62841986 -62.42528705 44.28653443 -59.4375 35.75 C-56.61165857 29.49135823 -52.62581042 25.48630779 -46.6875 22.125 C-36.66565066 19.06748664 -29.13990087 20.04812458 -19.75 24.5625 C-15.11017414 28.67507292 -11.95688151 34.12935548 -10 40 C-9.57001477 47.30974889 -9.80481608 54.00285126 -12 61 C-3.97928527 59.05797655 3.45450713 56.33160505 11 53 C11.74030654 37.94710035 8.95102731 25.78587977 -0.77734375 13.8125 C-8.93533173 5.00387494 -20.23536236 -0.54262207 -32.21875 -1.16796875 C-33.84296875 -1.17763672 -33.84296875 -1.17763672 -35.5 -1.1875 C-37.12421875 -1.20876953 -37.12421875 -1.20876953 -38.78125 -1.23046875 C-48.0044184 -0.57007198 -54.08765643 4.75958264 -60.1875 11.25 Z M-30 32 C-30 32.66 -30 33.32 -30 34 C-29.34 34 -28.68 34 -28 34 C-28 33.34 -28 32.68 -28 32 C-28.66 32 -29.32 32 -30 32 Z M-28 34 C-27.01 34.99 -26.02 35.98 -25 37 C-25 36.01 -25 35.02 -25 34 C-25.99 34 -26.98 34 -28 34 Z M-25 37 C-24.01 42.28 -23.02 47.56 -22 53 C-21.34 52.67 -20.68 52.34 -20 52 C-19.39736181 43.94558424 -19.39736181 43.94558424 -23 37 C-23.66 37 -24.32 37 -25 37 Z " fill="#1F5F9E" transform="translate(155,56)"/>
<path d="M0 0 C-1.29706182 5.16177665 -3.15923885 9.59090712 -5.75 14.25 C-6.10707031 14.90621338 -6.46414062 15.56242676 -6.83203125 16.23852539 C-7.88087522 18.1630507 -8.938527 20.08241696 -10 22 C-13.37621326 28.10894033 -16.64959399 34.24585093 -19.75 40.5 C-23.04394146 47.14313714 -26.45218389 53.71813109 -29.92333984 60.27026367 C-32.43692148 65.01872439 -34.92433151 69.77944229 -37.38671875 74.5546875 C-37.96526611 75.67496338 -38.54381348 76.79523926 -39.13989258 77.94946289 C-40.27405074 80.14772216 -41.40551453 82.34737419 -42.53393555 84.54858398 C-45.12435051 89.56284444 -47.72281685 94.40086132 -51 99 C-53.703125 99.0234375 -53.703125 99.0234375 -57 98 C-59.07157002 95.46224718 -60.36033573 92.57749544 -61.75 89.625 C-62.61791444 87.87992217 -63.48642059 86.13513852 -64.35546875 84.390625 C-64.79294434 83.49408203 -65.23041992 82.59753906 -65.68115234 81.67382812 C-67.72508258 77.52996956 -69.89537584 73.45536106 -72.0625 69.375 C-72.89501427 67.79322288 -73.72704845 66.21119298 -74.55859375 64.62890625 C-76.14752775 61.61188706 -77.74382222 58.59896752 -79.34765625 55.58984375 C-83.14421847 48.46483285 -86.90447035 41.32229211 -90.5625 34.125 C-90.90941895 33.45251221 -91.25633789 32.78002441 -91.61376953 32.0871582 C-93.07166579 29.19191523 -94 27.28830411 -94 24 C-91.31374546 23.49236135 -88.62631617 22.99372803 -85.9375 22.5 C-85.18533203 22.35691406 -84.43316406 22.21382812 -83.65820312 22.06640625 C-81.44357395 21.6637464 -79.22742856 21.32347499 -77 21 C-75.14568359 20.70609375 -75.14568359 20.70609375 -73.25390625 20.40625 C-70 21 -70 21 -68.62597656 22.47070312 C-67.26541968 24.58993093 -66.12349122 26.74643369 -65 29 C-64.20248096 30.4586933 -63.40430105 31.91702547 -62.60546875 33.375 C-61.79589755 34.91478888 -60.99001304 36.45652077 -60.1875 38 C-59.76025635 38.81581543 -59.3330127 39.63163086 -58.89282227 40.47216797 C-55.65851163 46.67171381 -52.50703741 52.91110459 -49.42456055 59.1875 C-48.02426527 62.30252654 -48.02426527 62.30252654 -46 65 C-45.505 63.515 -45.505 63.515 -45 62 C-44.34 62 -43.68 62 -43 62 C-42.76796875 61.19820312 -42.5359375 60.39640625 -42.296875 59.5703125 C-40.67226479 55.09774103 -38.50683754 51.05580819 -36.25 46.875 C-35.33759566 45.1645668 -34.4261336 43.45363061 -33.515625 41.7421875 C-32.85916992 40.51000488 -32.85916992 40.51000488 -32.18945312 39.25292969 C-30.74834609 36.52334519 -29.36465615 33.76852657 -28 31 C-27.00113847 28.99943117 -26.00096004 26.99951969 -25 25 C-24.62343262 24.24058105 -24.24686523 23.48116211 -23.85888672 22.69873047 C-22.5658905 20.10428057 -21.25315978 17.52052074 -19.9375 14.9375 C-19.52564453 14.10283203 -19.11378906 13.26816406 -18.68945312 12.40820312 C-16.39772733 7.9526788 -14.78202245 5.07040714 -10 3 C-8.80375 2.443125 -7.6075 1.88625 -6.375 1.3125 C-3 0 -3 0 0 0 Z " fill="#2A638F" transform="translate(173,123)"/>
<path d="M0 0 C1.27037109 -0.01836914 1.27037109 -0.01836914 2.56640625 -0.03710938 C8.12409025 -0.04987588 13.90238438 0.09662027 19.125 2.1875 C20.115 3.6725 20.115 3.6725 21.125 5.1875 C24.20865871 5.4377157 24.20865871 5.4377157 27.125 5.1875 C28.115 7.1675 28.115 7.1675 29.125 9.1875 C28.135 9.8475 27.145 10.5075 26.125 11.1875 C26.62 13.1675 26.62 13.1675 27.125 15.1875 C23.26169073 14.58385793 19.88042596 13.3827468 16.28515625 11.90625 C5.56465339 8.33921107 -8.68321232 8.88440159 -18.9453125 13.59765625 C-31.80133528 20.67007981 -38.51036354 29.76472476 -43.875 43.1875 C-46.9911181 54.5501406 -45.05004654 67.48067253 -40.1875 78.0625 C-38.78227602 81.40827137 -38.7703039 83.60789052 -38.875 87.1875 C-37.99457031 87.16429687 -37.11414063 87.14109375 -36.20703125 87.1171875 C-34.46486328 87.09011719 -34.46486328 87.09011719 -32.6875 87.0625 C-31.53894531 87.03929687 -30.39039062 87.01609375 -29.20703125 86.9921875 C-25.95759628 87.18265848 -23.78839479 87.79389873 -20.875 89.1875 C-21.37 90.6725 -21.37 90.6725 -21.875 92.1875 C-24.3125 93.1875 -24.3125 93.1875 -27.875 94.1875 C-28.65875 94.43628906 -29.4425 94.68507813 -30.25 94.94140625 C-39.89807437 97.98584435 -48.9952721 98.36989232 -59.0625 98.375 C-60.93905273 98.39336914 -60.93905273 98.39336914 -62.85351562 98.41210938 C-75.00307325 98.43108318 -86.99612835 98.07922764 -96.55859375 89.71484375 C-99.40216447 86.41562669 -99.15515004 82.57436594 -99.08203125 78.453125 C-98.47419831 71.8013683 -93.54651293 66.59367742 -88.875 62.1875 C-84.68864802 58.94573211 -80.3342282 56.03167497 -75.875 53.1875 C-74.22564453 52.11822266 -74.22564453 52.11822266 -72.54296875 51.02734375 C-64.60668302 46.10508515 -64.60668302 46.10508515 -61.03125 46.5078125 C-59.96390625 46.84425781 -59.96390625 46.84425781 -58.875 47.1875 C-58.56473932 50.77353622 -58.68181365 53.77200406 -59.875 57.1875 C-63.77279824 60.71987965 -68.29095966 62.9955823 -73.04296875 65.1875 C-75.05663348 66.28664322 -76.30659749 67.52341246 -77.875 69.1875 C-79.65218007 70.70740455 -81.45080457 72.198487 -83.25390625 73.6875 C-85.11188684 75.28934635 -85.11188684 75.28934635 -86.875 78.1875 C-86.5628236 80.83382287 -86.5628236 80.83382287 -85.875 83.1875 C-77.44111611 85.98224279 -69.53671999 86.70803359 -60.6875 86.875 C-59.44935547 86.90916016 -58.21121094 86.94332031 -56.93554688 86.97851562 C-53.91545533 87.06013972 -50.89562292 87.12956498 -47.875 87.1875 C-48.14417236 86.66873291 -48.41334473 86.14996582 -48.69067383 85.61547852 C-56.63446196 70.06765695 -57.95333168 53.94057284 -52.875 37.1875 C-49.13079933 27.70016226 -44.17237119 20.2748749 -36.875 13.1875 C-36.32328125 12.61515625 -35.7715625 12.0428125 -35.203125 11.453125 C-25.40715286 2.04511216 -12.99816543 0.00980254 0 0 Z " fill="#1F5F9C" transform="translate(117.875,45.8125)"/>
<path d="M0 0 C0.31026068 3.58603622 0.19318635 6.58450406 -1 10 C-4.89779824 13.53237965 -9.41595966 15.8080823 -14.16796875 18 C-16.18163348 19.09914322 -17.43159749 20.33591246 -19 22 C-20.77718007 23.51990455 -22.57580457 25.010987 -24.37890625 26.5 C-26.23688684 28.10184635 -26.23688684 28.10184635 -28 31 C-27.6878236 33.64632287 -27.6878236 33.64632287 -27 36 C-18.56611611 38.79474279 -10.66171999 39.52053359 -1.8125 39.6875 C-0.57435547 39.72166016 0.66378906 39.75582031 1.93945312 39.79101562 C4.95954467 39.87263972 7.97937708 39.94206498 11 40 C10.34 39.01 9.68 38.02 9 37 C9.33 36.01 9.66 35.02 10 34 C11.5625 35.25 11.5625 35.25 13 37 C12.6875 39.1875 12.6875 39.1875 12 41 C8.535 41.495 8.535 41.495 5 42 C7.97 42.495 7.97 42.495 11 43 C11.495 45.475 11.495 45.475 12 48 C6.06 48.495 6.06 48.495 0 49 C6.93 49 13.86 49 21 49 C21 49.33 21 49.66 21 50 C13.89887854 51.12595876 6.98759955 51.18385967 -0.1875 51.1875 C-1.43853516 51.19974609 -2.68957031 51.21199219 -3.97851562 51.22460938 C-16.12807325 51.24358318 -28.12112835 50.89172764 -37.68359375 42.52734375 C-40.52716447 39.22812669 -40.28015004 35.38686594 -40.20703125 31.265625 C-39.59919831 24.6138683 -34.67151293 19.40617742 -30 15 C-25.81364802 11.75823211 -21.4592282 8.84417497 -17 6 C-15.90042969 5.28714844 -14.80085938 4.57429688 -13.66796875 3.83984375 C-4.95738233 -1.56265313 -4.95738233 -1.56265313 0 0 Z " fill="#215F9B" transform="translate(59,93)"/>
<path d="M0 0 C-0.56847656 0.4125 -1.13695312 0.825 -1.72265625 1.25 C-12.25732364 9.12901668 -20.55618387 18.67009383 -23 32 C-24.07647297 45.08328687 -21.50957302 59.50819703 -13 70 C-9.32153671 71.33374745 -6.44821414 70.91492854 -2.6875 70.0625 C-1.80449219 69.86785156 -0.92148438 69.67320313 -0.01171875 69.47265625 C0.98408203 69.23869141 0.98408203 69.23869141 2 69 C2 69.66 2 70.32 2 71 C-0.37475834 71.48039005 -2.74979155 71.95934474 -5.125 72.4375 C-5.79015625 72.57220703 -6.4553125 72.70691406 -7.140625 72.84570312 C-13.91995586 74.2082157 -20.10087017 75.11895051 -27 75 C-34.41071845 61.47364011 -38.92849775 47.34321488 -34.9375 31.875 C-29.58556671 16.66950729 -20.12042497 7.21710609 -6 0 C-3 -1 -3 -1 0 0 Z " fill="#F2D744" transform="translate(108,57)"/>
<path d="M0 0 C3.91085671 0.0699195 7.82085747 0.15835297 11.73095703 0.26245117 C13.69933525 0.3112441 15.66804034 0.34623438 17.63671875 0.38085938 C29.34178944 0.70765069 39.74848655 1.7486953 48.8125 9.5625 C51.59158629 12.92665709 51.45047823 17.14331848 51.4140625 21.30078125 C50.38231763 28.02658978 45.0196972 33.67748297 40 38 C39.34 38 38.68 38 38 38 C38 38.66 38 39.32 38 40 C37.113125 40.495 36.22625 40.99 35.3125 41.5 C32.73509933 42.95541106 30.24080655 44.48577444 27.74609375 46.08203125 C27.17141357 46.448125 26.5967334 46.81421875 26.00463867 47.19140625 C24.84186091 47.93434148 23.68434549 48.68558272 22.5324707 49.4453125 C21.06857725 50.37523857 19.53681298 51.19628835 18 52 C16.515 51.505 16.515 51.505 15 51 C15.9590625 50.566875 15.9590625 50.566875 16.9375 50.125 C19.15206079 49.17176549 19.15206079 49.17176549 20 47 C20.66 47 21.32 47 22 47 C22 46.34 22 45.68 22 45 C23.98 44.01 25.96 43.02 28 42 C28 41.34 28 40.68 28 40 C29.65 40 31.3 40 33 40 C32.814375 39.38125 32.62875 38.7625 32.4375 38.125 C32 36 32 36 33 34 C31.94729537 32.84188612 31.94729537 32.84188612 30 32 C30.33 32.99 30.66 33.98 31 35 C29.68 35 28.36 35 27 35 C26.67 35.99 26.34 36.98 26 38 C23.36 38.33 20.72 38.66 18 39 C30 29 30 29 36 27 C36 26.34 36 25.68 36 25 C36.66 25 37.32 25 38 25 C39.44524884 20.57394994 39.44524884 20.57394994 40 16 C32.46320894 13.26871486 25.54365737 12.51252148 17.5625 12.375 C15.43870939 12.32403922 13.31500031 12.26951941 11.19140625 12.2109375 C10.26529541 12.19337402 9.33918457 12.17581055 8.38500977 12.15771484 C6 12 6 12 3 11 C-1 5.74285714 -1 5.74285714 -1 2 C-0.67 1.34 -0.34 0.68 0 0 Z " fill="#1F5E9C" transform="translate(169,60)"/>
<path d="M0 0 C1.23583984 1.49462891 1.23583984 1.49462891 2.3984375 3.4765625 C2.82777588 4.20439941 3.25711426 4.93223633 3.69946289 5.68212891 C5.79905934 9.42411664 7.83312666 13.19305667 9.8125 17 C10.23974365 17.81581543 10.6669873 18.63163086 11.10717773 19.47216797 C14.34148837 25.67171381 17.49296259 31.91110459 20.57543945 38.1875 C21.97573473 41.30252654 21.97573473 41.30252654 24 44 C24.33 43.01 24.66 42.02 25 41 C25.66 41 26.32 41 27 41 C25.56347895 45.91441412 23.45840385 50.00238358 20.875 54.375 C20.50246094 55.01566406 20.12992188 55.65632813 19.74609375 56.31640625 C18.83565998 57.88048477 17.91851809 59.44065534 17 61 C13.95387601 59.47693801 13.1647957 56.5863454 11.75 53.625 C7.92316057 45.79591286 3.95229225 38.04678512 -0.0625 30.3125 C-0.63967773 29.19762207 -1.21685547 28.08274414 -1.81152344 26.93408203 C-3.53257904 23.61824657 -5.26587613 20.30901616 -7 17 C-7.62874432 15.78173871 -8.2574878 14.56347698 -8.88623047 13.34521484 C-9.50573417 12.16089694 -10.12567494 10.97680753 -10.74609375 9.79296875 C-11.29837646 8.72973389 -11.85065918 7.66649902 -12.41967773 6.57104492 C-13.89616805 3.76705637 -13.89616805 3.76705637 -17 2 C-4.34469201 -0.85190039 -4.34469201 -0.85190039 0 0 Z " fill="#F5D636" transform="translate(103,144)"/>
<path d="M0 0 C4.29243715 2.20647957 6.86550395 4.95216634 8.80859375 9.3046875 C9.54469773 14.76096336 9.75469559 20.27662406 7.24609375 25.3046875 C3.66728409 29.70937631 0.68081937 31.89973709 -4.87890625 32.68359375 C-10.81733474 32.93371778 -14.6258556 32.42481858 -19.19140625 28.3046875 C-23.4534644 23.58186631 -24.56000863 19.94461687 -24.46875 13.71875 C-23.84960458 8.32956877 -21.47195146 4.58523271 -17.69140625 0.8046875 C-12.03072844 -1.62131728 -5.91570295 -1.87699666 0 0 Z M-2.19140625 1.3046875 C-2.19140625 1.9646875 -2.19140625 2.6246875 -2.19140625 3.3046875 C-1.53140625 3.3046875 -0.87140625 3.3046875 -0.19140625 3.3046875 C-0.19140625 2.6446875 -0.19140625 1.9846875 -0.19140625 1.3046875 C-0.85140625 1.3046875 -1.51140625 1.3046875 -2.19140625 1.3046875 Z M-0.19140625 3.3046875 C0.79859375 4.2946875 1.78859375 5.2846875 2.80859375 6.3046875 C2.80859375 5.3146875 2.80859375 4.3246875 2.80859375 3.3046875 C1.81859375 3.3046875 0.82859375 3.3046875 -0.19140625 3.3046875 Z M2.80859375 6.3046875 C3.79859375 11.5846875 4.78859375 16.8646875 5.80859375 22.3046875 C6.46859375 21.9746875 7.12859375 21.6446875 7.80859375 21.3046875 C8.41123194 13.25027174 8.41123194 13.25027174 4.80859375 6.3046875 C4.14859375 6.3046875 3.48859375 6.3046875 2.80859375 6.3046875 Z " fill="#F5D637" transform="translate(127.19140625,86.6953125)"/>
<path d="M0 0 C-1.29706182 5.16177665 -3.15923885 9.59090712 -5.75 14.25 C-6.10707031 14.90621338 -6.46414062 15.56242676 -6.83203125 16.23852539 C-7.88087522 18.1630507 -8.938527 20.08241696 -10 22 C-13.37622037 28.10895319 -16.6493381 34.24596725 -19.75 40.5 C-22.86966431 46.78593639 -26.06031416 53.03153478 -29.3125 59.25 C-29.73305664 60.06017578 -30.15361328 60.87035156 -30.58691406 61.70507812 C-32.50103206 65.34852396 -34.35658861 68.81764066 -37 72 C-37.33 69.36 -37.66 66.72 -38 64 C-37.01 63.505 -37.01 63.505 -36 63 C-36.66 62.34 -37.32 61.68 -38 61 C-40.10820797 61.3185177 -40.10820797 61.3185177 -42 62 C-41.50408885 56.18006157 -39.07292403 51.89250012 -36.3125 46.875 C-35.390996 45.1645638 -34.47041942 43.45362761 -33.55078125 41.7421875 C-33.10686035 40.92073242 -32.66293945 40.09927734 -32.20556641 39.25292969 C-30.74772181 36.52854939 -29.36291887 33.77297039 -28 31 C-27.00113847 28.99943117 -26.00096004 26.99951969 -25 25 C-24.62343262 24.24058105 -24.24686523 23.48116211 -23.85888672 22.69873047 C-22.5658905 20.10428057 -21.25315978 17.52052074 -19.9375 14.9375 C-19.52564453 14.10283203 -19.11378906 13.26816406 -18.68945312 12.40820312 C-16.39772733 7.9526788 -14.78202245 5.07040714 -10 3 C-8.80375 2.443125 -7.6075 1.88625 -6.375 1.3125 C-3 0 -3 0 0 0 Z " fill="#467BAE" transform="translate(173,123)"/>
<path d="M0 0 C2.47486187 2.08656457 4.29568054 4.34922846 6.265625 6.91015625 C6.843125 7.44640625 7.420625 7.98265625 8.015625 8.53515625 C9.265625 9.91015625 9.265625 9.91015625 9.265625 12.91015625 C9.925625 12.91015625 10.585625 12.91015625 11.265625 12.91015625 C14.83473533 20.17183671 17.90904875 26.90635635 19.265625 34.91015625 C17.615625 34.91015625 15.965625 34.91015625 14.265625 34.91015625 C14.265625 35.90015625 14.265625 36.89015625 14.265625 37.91015625 C12.945625 38.24015625 11.625625 38.57015625 10.265625 38.91015625 C9.935625 43.20015625 9.605625 47.49015625 9.265625 51.91015625 C7.285625 52.40515625 7.285625 52.40515625 5.265625 52.91015625 C5.265625 53.57015625 5.265625 54.23015625 5.265625 54.91015625 C3.85336574 55.5861094 2.43559595 56.25055684 1.015625 56.91015625 C0.22671875 57.28140625 -0.5621875 57.65265625 -1.375 58.03515625 C-3.734375 58.91015625 -3.734375 58.91015625 -7.734375 58.91015625 C-8.394375 59.90015625 -9.054375 60.89015625 -9.734375 61.91015625 C-12.374375 61.58015625 -15.014375 61.25015625 -17.734375 60.91015625 C-17.404375 58.27015625 -17.074375 55.63015625 -16.734375 52.91015625 C-15.744375 52.91015625 -14.754375 52.91015625 -13.734375 52.91015625 C-13.734375 46.97015625 -13.734375 41.03015625 -13.734375 34.91015625 C-11.40150404 38.40946269 -11.43643954 39.95647263 -11.421875 44.09765625 C-11.40511719 45.18433594 -11.38835937 46.27101562 -11.37109375 47.390625 C-11.81423621 51.68386537 -13.0857717 54.930019 -14.734375 58.91015625 C-14.10869629 58.6678125 -13.48301758 58.42546875 -12.83837891 58.17578125 C-10.0133652 57.08378562 -7.18640836 55.99691193 -4.359375 54.91015625 C-2.88210937 54.3378125 -2.88210937 54.3378125 -1.375 53.75390625 C-0.43398437 53.39296875 0.50703125 53.03203125 1.4765625 52.66015625 C2.34587402 52.325 3.21518555 51.98984375 4.11083984 51.64453125 C6.265625 50.91015625 6.265625 50.91015625 8.265625 50.91015625 C7.84441744 35.49395942 4.87719029 21.47642745 -6.296875 10.03515625 C-8.98892808 7.50462635 -11.7879892 5.1422667 -14.734375 2.91015625 C-13.984375 -1.83984375 -13.984375 -1.83984375 -11.734375 -4.08984375 C-12.229375 -5.07984375 -12.229375 -5.07984375 -12.734375 -6.08984375 C-14.714375 -6.08984375 -16.694375 -6.08984375 -18.734375 -6.08984375 C-19.394375 -7.40984375 -20.054375 -8.72984375 -20.734375 -10.08984375 C-21.724375 -9.75984375 -22.714375 -9.42984375 -23.734375 -9.08984375 C-23.734375 -9.74984375 -23.734375 -10.40984375 -23.734375 -11.08984375 C-33.634375 -11.08984375 -43.534375 -11.08984375 -53.734375 -11.08984375 C-37.46916706 -21.93331571 -13.53058846 -10.34123547 0 0 Z " fill="#1B61A0" transform="translate(157.734375,58.08984375)"/>
<path d="M0 0 C2.06499241 0.00315674 4.12854353 -0.02034777 6.19335938 -0.0456543 C23.61080297 -0.13127265 23.61080297 -0.13127265 29.45654297 4.79492188 C30.70117188 6.31567383 30.70117188 6.31567383 30.82617188 8.31567383 C28.74933746 12.00782391 24.59888512 12.76981793 20.74389648 13.87866211 C14.54647722 15.39179068 8.6245847 15.6160573 2.26367188 15.56567383 C0.80477539 15.57727539 0.80477539 15.57727539 -0.68359375 15.58911133 C-9.06009452 15.56672923 -18.13454353 15.09186356 -25.29882812 10.31567383 C-26.17382812 8.12817383 -26.17382812 8.12817383 -26.29882812 6.31567383 C-18.84529221 -0.67201609 -9.63126236 -0.03075261 0 0 Z " fill="#20609F" transform="translate(117.298828125,224.684326171875)"/>
<path d="M0 0 C3.51456333 3.58570834 6.01494291 7.03044232 7 12 C4 11 4 11 2.5 8.4375 C2.005 7.633125 1.51 6.82875 1 6 C0.01 6 -0.98 6 -2 6 C-1.01 6.66 -0.02 7.32 1 8 C-0.15173355 10.46800047 -1.04783565 12.04783565 -3 14 C-3.37125 13.236875 -3.7425 12.47375 -4.125 11.6875 C-6.54208661 8.22300919 -7.97037179 7.3432094 -12 6 C-19.46329737 5.09104861 -19.46329737 5.09104861 -26.2421875 7.5234375 C-26.82226562 8.01070312 -27.40234375 8.49796875 -28 9 C-28.66 9 -29.32 9 -30 9 C-30.12375 9.5775 -30.2475 10.155 -30.375 10.75 C-31 13 -31 13 -32.01953125 14.8671875 C-34.17157985 19.54853624 -33.50681897 24.58624181 -31.8125 29.3125 C-29.4417781 32.82770834 -26.78719238 35.10640381 -23 37 C-21.46331135 37.22467831 -19.92031946 37.40796805 -18.375 37.5625 C-17.55773437 37.64628906 -16.74046875 37.73007813 -15.8984375 37.81640625 C-14.95871094 37.90728516 -14.95871094 37.90728516 -14 38 C-14 38.33 -14 38.66 -14 39 C-19.445 39.495 -19.445 39.495 -25 40 C-25 39.34 -25 38.68 -25 38 C-25.7425 38.12375 -26.485 38.2475 -27.25 38.375 C-30 38 -30 38 -32.1875 35.3125 C-35.00206345 30.16864266 -36.25498879 26.60199008 -36.125 20.6875 C-36.10695313 19.61886719 -36.08890625 18.55023438 -36.0703125 17.44921875 C-36.04710938 16.64097656 -36.02390625 15.83273438 -36 15 C-35.34 15 -34.68 15 -34 15 C-33.67 13.68 -33.34 12.36 -33 11 C-34.32 10.34 -35.64 9.68 -37 9 C-37.103125 9.639375 -37.20625 10.27875 -37.3125 10.9375 C-37.539375 11.618125 -37.76625 12.29875 -38 13 C-38.99 13.33 -39.98 13.66 -41 14 C-41.33 18.95 -41.66 23.9 -42 29 C-41.34 29.33 -40.68 29.66 -40 30 C-40.66 30.99 -41.32 31.98 -42 33 C-45.10262138 25.82518805 -45.0531292 18.14427368 -42.5 10.8125 C-39.60762239 4.39407901 -34.82880068 -0.9610243 -28.375 -3.9375 C-18.06819198 -7.18223586 -9.01095022 -6.23130117 0 0 Z " fill="#4175A8" transform="translate(137,81)"/>
<path d="M0 0 C0.66 0.33 1.32 0.66 2 1 C-1.14378706 5.52705337 -4.16008937 7.58004469 -9 10 C-9.66 10 -10.32 10 -11 10 C-11.0825 10.61875 -11.165 11.2375 -11.25 11.875 C-12 14 -12 14 -14.0625 15.25 C-14.701875 15.4975 -15.34125 15.745 -16 16 C-15.01 16.33 -14.02 16.66 -13 17 C-13.3125 19.375 -13.3125 19.375 -14 22 C-14.99 22.66 -15.98 23.32 -17 24 C-17.73343428 27.06556598 -17.73343428 27.06556598 -18 30 C-19.65 29.67 -21.3 29.34 -23 29 C-22.34 29.99 -21.68 30.98 -21 32 C-20.69702148 34.85986328 -20.69702148 34.85986328 -20.62109375 38.3203125 C-20.56985352 40.2075 -20.56985352 40.2075 -20.51757812 42.1328125 C-20.49115234 43.45023438 -20.46472656 44.76765625 -20.4375 46.125 C-20.26433969 56.23677657 -20.26433969 56.23677657 -19.41015625 66.3046875 C-19 70 -19 70 -20 72 C-20.66 72 -21.32 72 -22 72 C-21.67 70.68 -21.34 69.36 -21 68 C-22.485 68.495 -22.485 68.495 -24 69 C-24.66 68.34 -25.32 67.68 -26 67 C-26 67.99 -26 68.98 -26 70 C-25.34 70 -24.68 70 -24 70 C-24 71.98 -24 73.96 -24 76 C-29.62063082 70.37936918 -29.99721144 59.47719366 -30.25 51.9375 C-30.01023659 35.98233508 -24.30121833 21.61608304 -13.20703125 10.125 C-4.65070364 1.88669519 -4.65070364 1.88669519 0 0 Z " fill="#3973AA" transform="translate(92,51)"/>
<path d="M0 0 C3.24208567 0.35049575 4.61527704 0.56221181 6.8125 3.0625 C7.204375 3.701875 7.59625 4.34125 8 5 C8.33 4.34 8.66 3.68 9 3 C10.32 3 11.64 3 13 3 C13.79373342 10.04070943 12.93280327 14.31876231 8.66015625 20.015625 C6.54227607 22.54711472 4.50468073 24.8431916 2 27 C1.34 27 0.68 27 0 27 C0 27.66 0 28.32 0 29 C-0.886875 29.495 -1.77375 29.99 -2.6875 30.5 C-5.26490067 31.95541106 -7.75919345 33.48577444 -10.25390625 35.08203125 C-10.82858643 35.448125 -11.4032666 35.81421875 -11.99536133 36.19140625 C-13.15813909 36.93434148 -14.31565451 37.68558272 -15.4675293 38.4453125 C-16.93142275 39.37523857 -18.46318702 40.19628835 -20 41 C-20.99 40.67 -21.98 40.34 -23 40 C-22.360625 39.71125 -21.72125 39.4225 -21.0625 39.125 C-18.84793921 38.17176549 -18.84793921 38.17176549 -18 36 C-17.34 36 -16.68 36 -16 36 C-16 35.34 -16 34.68 -16 34 C-14.02 33.01 -12.04 32.02 -10 31 C-10 30.34 -10 29.68 -10 29 C-8.35 29 -6.7 29 -5 29 C-5.185625 28.38125 -5.37125 27.7625 -5.5625 27.125 C-6 25 -6 25 -5 23 C-6.05270463 21.84188612 -6.05270463 21.84188612 -8 21 C-7.67 21.99 -7.34 22.98 -7 24 C-8.32 24 -9.64 24 -11 24 C-11.33 24.99 -11.66 25.98 -12 27 C-15.96 27.495 -15.96 27.495 -20 28 C-8 18 -8 18 -2 16 C-2 15.34 -2 14.68 -2 14 C-1.34 14 -0.68 14 0 14 C1.44524884 9.57394994 1.44524884 9.57394994 2 5 C-1.3 4.01 -4.6 3.02 -8 2 C-4.29847322 1.07461831 -3.36541838 0.91825838 0 2 C0 1.34 0 0.68 0 0 Z " fill="#2160A0" transform="translate(207,71)"/>
<path d="M0 0 C1.32 0 2.64 0 4 0 C4 1.32 4 2.64 4 4 C4.66 4 5.32 4 6 4 C6 4.99 6 5.98 6 7 C8.64 7 11.28 7 14 7 C13.34 6.01 12.68 5.02 12 4 C11.67 3.34 11.34 2.68 11 2 C11.33 1.34 11.66 0.68 12 0 C12.66 0 13.32 0 14 0 C17.56911033 7.26168046 20.64342375 13.9962001 22 22 C20.35 22 18.7 22 17 22 C17 22.99 17 23.98 17 25 C15.68 25.33 14.36 25.66 13 26 C12.67 30.29 12.34 34.58 12 39 C10.02 39.495 10.02 39.495 8 40 C8 40.66 8 41.32 8 42 C6.58774074 42.67595315 5.16997095 43.34040059 3.75 44 C2.96109375 44.37125 2.1721875 44.7425 1.359375 45.125 C-1 46 -1 46 -5 46 C-5.66 46.99 -6.32 47.98 -7 49 C-10.96 48.505 -10.96 48.505 -15 48 C-14.67 45.36 -14.34 42.72 -14 40 C-13.01 40 -12.02 40 -11 40 C-11 34.06 -11 28.12 -11 22 C-8.66712904 25.49930644 -8.70206454 27.04631638 -8.6875 31.1875 C-8.66236328 32.81751953 -8.66236328 32.81751953 -8.63671875 34.48046875 C-9.07986121 38.77370912 -10.3513967 42.01986275 -12 46 C-11.37432129 45.75765625 -10.74864258 45.5153125 -10.10400391 45.265625 C-7.2789902 44.17362937 -4.45203336 43.08675568 -1.625 42 C-0.64015625 41.6184375 0.3446875 41.236875 1.359375 40.84375 C2.77089844 40.30234375 2.77089844 40.30234375 4.2109375 39.75 C5.08024902 39.41484375 5.94956055 39.0796875 6.84521484 38.734375 C9 38 9 38 11 38 C10.60467361 23.53105417 7.42570688 12.57419698 0 0 Z " fill="#4B7FAF" transform="translate(155,71)"/>
<path d="M0 0 C1.32 0.66 2.64 1.32 4 2 C3.67 3.65 3.34 5.3 3 7 C0.69 7.33 -1.62 7.66 -4 8 C-2.02 8.33 -0.04 8.66 2 9 C2.495 11.475 2.495 11.475 3 14 C-2.94 14.495 -2.94 14.495 -9 15 C-2.07 15 4.86 15 12 15 C12 15.33 12 15.66 12 16 C4.89887854 17.12595876 -2.01240045 17.18385967 -9.1875 17.1875 C-10.43853516 17.19974609 -11.68957031 17.21199219 -12.97851562 17.22460938 C-33.85563805 17.2572129 -33.85563805 17.2572129 -40 12 C-39.030625 12.020625 -38.06125 12.04125 -37.0625 12.0625 C-34.12534105 12.35618499 -34.12534105 12.35618499 -33 11 C-26.47457627 10.76271186 -26.47457627 10.76271186 -24 12 C-24 11.34 -24 10.68 -24 10 C-24.680625 9.7525 -25.36125 9.505 -26.0625 9.25 C-29.56865083 7.75802092 -32.71620368 5.93164489 -36 4 C-32.52139434 2.84046478 -30.98114891 3.5460011 -27.5546875 4.47949219 C-22.12166562 5.58644963 -16.5267008 5.48493578 -11 5.625 C-9.74832031 5.66367188 -8.49664062 5.70234375 -7.20703125 5.7421875 C-4.1381628 5.83589341 -1.06929147 5.9216107 2 6 C1.34 5.01 0.68 4.02 0 3 C0 2.01 0 1.02 0 0 Z " fill="#21609E" transform="translate(68,127)"/>
<path d="M0 0 C3.49975918 -0.62248681 6.51889477 -0.80736477 10 0 C12.91342989 2.82072985 14.32098475 6.34977724 16 10 C16.67322432 11.35284108 17.35194337 12.70295703 18.03515625 14.05078125 C19.43399345 16.81176069 20.80956675 19.58221466 22.16796875 22.36328125 C23.26160873 24.59554457 24.3847708 26.60414238 25.7265625 28.7109375 C27.70319401 32.2640236 27.20349773 34.99787798 27 39 C26.34 39 25.68 39 25 39 C25 39.66 25 40.32 25 41 C23.35 40.34 21.7 39.68 20 39 C20 37.68 20 36.36 20 35 C19.6913753 32.66327016 19.35543427 30.33006911 19 28 C18.66666667 25.66666667 18.33333333 23.33333333 18 21 C16.02 21.99 16.02 21.99 14 23 C7.79862303 16.9708835 3.3183134 11.02379059 0 3 C0 2.01 0 1.02 0 0 Z " fill="#205F9C" transform="translate(79,147)"/>
<path d="M0 0 C1.32 0.33 2.64 0.66 4 1 C3.28385417 2.82291667 2.56770833 4.64583333 1.8515625 6.46875 C-1.22267325 15.60684524 -1.36684095 24.12091558 -1.47851562 33.70898438 C-1.50494141 34.82982422 -1.53136719 35.95066406 -1.55859375 37.10546875 C-1.57204834 38.11762451 -1.58550293 39.12978027 -1.59936523 40.17260742 C-2.06188636 43.43674953 -3.03123873 45.37287871 -5 48 C-5.66 48 -6.32 48 -7 48 C-7.33 48.66 -7.66 49.32 -8 50 C-8 48.35 -8 46.7 -8 45 C-8.66 45 -9.32 45 -10 45 C-10.05845252 40.50005528 -10.09374855 36.00020937 -10.125 31.5 C-10.15013672 29.59734375 -10.15013672 29.59734375 -10.17578125 27.65625 C-10.20992039 21.10153565 -10.16043608 15.22447319 -8 9 C-6 7 -6 7 -4 6 C-3.34 6 -2.68 6 -2 6 C-2 4.68 -2 3.36 -2 2 C-1.34 2 -0.68 2 0 2 C0 1.34 0 0.68 0 0 Z " fill="#F4D639" transform="translate(85,71)"/>
<path d="M0 0 C0.61875 0.825 1.2375 1.65 1.875 2.5 C2.57625 3.325 3.2775 4.15 4 5 C4.66 5 5.32 5 6 5 C5.67 6.32 5.34 7.64 5 9 C5.66 9 6.32 9 7 9 C7.33 8.34 7.66 7.68 8 7 C10.35953094 9.35953094 10.49141413 10.77895617 11 14 C11.99 14.33 12.98 14.66 14 15 C14 16.32 14 17.64 14 19 C15.32064453 18.96519531 15.32064453 18.96519531 16.66796875 18.9296875 C17.82941406 18.91164062 18.99085937 18.89359375 20.1875 18.875 C21.33605469 18.85179687 22.48460937 18.82859375 23.66796875 18.8046875 C26.91740372 18.99515848 29.08660521 19.60639873 32 21 C31.505 22.485 31.505 22.485 31 24 C28.4375 25.0625 28.4375 25.0625 25 26 C23.783125 26.350625 22.56625 26.70125 21.3125 27.0625 C11.99307415 29.30748508 2.33838425 29.13504628 -7.1875 29.0625 C-8.90163086 29.05573242 -8.90163086 29.05573242 -10.65039062 29.04882812 C-13.4336511 29.03718268 -16.21679572 29.02082997 -19 29 C-19 28.67 -19 28.34 -19 28 C-10.64380043 27.24524649 -2.39004715 26.86394518 6 27 C5.505 24.525 5.505 24.525 5 22 C2.69 22 0.38 22 -2 22 C-1.67 21.34 -1.34 20.68 -1 20 C1.31 20 3.62 20 6 20 C6.25030977 17.58380177 6.25030977 17.58380177 6 15 C5.01 14.34 4.02 13.68 3 13 C2.8125 9.875 2.8125 9.875 3 7 C2.34 7 1.68 7 1 7 C0.67 4.69 0.34 2.38 0 0 Z " fill="#1F609F" transform="translate(65,114)"/>
<path d="M0 0 C1.43229167 1.33463542 2.86458333 2.66927083 4.296875 4.00390625 C5.99606115 5.23892732 5.99606115 5.23892732 8.203125 4.65234375 C8.79609375 4.43707031 9.3890625 4.22179687 10 4 C11.33583899 8.84241633 12.25328119 12.93437617 12 18 C12.66 18.33 13.32 18.66 14 19 C13.34 19.99 12.68 20.98 12 22 C14.475 22.99 14.475 22.99 17 24 C17 23.34 17 22.68 17 22 C17.66 22 18.32 22 19 22 C19 20.35 19 18.7 19 17 C22.39595151 20.94417687 24.76441899 25.02949628 27.125 29.625 C29.87287316 34.92049475 29.87287316 34.92049475 33 40 C33.33 40.66 33.66 41.32 34 42 C30.73045798 41.43628586 29.17424117 40.50037734 27 38 C27 38.99 27 39.98 27 41 C26.01 41.495 26.01 41.495 25 42 C25 43.65 25 45.3 25 47 C21.79271328 43.24391089 19.38704638 39.30446723 17.125 34.9375 C16.77767822 34.2770166 16.43035645 33.6165332 16.07250977 32.93603516 C13.48394361 27.99243977 10.98785475 23.00464488 8.51953125 18 C6.22949186 13.47879113 3.77600317 9.05018755 1.3203125 4.6171875 C0 2 0 2 0 0 Z " fill="#225F9C" transform="translate(87,164)"/>
<path d="M0 0 C-0.75023437 0.32871094 -1.50046875 0.65742187 -2.2734375 0.99609375 C-15.89485746 7.32645139 -24.06314713 15.73339649 -30.09375 29.49609375 C-35.18901707 43.86191619 -30.81284668 58.24900949 -26 72 C-27.32 71.67 -28.64 71.34 -30 71 C-34.5331638 57.42159309 -34.70660055 43.9838502 -34.8581543 29.77050781 C-34.98213227 27.34898971 -35.3053941 25.31234754 -36 23 C-34.68 23 -33.36 23 -32 23 C-31.71125 22.0925 -31.4225 21.185 -31.125 20.25 C-30.23193 17.67001999 -29.28282801 15.39461229 -28 13 C-27.67 12.34 -27.34 11.68 -27 11 C-26.01 10.67 -25.02 10.34 -24 10 C-23.34 9.67 -22.68 9.34 -22 9 C-21.67 8.01 -21.34 7.02 -21 6 C-19.07421875 4.83203125 -19.07421875 4.83203125 -16.6875 3.8125 C-15.90761719 3.46832031 -15.12773438 3.12414063 -14.32421875 2.76953125 C-12 2 -12 2 -8 2 C-8 1.34 -8 0.68 -8 0 C-4.90645403 -0.99435406 -3.09720845 -0.87840996 0 0 Z " fill="#2C628A" transform="translate(105,57)"/>
<path d="M0 0 C1.9375 0.375 1.9375 0.375 4 1 C4.33 1.66 4.66 2.32 5 3 C4.34 3 3.68 3 3 3 C3 3.99 3 4.98 3 6 C2.34 6 1.68 6 1 6 C1.25776564 13.73296917 2.09639531 19.29067944 6 26 C6.33 26.99 6.66 27.98 7 29 C8.65 29 10.3 29 12 29 C12 29.66 12 30.32 12 31 C13.65 31 15.3 31 17 31 C16.01 32.485 16.01 32.485 15 34 C13.20741442 33.91306859 11.41584856 33.80489496 9.625 33.6875 C8.12839844 33.60048828 8.12839844 33.60048828 6.6015625 33.51171875 C5.74304688 33.34285156 4.88453125 33.17398438 4 33 C2 30 2 30 2 26 C1.67 26.66 1.34 27.32 1 28 C0.01 27.67 -0.98 27.34 -2 27 C-2.33 26.01 -2.66 25.02 -3 24 C-3.34546875 23.43410156 -3.6909375 22.86820313 -4.046875 22.28515625 C-5.4270284 18.97618191 -5.26395181 16.00567465 -5.25 12.4375 C-5.26160156 11.42913086 -5.26160156 11.42913086 -5.2734375 10.40039062 C-5.25880148 6.71577164 -5.09589902 5.14384852 -3 2 C-3 2.66 -3 3.32 -3 4 C-2.34 4 -1.68 4 -1 4 C-0.67 2.68 -0.34 1.36 0 0 Z " fill="#1D5F9E" transform="translate(100,90)"/>
<path d="M0 0 C0.99 0.495 0.99 0.495 2 1 C2 1.66 2 2.32 2 3 C2.92941406 2.855625 3.85882813 2.71125 4.81640625 2.5625 C6.05261719 2.376875 7.28882812 2.19125 8.5625 2 C9.78066406 1.814375 10.99882813 1.62875 12.25390625 1.4375 C15.87627848 1.01444923 19.35712046 0.92498575 23 1 C23.33 2.98 23.66 4.96 24 7 C26.45906037 6.52434234 28.91720993 6.04463948 31.375 5.5625 C32.07367188 5.42779297 32.77234375 5.29308594 33.4921875 5.15429688 C37.35628734 4.4227578 37.35628734 4.4227578 41 3 C43.37123246 2.76970044 45.74741943 2.58880058 48.125 2.4375 C49.40632813 2.35371094 50.68765625 2.26992187 52.0078125 2.18359375 C52.99523437 2.12300781 53.98265625 2.06242188 55 2 C51.97943659 4.01370894 49.9798478 4.6408867 46.4921875 5.47265625 C45.42355469 5.73240234 44.35492188 5.99214844 43.25390625 6.25976562 C42.13886719 6.52466797 41.02382812 6.78957031 39.875 7.0625 C37.66331365 7.59193353 35.45233211 8.12432312 33.2421875 8.66015625 C32.2610498 8.89355713 31.27991211 9.12695801 30.26904297 9.36743164 C28.05056185 9.7856896 28.05056185 9.7856896 27 11 C24.47725104 11.4070867 21.97270927 11.75554641 19.4375 12.0625 C18.74591797 12.15337891 18.05433594 12.24425781 17.34179688 12.33789062 C12.52725828 12.93466009 7.85079085 13.08184686 3 13 C3 12.67 3 12.34 3 12 C4.19625 11.71125 5.3925 11.4225 6.625 11.125 C10.14790811 10.23645124 13.60999567 9.32292852 17 8 C17.33 7.34 17.66 6.68 18 6 C12.06 5.34 6.12 4.68 0 4 C0 2.68 0 1.36 0 0 Z " fill="#4F7FA5" transform="translate(79,129)"/>
<path d="M0 0 C3.42931954 3.7559214 4.56429083 8.23466745 6 13 C6.66 13 7.32 13 8 13 C8.33 12.34 8.66 11.68 9 11 C9.51949219 11.34933594 10.03898437 11.69867188 10.57421875 12.05859375 C15.87724314 15.54055504 15.87724314 15.54055504 22 17 C21.67 17.99 21.34 18.98 21 20 C20.38511719 19.98839844 19.77023438 19.97679687 19.13671875 19.96484375 C17.92435547 19.95130859 17.92435547 19.95130859 16.6875 19.9375 C15.88699219 19.92589844 15.08648437 19.91429687 14.26171875 19.90234375 C11.83138666 19.90342145 11.83138666 19.90342145 9 21 C5.00306405 20.3021223 2.00244455 19.57640562 -1.5 17.5625 C-3.95115765 13.37510568 -3.77109386 8.72381826 -3 4 C-1.47265625 1.65625 -1.47265625 1.65625 0 0 Z " fill="#215F9B" transform="translate(23,119)"/>
<path d="M0 0 C3.91085671 0.0699195 7.82085747 0.15835297 11.73095703 0.26245117 C13.69933525 0.3112441 15.66804034 0.34623438 17.63671875 0.38085938 C29.22067499 0.70426932 40.12226378 1.58077953 48.875 9.75 C49.24625 10.1625 49.6175 10.575 50 11 C49.67 11.66 49.34 12.32 49 13 C48.01 12.67 47.02 12.34 46 12 C46 11.34 46 10.68 46 10 C43.69 9.34 41.38 8.68 39 8 C39 7.34 39 6.68 39 6 C37.68 6 36.36 6 35 6 C35 5.34 35 4.68 35 4 C30.89620302 3.85510766 26.79306033 3.76606458 22.6875 3.6875 C20.93663086 3.6246582 20.93663086 3.6246582 19.15039062 3.56054688 C18.03212891 3.54443359 16.91386719 3.52832031 15.76171875 3.51171875 C14.73006592 3.48553467 13.69841309 3.45935059 12.63549805 3.43237305 C9.75441786 3.74817395 9.75441786 3.74817395 8.13989258 6.53051758 C7.76372803 7.34544678 7.38756348 8.16037598 7 9 C8.09699219 9.06058594 9.19398438 9.12117188 10.32421875 9.18359375 C11.77865654 9.26804498 13.23308305 9.35269066 14.6875 9.4375 C15.40873047 9.47681641 16.12996094 9.51613281 16.87304688 9.55664062 C20.66707282 9.78185678 24.28651492 10.12839305 28 11 C28 11.33 28 11.66 28 12 C24.3958502 12.02900455 20.79173038 12.04680018 17.1875 12.0625 C15.65125977 12.07506836 15.65125977 12.07506836 14.08398438 12.08789062 C12.60961914 12.09272461 12.60961914 12.09272461 11.10546875 12.09765625 C10.19949951 12.10289307 9.29353027 12.10812988 8.36010742 12.11352539 C6 12 6 12 3 11 C-1 5.74285714 -1 5.74285714 -1 2 C-0.67 1.34 -0.34 0.68 0 0 Z " fill="#608AB2" transform="translate(169,60)"/>
<path d="M0 0 C1 3 1 3 -0.0625 5.9375 C-1.28328091 8.87967342 -1.28328091 8.87967342 -0.25 11.3125 C0.90877315 13.14294055 0.90877315 13.14294055 3 14 C3.33 12.35 3.66 10.7 4 9 C5.32 8.67 6.64 8.34 8 8 C6.37317535 13.70323584 3.66802013 18.68013903 0.875 23.875 C0.40707031 24.75414062 -0.06085938 25.63328125 -0.54296875 26.5390625 C-1.6912093 28.69494271 -2.84363903 30.84846777 -4 33 C-4.33 33 -4.66 33 -5 33 C-5.33 30.36 -5.66 27.72 -6 25 C-5.34 24.67 -4.68 24.34 -4 24 C-4.66 23.34 -5.32 22.68 -6 22 C-8.10820797 22.3185177 -8.10820797 22.3185177 -10 23 C-9.49657198 17.27007382 -7.16867537 13.06035518 -4.4375 8.125 C-4.01275391 7.34125 -3.58800781 6.5575 -3.15039062 5.75 C-2.10789462 3.82899613 -1.05767555 1.9126751 0 0 Z " fill="#4D7FAE" transform="translate(141,162)"/>
<path d="M0 0 C-1.42779298 6.42506843 -3.97887176 12.7534715 -8 18 C-10.63671875 18.8828125 -10.63671875 18.8828125 -13 19 C-13.33 18.67 -13.66 18.34 -14 18 C-14.99 19.32 -15.98 20.64 -17 22 C-17.66 21.67 -18.32 21.34 -19 21 C-19 20.34 -19 19.68 -19 19 C-18.34 19 -17.68 19 -17 19 C-17.2475 17.989375 -17.495 16.97875 -17.75 15.9375 C-17.99439569 12.08826783 -17.73210537 9.91235929 -15.64453125 6.64453125 C-11.69847697 2.69847697 -5.56141501 0 0 0 Z " fill="#2463A0" transform="translate(173,123)"/>
<path d="M0 0 C-0.56847656 0.4125 -1.13695313 0.825 -1.72265625 1.25 C-12.25732364 9.12901668 -20.55618387 18.67009383 -23 32 C-23.66983643 41.44947821 -22.53978108 49.89911781 -20 59 C-22.62857962 57.68571019 -22.70280968 56.7572559 -23.625 54 C-27.14548079 41.36237666 -25.88086808 26.76173615 -20 15 C-20.99 14.67 -21.98 14.34 -23 14 C-23 14.66 -23 15.32 -23 16 C-23.66 16 -24.32 16 -25 16 C-25 17.32 -25 18.64 -25 20 C-27.5 21.75 -27.5 21.75 -30 23 C-27.55441161 14.30457461 -19.24773642 7.78350604 -12 3 C-4.08114558 -1.36038186 -4.08114558 -1.36038186 0 0 Z " fill="#F6EB8C" transform="translate(108,57)"/>
<path d="M0 0 C0.66 0.33 1.32 0.66 2 1 C1.690625 2.670625 1.690625 2.670625 1.375 4.375 C1.25125 5.57125 1.1275 6.7675 1 8 C1.66 8.66 2.32 9.32 3 10 C-1.20504758 11.20144217 -4.79495242 11.20144217 -9 10 C-8.67 10.99 -8.34 11.98 -8 13 C-9.32 13 -10.64 13 -12 13 C-12.33 13.99 -12.66 14.98 -13 16 C-16.96 16.495 -16.96 16.495 -21 17 C-9 7 -9 7 -3 5 C-3 4.34 -3 3.68 -3 3 C-2.34 3 -1.68 3 -1 3 C-0.67 2.01 -0.34 1.02 0 0 Z M6 8 C6 11 6 11 3.625 13.6875 C1 16 1 16 -1 16 C-1 16.66 -1 17.32 -1 18 C-1.886875 18.495 -2.77375 18.99 -3.6875 19.5 C-6.26490067 20.95541106 -8.75919345 22.48577444 -11.25390625 24.08203125 C-11.82858643 24.448125 -12.4032666 24.81421875 -12.99536133 25.19140625 C-14.15813909 25.93434148 -15.31565451 26.68558272 -16.4675293 27.4453125 C-17.93142275 28.37523857 -19.46318702 29.19628835 -21 30 C-21.99 29.67 -22.98 29.34 -24 29 C-23.360625 28.71125 -22.72125 28.4225 -22.0625 28.125 C-19.84793921 27.17176549 -19.84793921 27.17176549 -19 25 C-18.34 25 -17.68 25 -17 25 C-17 24.34 -17 23.68 -17 23 C-15.02 22.01 -13.04 21.02 -11 20 C-11 19.34 -11 18.68 -11 18 C-9.35 18 -7.7 18 -6 18 C-6.185625 17.38125 -6.37125 16.7625 -6.5625 16.125 C-7 14 -7 14 -6 12 C-5.34 12 -4.68 12 -4 12 C-4 12.66 -4 13.32 -4 14 C0.43090471 12.79157144 2.98112756 11.48331435 6 8 Z " fill="#4F82B1" transform="translate(208,82)"/>
<path d="M0 0 C3 2 3 2 4 5.3125 C4 9 4 9 2 12 C-1 14 -1 14 -4.625 14 C-9.50231839 12.55486862 -9.50231839 12.55486862 -11 10 C-11.4375 7.0625 -11.4375 7.0625 -11 4 C-7.47673435 -0.34536097 -5.38881937 -1.44578081 0 0 Z " fill="#4477A8" transform="translate(171,39)"/>
<path d="M0 0 C0.66 0.33 1.32 0.66 2 1 C-1.14378706 5.52705337 -4.16008937 7.58004469 -9 10 C-9.66 10 -10.32 10 -11 10 C-11.0825 10.61875 -11.165 11.2375 -11.25 11.875 C-12 14 -12 14 -14.0625 15.25 C-14.701875 15.4975 -15.34125 15.745 -16 16 C-15.01 16.33 -14.02 16.66 -13 17 C-13.3125 19.375 -13.3125 19.375 -14 22 C-14.99 22.66 -15.98 23.32 -17 24 C-17.73343428 27.06556598 -17.73343428 27.06556598 -18 30 C-19.65 29.67 -21.3 29.34 -23 29 C-22.34 30.65 -21.68 32.3 -21 34 C-22.32 34.66 -23.64 35.32 -25 36 C-25 37.65 -25 39.3 -25 41 C-25.99 40.34 -26.98 39.68 -28 39 C-26.46630741 23.91229915 -16.77174828 12.64069483 -5.60546875 3.15625 C-3.79396791 1.85161679 -2.07061841 0.84000747 0 0 Z " fill="#216098" transform="translate(92,51)"/>
<path d="M0 0 C4.29243715 2.20647957 6.86550395 4.95216634 8.80859375 9.3046875 C9.12249681 13.32882186 9.0431602 17.27796351 8.80859375 21.3046875 C6.84125642 17.7388886 6.80859375 15.36527074 6.80859375 11.3046875 C5.60114431 8.09992126 5.60114431 8.09992126 2.80859375 6.3046875 C2.47859375 6.9646875 2.14859375 7.6246875 1.80859375 8.3046875 C-3.94140625 6.6796875 -3.94140625 6.6796875 -6.19140625 3.3046875 C-8.61662119 2.72279484 -8.61662119 2.72279484 -11.31640625 2.6171875 C-12.22648437 2.55144531 -13.1365625 2.48570313 -14.07421875 2.41796875 C-14.77289063 2.38058594 -15.4715625 2.34320313 -16.19140625 2.3046875 C-16.37703125 3.51125 -16.37703125 3.51125 -16.56640625 4.7421875 C-16.77265625 5.5878125 -16.97890625 6.4334375 -17.19140625 7.3046875 C-18.18140625 7.7996875 -18.18140625 7.7996875 -19.19140625 8.3046875 C-19.52140625 9.2946875 -19.85140625 10.2846875 -20.19140625 11.3046875 C-20.85140625 11.3046875 -21.51140625 11.3046875 -22.19140625 11.3046875 C-21.86140625 15.5946875 -21.53140625 19.8846875 -21.19140625 24.3046875 C-20.20140625 24.3046875 -19.21140625 24.3046875 -18.19140625 24.3046875 C-18.19140625 24.9646875 -18.19140625 25.6246875 -18.19140625 26.3046875 C-17.53140625 26.3046875 -16.87140625 26.3046875 -16.19140625 26.3046875 C-15.86140625 27.6246875 -15.53140625 28.9446875 -15.19140625 30.3046875 C-18.9963037 28.80990636 -20.8533146 26.61026536 -23.19140625 23.3046875 C-25.04102479 17.75583187 -24.99038227 12.3631551 -22.56640625 6.9921875 C-17.68204971 -1.44595948 -8.97375881 -2.84728889 0 0 Z M-2.19140625 1.3046875 C-2.19140625 1.9646875 -2.19140625 2.6246875 -2.19140625 3.3046875 C-1.53140625 3.3046875 -0.87140625 3.3046875 -0.19140625 3.3046875 C-0.19140625 2.6446875 -0.19140625 1.9846875 -0.19140625 1.3046875 C-0.85140625 1.3046875 -1.51140625 1.3046875 -2.19140625 1.3046875 Z M-0.19140625 3.3046875 C0.79859375 4.2946875 1.78859375 5.2846875 2.80859375 6.3046875 C2.80859375 5.3146875 2.80859375 4.3246875 2.80859375 3.3046875 C1.81859375 3.3046875 0.82859375 3.3046875 -0.19140625 3.3046875 Z " fill="#E5D54E" transform="translate(127.19140625,86.6953125)"/>
<path d="M0 0 C1.45702511 0.01004845 2.91405691 0.01917101 4.37109375 0.02734375 C7.91420329 0.04921289 11.45705812 0.08364023 15 0.125 C15 0.455 15 0.785 15 1.125 C7.08 1.455 -0.84 1.785 -9 2.125 C-9.99 4.435 -10.98 6.745 -12 9.125 C-13.65 8.795 -15.3 8.465 -17 8.125 C-17 6.805 -17 5.485 -17 4.125 C-19.97 4.785 -22.94 5.445 -26 6.125 C-25.16745087 8.35839896 -25.16745087 8.35839896 -22.71484375 8.9765625 C-21.79832031 9.23179687 -20.88179687 9.48703125 -19.9375 9.75 C-19.01839844 10.01039063 -18.09929687 10.27078125 -17.15234375 10.5390625 C-16.44207031 10.73242188 -15.73179688 10.92578125 -15 11.125 C-15 11.785 -15 12.445 -15 13.125 C-14.01 13.455 -13.02 13.785 -12 14.125 C-17.90684744 14.62771042 -23.04834116 13.56778426 -28 10.125 C-28.7578125 7.984375 -28.7578125 7.984375 -29 6.125 C-20.90654082 -1.46261798 -10.33079919 -0.12424152 0 0 Z " fill="#5A88B3" transform="translate(120,224.875)"/>
<path d="M0 0 C0.99 0.33 1.98 0.66 3 1 C2.8125 2.8125 2.8125 2.8125 2 5 C-1.34811134 7.53370588 -2.70124217 8 -7 8 C-7 8.66 -7 9.32 -7 10 C-7.74765625 10.24234375 -8.4953125 10.4846875 -9.265625 10.734375 C-10.25046875 11.06953125 -11.2353125 11.4046875 -12.25 11.75 C-13.22453125 12.07484375 -14.1990625 12.3996875 -15.203125 12.734375 C-18.84962455 14.38446697 -21.20251695 16.40503389 -23 20 C-23.61875 19.814375 -24.2375 19.62875 -24.875 19.4375 C-27.04160178 18.76313824 -27.04160178 18.76313824 -29 20 C-28.34 18.68 -27.68 17.36 -27 16 C-26.01 16 -25.02 16 -24 16 C-23.95875 15.4225 -23.9175 14.845 -23.875 14.25 C-22.53737351 10.81038902 -20.14042375 9.7586373 -17 8 C-16.01 8 -15.02 8 -14 8 C-13.67 7.01 -13.34 6.02 -13 5 C-12.34 5 -11.68 5 -11 5 C-10.67 4.01 -10.34 3.02 -10 2 C-8.22265625 1.015625 -8.22265625 1.015625 -6.0625 0.25 C-5.35222656 -0.01296875 -4.64195313 -0.2759375 -3.91015625 -0.546875 C-2 -1 -2 -1 0 0 Z " fill="#1B609F" transform="translate(104,49)"/>
<path d="M0 0 C1.37562854 1.28965176 2.70766393 2.62689293 4 4 C4 4.66 4 5.32 4 6 C4.99 6.33 5.98 6.66 7 7 C8.03863773 13.23182639 7.83288874 18.74692761 7 25 C6.01 25 5.02 25 4 25 C3.67 25.66 3.34 26.32 3 27 C2.67 25.68 2.34 24.36 2 23 C1.34 23 0.68 23 0 23 C0.04125 22.030625 0.0825 21.06125 0.125 20.0625 C0.14839387 16.22590475 -0.65781612 12.8016309 -1.66015625 9.11328125 C-2.03894816 6.75780514 -1.6087912 5.27697498 -1 3 C-1.33 2.34 -1.66 1.68 -2 1 C-1.34 0.67 -0.68 0.34 0 0 Z " fill="#1F5F9C" transform="translate(137,86)"/>
<path d="M0 0 C0.66 0.99 1.32 1.98 2 3 C-0.475 2.505 -0.475 2.505 -3 2 C-3 2.66 -3 3.32 -3 4 C-4.65 4.33 -6.3 4.66 -8 5 C-7.505 6.485 -7.505 6.485 -7 8 C-9.475 7.01 -9.475 7.01 -12 6 C-12 2.30465565 -11.63342306 0.63342306 -9 -2 C-9.495 -2.99 -9.495 -2.99 -10 -4 C-11.98 -4 -13.96 -4 -16 -4 C-16.66 -5.32 -17.32 -6.64 -18 -8 C-18.99 -7.67 -19.98 -7.34 -21 -7 C-21 -7.66 -21 -8.32 -21 -9 C-30.9 -9 -40.8 -9 -51 -9 C-36.19652065 -18.86898623 -12.73894109 -9.64831152 0 0 Z " fill="#6C99C1" transform="translate(155,56)"/>
<path d="M0 0 C3.03029676 3.64582579 4.94568531 7.70144133 7 11.9375 C7.68555296 13.34339902 8.37301325 14.74836978 9.0625 16.15234375 C9.38887451 16.8177417 9.71524902 17.48313965 10.05151367 18.16870117 C11.06395568 20.18944882 11.06395568 20.18944882 12.73828125 22.734375 C14.70766823 26.27073552 14.20255196 29.01647811 14 33 C13.34 33 12.68 33 12 33 C12 33.66 12 34.32 12 35 C10.35 34.34 8.7 33.68 7 33 C7 31.68 7 30.36 7 29 C6.44478504 24.45628049 6.44478504 24.45628049 5.4375 20 C4.78172358 17.00216494 4.9412383 14.05560818 5 11 C4.34 11 3.68 11 3 11 C0 4.5 0 4.5 0 0 Z " fill="#37697E" transform="translate(92,153)"/>
<path d="M0 0 C1.21606445 1.46606445 1.21606445 1.46606445 2.36328125 3.42578125 C2.79116943 4.15152344 3.21905762 4.87726563 3.65991211 5.625 C4.10214111 6.40875 4.54437012 7.1925 5 8 C5.44674072 8.78890625 5.89348145 9.5778125 6.35375977 10.390625 C7.72139009 12.85083426 9.05222 15.32792349 10.375 17.8125 C10.83777344 18.65748047 11.30054687 19.50246094 11.77734375 20.37304688 C12.20917969 21.18451172 12.64101562 21.99597656 13.0859375 22.83203125 C13.4782959 23.56139893 13.8706543 24.2907666 14.27490234 25.04223633 C15 27 15 27 14 30 C13.67 28.68 13.34 27.36 13 26 C12.34 26 11.68 26 11 26 C10.67 24.68 10.34 23.36 10 22 C9.34 22 8.68 22 8 22 C7.34 20.02 6.68 18.04 6 16 C5.34 16 4.68 16 4 16 C3.34 13.36 2.68 10.72 2 8 C1.34 8 0.68 8 0 8 C0 6.68 0 5.36 0 4 C-3.63 4 -7.26 4 -11 4 C-10.67 5.65 -10.34 7.3 -10 9 C-11.70840281 7.36587557 -12.93453047 6.13093906 -14 4 C-14.99 3.34 -15.98 2.68 -17 2 C-4.34469201 -0.85190039 -4.34469201 -0.85190039 0 0 Z " fill="#F9EC9A" transform="translate(103,144)"/>
<path d="M0 0 C2.03120707 3.04681061 2.24659875 3.60118324 2.1953125 7.01171875 C2.18886719 7.76904297 2.18242187 8.52636719 2.17578125 9.30664062 C2.15902344 10.09232422 2.14226562 10.87800781 2.125 11.6875 C2.11597656 12.48478516 2.10695312 13.28207031 2.09765625 14.10351562 C2.07411585 16.069139 2.03824547 18.03460775 2 20 C0.68 20.33 -0.64 20.66 -2 21 C-2 21.66 -2 22.32 -2 23 C-3.41225926 23.67595315 -4.83002905 24.34040059 -6.25 25 C-7.43335938 25.556875 -7.43335938 25.556875 -8.640625 26.125 C-11 27 -11 27 -15 27 C-15.66 27.99 -16.32 28.98 -17 30 C-19.64 29.67 -22.28 29.34 -25 29 C-24.67 26.36 -24.34 23.72 -24 21 C-23.01 21 -22.02 21 -21 21 C-21 15.06 -21 9.12 -21 3 C-18.66712904 6.49930644 -18.70206454 8.04631638 -18.6875 12.1875 C-18.66236328 13.81751953 -18.66236328 13.81751953 -18.63671875 15.48046875 C-19.07986121 19.77370912 -20.3513967 23.01986275 -22 27 C-21.06148193 26.63648438 -21.06148193 26.63648438 -20.10400391 26.265625 C-17.2789902 25.17362937 -14.45203336 24.08675568 -11.625 23 C-10.64015625 22.6184375 -9.6553125 22.236875 -8.640625 21.84375 C-7.69960937 21.4828125 -6.75859375 21.121875 -5.7890625 20.75 C-4.91975098 20.41484375 -4.05043945 20.0796875 -3.15478516 19.734375 C-1 19 -1 19 1 19 C0.505 9.595 0.505 9.595 0 0 Z " fill="#8CAFCD" transform="translate(165,90)"/>
<path d="M0 0 C0.598125 0.639375 1.19625 1.27875 1.8125 1.9375 C3.90810337 4.20310389 3.90810337 4.20310389 7 5 C7 4.34 7 3.68 7 3 C8.98 2.34 10.96 1.68 13 1 C12.69106068 2.6256807 12.3777305 4.25052748 12.0625 5.875 C11.88847656 6.77992188 11.71445313 7.68484375 11.53515625 8.6171875 C11 11 11 11 10 13 C9.34 13 8.68 13 8 13 C8 12.34 8 11.68 8 11 C7.01 11 6.02 11 5 11 C4.67 11.99 4.34 12.98 4 14 C2.68 14 1.36 14 0 14 C-2.29558139 10.1262064 -2.41273027 7.12261279 -1.5625 2.75 C-1 1 -1 1 0 0 Z " fill="#1D609E" transform="translate(114,201)"/>
<path d="M0 0 C0.5775 0.23332031 1.155 0.46664062 1.75 0.70703125 C0.75 3.70703125 0.75 3.70703125 -1.25 5.70703125 C-1.25 6.69703125 -1.25 7.68703125 -1.25 8.70703125 C-2.25 10.89453125 -2.25 10.89453125 -3.25 12.70703125 C-4.57 12.04703125 -5.89 11.38703125 -7.25 10.70703125 C-7.353125 11.34640625 -7.45625 11.98578125 -7.5625 12.64453125 C-7.789375 13.32515625 -8.01625 14.00578125 -8.25 14.70703125 C-9.24 15.03703125 -10.23 15.36703125 -11.25 15.70703125 C-11.58 20.65703125 -11.91 25.60703125 -12.25 30.70703125 C-11.59 31.03703125 -10.93 31.36703125 -10.25 31.70703125 C-10.91 32.69703125 -11.57 33.68703125 -12.25 34.70703125 C-15.35262138 27.5322193 -15.3031292 19.85130493 -12.75 12.51953125 C-10.63046352 7.79599282 -5.92302577 -0.77122731 0 0 Z " fill="#5988B5" transform="translate(107.25,79.29296875)"/>
<path d="M0 0 C0.61875 0.825 1.2375 1.65 1.875 2.5 C2.57625 3.325 3.2775 4.15 4 5 C4.66 5 5.32 5 6 5 C6.144375 5.928125 6.28875 6.85625 6.4375 7.8125 C6.92100111 11.00725111 6.92100111 11.00725111 8 14 C8.2295082 20.54098361 8.2295082 20.54098361 7 23 C7.66 23.33 8.32 23.66 9 24 C8.67 24.66 8.34 25.32 8 26 C9.65 26.33 11.3 26.66 13 27 C13 27.33 13 27.66 13 28 C6.35958878 29.22399452 -0.20221697 29.11227753 -6.9375 29.0625 C-8.67870117 29.05573242 -8.67870117 29.05573242 -10.45507812 29.04882812 C-13.30343934 29.03710647 -16.15169222 29.0206976 -19 29 C-19 28.67 -19 28.34 -19 28 C-10.64380043 27.24524649 -2.39004715 26.86394518 6 27 C5.505 24.525 5.505 24.525 5 22 C2.69 22 0.38 22 -2 22 C-1.67 21.34 -1.34 20.68 -1 20 C1.31 20 3.62 20 6 20 C6.25030977 17.58380177 6.25030977 17.58380177 6 15 C5.01 14.34 4.02 13.68 3 13 C2.8125 9.875 2.8125 9.875 3 7 C2.34 7 1.68 7 1 7 C0.67 4.69 0.34 2.38 0 0 Z " fill="#235C8D" transform="translate(65,114)"/>
<path d="M0 0 C1 3 1 3 0.28735352 4.7175293 C-0.09493408 5.33023682 -0.47722168 5.94294434 -0.87109375 6.57421875 C-1.28037109 7.24130859 -1.68964844 7.90839844 -2.11132812 8.59570312 C-2.54896484 9.28599609 -2.98660156 9.97628906 -3.4375 10.6875 C-4.0881543 11.7403418 -4.0881543 11.7403418 -4.75195312 12.81445312 C-5.82550587 14.54865372 -6.91158654 16.27508744 -8 18 C-13.57355998 17.43423397 -13.57355998 17.43423397 -15.49609375 15.4765625 C-16.40583247 13.68728386 -17.20546267 11.84332662 -18 10 C-17.67 9.01 -17.34 8.02 -17 7 C-16.67 8.32 -16.34 9.64 -16 11 C-14.68 11 -13.36 11 -12 11 C-11.67 9.68 -11.34 8.36 -11 7 C-10.01 7.33 -9.02 7.66 -8 8 C-8 8.66 -8 9.32 -8 10 C-7.34 10 -6.68 10 -6 10 C-5.62875 8.081875 -5.62875 8.081875 -5.25 6.125 C-4.29503515 2.20826011 -4.29503515 2.20826011 -1.875 0.5 C-1.25625 0.335 -0.6375 0.17 0 0 Z " fill="#245E9B" transform="translate(130,204)"/>
<path d="M0 0 C0.10821437 3.48314988 -0.02088487 6.64230151 -1 10 C-3.36175922 12.36175922 -5.89579511 13.79386722 -9 15 C-9.66 15 -10.32 15 -11 15 C-11 13.02 -11 11.04 -11 9 C-9.02 9 -7.04 9 -5 9 C-4.34 7.02 -3.68 5.04 -3 3 C-7.455 4.485 -7.455 4.485 -12 6 C-12 6.66 -12 7.32 -12 8 C-14.98241547 8.77321882 -17.97580475 9.41196203 -21 10 C-17.98869336 6.74316716 -14.86396231 4.46454237 -11.0625 2.1875 C-9.53302734 1.24970703 -9.53302734 1.24970703 -7.97265625 0.29296875 C-4.69475806 -1.13276621 -3.33770959 -1.10027627 0 0 Z " fill="#325E90" transform="translate(59,93)"/>
<path d="M0 0 C3 1.625 3 1.625 6 4 C6.6060391 7.29954622 6.61896635 9.02268471 4.8125 11.875 C2.34492892 13.40659584 0.85480169 13.42822025 -2 13 C-3.8125 11.875 -3.8125 11.875 -5 10 C-5.5 7.0625 -5.5 7.0625 -5 4 C-2.5 1.625 -2.5 1.625 0 0 Z " fill="#5F84A8" transform="translate(67,147)"/>
<path d="M0 0 C-0.33 1.98 -0.66 3.96 -1 6 C-5.75 7.125 -5.75 7.125 -8 6 C-8 7.98 -8 9.96 -8 12 C-9.99954746 12.04254356 -12.00041636 12.04080783 -14 12 C-14.33 11.67 -14.66 11.34 -15 11 C-16.66608987 10.95615553 -18.33380554 10.9603287 -20 11 C-20.99 11 -21.98 11 -23 11 C-22.34 10.34 -21.68 9.68 -21 9 C-20.01 9 -19.02 9 -18 9 C-18 8.34 -18 7.68 -18 7 C-17.195625 6.87625 -16.39125 6.7525 -15.5625 6.625 C-14.716875 6.41875 -13.87125 6.2125 -13 6 C-12.67 5.34 -12.34 4.68 -12 4 C-11.01 4.33 -10.02 4.66 -9 5 C-9 4.34 -9 3.68 -9 3 C-5.63316085 0.56839395 -4.26649636 0 0 0 Z " fill="#1E5F9D" transform="translate(56,96)"/>
<path d="M0 0 C-0.33 1.65 -0.66 3.3 -1 5 C-1.66 5 -2.32 5 -3 5 C-3 6.32 -3 7.64 -3 9 C-7.75 10.125 -7.75 10.125 -10 9 C-10 9.66 -10 10.32 -10 11 C-14.455 11.495 -14.455 11.495 -19 12 C-18.01 11.01 -17.02 10.02 -16 9 C-16 8.34 -16 7.68 -16 7 C-15.34 7 -14.68 7 -14 7 C-13.67 5.68 -13.34 4.36 -13 3 C-12.113125 2.87625 -11.22625 2.7525 -10.3125 2.625 C-6.80252696 1.96274094 -3.5219389 0 0 0 Z " fill="#1D5F9D" transform="translate(163,113)"/>
<path d="M0 0 C3.5625 0.125 3.5625 0.125 5.5625 1.125 C5.5625 1.785 5.5625 2.445 5.5625 3.125 C7.8725 3.125 10.1825 3.125 12.5625 3.125 C12.5625 3.455 12.5625 3.785 12.5625 4.125 C22.1325 4.125 31.7025 4.125 41.5625 4.125 C41.5625 4.455 41.5625 4.785 41.5625 5.125 C34.46137854 6.25095876 27.55009955 6.30885967 20.375 6.3125 C19.12396484 6.32474609 17.87292969 6.33699219 16.58398438 6.34960938 C-4.29313805 6.3822129 -4.29313805 6.3822129 -10.4375 1.125 C-8.9834375 1.1559375 -8.9834375 1.1559375 -7.5 1.1875 C-3.84451922 1.11289835 -3.78549668 0.13765442 0 0 Z " fill="#719DC2" transform="translate(38.4375,137.875)"/>
<path d="M0 0 C3 1 3 1 4 3 C4.06950541 4.54023996 4.08452357 6.08334988 4.0625 7.625 C4.05347656 8.44226563 4.04445312 9.25953125 4.03515625 10.1015625 C4.02355469 10.72804687 4.01195312 11.35453125 4 12 C3.35546875 12.28617188 2.7109375 12.57234375 2.046875 12.8671875 C-0.19884128 13.81418662 -0.19884128 13.81418662 -0.75 16.125 C-0.8325 16.74375 -0.915 17.3625 -1 18 C-1.99 17.67 -2.98 17.34 -4 17 C-4 16.01 -4 15.02 -4 14 C-4.66 13.67 -5.32 13.34 -6 13 C-4.8905928 9.51329166 -3.73662334 6.22515763 -2 3 C-1.34 3 -0.68 3 0 3 C0 2.01 0 1.02 0 0 Z " fill="#20609F" transform="translate(145,158)"/>
<path d="M0 0 C1.65 0 3.3 0 5 0 C5 0.66 5 1.32 5 2 C4.34 2 3.68 2 3 2 C3 3.98 3 5.96 3 8 C1.35 8 -0.3 8 -2 8 C-2 8.66 -2 9.32 -2 10 C-1.34 10.33 -0.68 10.66 0 11 C-2.90600261 12.25664978 -4.79604584 13 -8 13 C-8.33 13.66 -8.66 14.32 -9 15 C-10.0625 13.1875 -10.0625 13.1875 -11 11 C-10.67 10.01 -10.34 9.02 -10 8 C-10.66 7.67 -11.32 7.34 -12 7 C-9.36 6.67 -6.72 6.34 -4 6 C-3.67 4.68 -3.34 3.36 -3 2 C-2.01 2 -1.02 2 0 2 C0 1.34 0 0.68 0 0 Z " fill="#1D619F" transform="translate(199,92)"/>
<path d="M0 0 C2 1 4 2 6 3 C6.33 2.34 6.66 1.68 7 1 C9.0625 0.375 9.0625 0.375 11 0 C11 1.32 11 2.64 11 4 C13.11785113 5.11785113 13.11785113 5.11785113 16 6 C16.33 6.99 16.66 7.98 17 9 C17.6599679 10.66933058 18.32558869 12.3364521 19 14 C16.03 13.67 13.06 13.34 10 13 C10 12.01 10 11.02 10 10 C9.34 10 8.68 10 8 10 C7.34 8.68 6.68 7.36 6 6 C5.34 6 4.68 6 4 6 C2.61061923 4.03852126 1.2739589 2.03833424 0 0 Z " fill="#1C5E9B" transform="translate(151,65)"/>
<path d="M0 0 C1.43229167 1.33463542 2.86458333 2.66927083 4.296875 4.00390625 C5.99606115 5.23892732 5.99606115 5.23892732 8.203125 4.65234375 C8.79609375 4.43707031 9.3890625 4.22179687 10 4 C11.33583899 8.84241633 12.25328119 12.93437617 12 18 C12.66 18.33 13.32 18.66 14 19 C13.34 19.99 12.68 20.98 12 22 C12.66 22.33 13.32 22.66 14 23 C13.01 23 12.02 23 11 23 C9.16002803 19.54515902 7.32916118 16.0855752 5.5 12.625 C4.97535156 11.64015625 4.45070313 10.6553125 3.91015625 9.640625 C3.16572266 8.22910156 3.16572266 8.22910156 2.40625 6.7890625 C1.94541016 5.91975098 1.48457031 5.05043945 1.00976562 4.15478516 C0 2 0 2 0 0 Z " fill="#3B73AA" transform="translate(87,164)"/>
<path d="M0 0 C0.33 0.66 0.66 1.32 1 2 C0.29541627 3.69740625 -0.41444074 5.39451463 -1.2109375 7.05078125 C-6.70859515 20.63162861 -1.56365206 35.96099412 3 49 C1.68 48.67 0.36 48.34 -1 48 C-5.86949368 33.80455636 -5.42380205 19.85263168 -5 5 C-4.360625 4.731875 -3.72125 4.46375 -3.0625 4.1875 C-0.66868314 3.11332248 -0.66868314 3.11332248 0 0 Z " fill="#3A676F" transform="translate(76,80)"/>
<path d="M0 0 C2.69873047 -0.29638672 2.69873047 -0.29638672 6.1171875 -0.1796875 C7.98890625 -0.1178125 7.98890625 -0.1178125 9.8984375 -0.0546875 C11.86683594 0.03425781 11.86683594 0.03425781 13.875 0.125 C15.14859375 0.16109375 16.4221875 0.1971875 17.734375 0.234375 C29.2361152 0.68127288 40.18946006 1.64349606 48.875 9.75 C49.24625 10.1625 49.6175 10.575 50 11 C49.67 11.66 49.34 12.32 49 13 C48.01 12.67 47.02 12.34 46 12 C46 11.34 46 10.68 46 10 C43.69 9.34 41.38 8.68 39 8 C39 7.34 39 6.68 39 6 C37.68 6 36.36 6 35 6 C35 5.34 35 4.68 35 4 C28.06117901 2.77307623 21.0935622 2.6624055 14.0625 2.4375 C12.80630859 2.39431641 11.55011719 2.35113281 10.25585938 2.30664062 C7.17067032 2.20106381 4.08540737 2.09895449 1 2 C1.33 3.65 1.66 5.3 2 7 C0.68 5.68 -0.64 4.36 -2 3 C-1.34 2.01 -0.68 1.02 0 0 Z " fill="#B2CBE0" transform="translate(169,60)"/>
<path d="M0 0 C7 8.20689655 7 8.20689655 7 13 C6.34 13 5.68 13 5 13 C5 12.34 5 11.68 5 11 C4.1028125 11.3403125 4.1028125 11.3403125 3.1875 11.6875 C2.465625 11.790625 1.74375 11.89375 1 12 C-0.75 10.5625 -0.75 10.5625 -2 9 C-1.690625 9.495 -1.38125 9.99 -1.0625 10.5 C0.41644382 13.97986781 0.62402851 17.24028509 1 21 C-1.75907807 19.62046097 -2.25444066 17.9246112 -3.625 15.1875 C-4.07101563 14.31480469 -4.51703125 13.44210938 -4.9765625 12.54296875 C-6 10 -6 10 -6 6 C-4.68 6.33 -3.36 6.66 -2 7 C-2 6.34 -2 5.68 -2 5 C-1.34 5 -0.68 5 0 5 C0 3.35 0 1.7 0 0 Z " fill="#497A9C" transform="translate(106,181)"/>
<path d="M0 0 C0.50789063 0.26554688 1.01578125 0.53109375 1.5390625 0.8046875 C5.62218902 2.89977489 9.5873062 4.67619186 14 6 C13.67 6.99 13.34 7.98 13 9 C12.07767578 8.98259766 12.07767578 8.98259766 11.13671875 8.96484375 C9.92435547 8.95130859 9.92435547 8.95130859 8.6875 8.9375 C7.88699219 8.92589844 7.08648437 8.91429687 6.26171875 8.90234375 C3.83138666 8.90342145 3.83138666 8.90342145 1 10 C-1.6875 9.0625 -1.6875 9.0625 -4 8 C-3.67 6.35 -3.34 4.7 -3 3 C-2.01 2.67 -1.02 2.34 0 2 C0 1.34 0 0.68 0 0 Z " fill="#1F5F9B" transform="translate(31,130)"/>
<path d="M0 0 C-1.39331247 5.95324421 -3.88535757 10.75741484 -7 16 C-8.31625194 13.36749612 -7.74813658 12.19820944 -7.0625 9.375 C-6.86785156 8.55773437 -6.67320312 7.74046875 -6.47265625 6.8984375 C-6.31667969 6.27195313 -6.16070312 5.64546875 -6 5 C-10.15300516 6.82520609 -12.1182453 9.52711613 -15 13 C-15.99 13.33 -16.98 13.66 -18 14 C-16.83967946 10.07276124 -15.74494985 7.05953961 -13 4 C-10.625 2.734375 -10.625 2.734375 -8 1.75 C-7.13375 1.41484375 -6.2675 1.0796875 -5.375 0.734375 C-3 0 -3 0 0 0 Z " fill="#87A4C1" transform="translate(173,123)"/>
<path d="M0 0 C0.93779297 0.00322266 1.87558594 0.00644531 2.84179688 0.00976562 C4.30649414 0.02233398 4.30649414 0.02233398 5.80078125 0.03515625 C6.78884766 0.03966797 7.77691406 0.04417969 8.79492188 0.04882812 C11.23443599 0.06061322 13.67382814 0.07706614 16.11328125 0.09765625 C16.11328125 0.75765625 16.11328125 1.41765625 16.11328125 2.09765625 C16.77714844 2.03964844 17.44101563 1.98164062 18.125 1.921875 C25.25133477 1.55775571 25.25133477 1.55775571 27.890625 3.2109375 C29.23828125 4.59765625 29.23828125 4.59765625 31.11328125 7.09765625 C27.66212143 7.09765625 25.48736289 6.15042052 22.34375 4.8515625 C17.72454997 3.29025671 13.12360882 2.97394481 8.27734375 3 C6.68212891 3.00483398 6.68212891 3.00483398 5.0546875 3.00976562 C3.41306641 3.02233398 3.41306641 3.02233398 1.73828125 3.03515625 C0.62066406 3.03966797 -0.49695313 3.04417969 -1.6484375 3.04882812 C-4.39458679 3.06056381 -7.14062461 3.07698262 -9.88671875 3.09765625 C-6.80878016 0.01971766 -4.15411564 -0.02517646 0 0 Z " fill="#5783AC" transform="translate(111.88671875,52.90234375)"/>
<path d="M0 0 C8.35294118 0.9638009 8.35294118 0.9638009 11 3 C11.75 5.625 11.75 5.625 12 8 C1.52435211 16.75832856 -15.28248249 14.3178157 -28 14 C-28 13.67 -28 13.34 -28 13 C-26.71867187 12.96261719 -25.43734375 12.92523438 -24.1171875 12.88671875 C-13.71382778 12.51484626 -4.11920204 11.55795409 6 9 C6.33 9 6.66 9 7 9 C7.33 7.02 7.66 5.04 8 3 C6.865625 2.87625 5.73125 2.7525 4.5625 2.625 C3.386875 2.41875 2.21125 2.2125 1 2 C0.67 1.34 0.34 0.68 0 0 Z " fill="#A3C0D8" transform="translate(136,226)"/>
<path d="M0 0 C0.33 0.66 0.66 1.32 1 2 C1.99 2 2.98 2 4 2 C4.33 1.34 4.66 0.68 5 0 C5.99 0.99 6.98 1.98 8 3 C7.67 3.66 7.34 4.32 7 5 C6.34 4.67 5.68 4.34 5 4 C5.33 4.66 5.66 5.32 6 6 C6.35109598 11.35421369 6.43200615 14.60703213 3 19 C2.67 19 2.34 19 2 19 C1.855625 18.071875 1.71125 17.14375 1.5625 16.1875 C1.07899889 12.99274889 1.07899889 12.99274889 0 10 C0.33 9.01 0.66 8.02 1 7 C0.01 6.67 -0.98 6.34 -2 6 C-1.34 4.02 -0.68 2.04 0 0 Z " fill="#3871A7" transform="translate(130,183)"/>
<path d="M0 0 C0 3 0 3 -0.98046875 4.9140625 C-2.73039408 8.49436949 -2.43362219 12.10417564 -2 16 C-0.07936852 21.35755096 2.91674432 24.45837216 8 27 C9.53668865 27.22467831 11.07968054 27.40796805 12.625 27.5625 C13.44226563 27.64628906 14.25953125 27.73007813 15.1015625 27.81640625 C16.04128906 27.90728516 16.04128906 27.90728516 17 28 C17 28.33 17 28.66 17 29 C13.37 29.33 9.74 29.66 6 30 C6 29.34 6 28.68 6 28 C5.2575 28.12375 4.515 28.2475 3.75 28.375 C1 28 1 28 -1.1875 25.3125 C-4.00206345 20.16864266 -5.25498879 16.60199008 -5.125 10.6875 C-5.10695313 9.61886719 -5.08890625 8.55023438 -5.0703125 7.44921875 C-5.04710938 6.64097656 -5.02390625 5.83273438 -5 5 C-4.34 5 -3.68 5 -3 5 C-3 4.01 -3 3.02 -3 2 C-2.01 1.34 -1.02 0.68 0 0 Z " fill="#3D6976" transform="translate(106,91)"/>
<path d="M0 0 C0.99 0.33 1.98 0.66 3 1 C3.99 1.66 4.98 2.32 6 3 C3.23371889 4.19922024 0.462845 5.38460499 -2.3125 6.5625 C-3.49102539 7.07586914 -3.49102539 7.07586914 -4.69335938 7.59960938 C-5.45068359 7.91865234 -6.20800781 8.23769531 -6.98828125 8.56640625 C-7.68477783 8.86490479 -8.38127441 9.16340332 -9.09887695 9.47094727 C-11 10 -11 10 -14 9 C-12.63016497 5.83884224 -12.0109362 5.0072908 -9 3 C-7.68 3 -6.36 3 -5 3 C-5.33 2.01 -5.66 1.02 -6 0 C-2.25 -1.125 -2.25 -1.125 0 0 Z " fill="#4C80B0" transform="translate(172,113)"/>
<path d="M0 0 C0.66 0 1.32 0 2 0 C3.20807505 2.41615011 4.41576639 4.83247732 5.62109375 7.25 C6.479826 8.96259916 7.34575748 10.67163114 8.22265625 12.375 C11 17.79032258 11 17.79032258 11 20 C12.65 19.67 14.3 19.34 16 19 C15.79375 19.886875 15.5875 20.77375 15.375 21.6875 C14.96802662 25.28243153 15.59912863 26.76048495 17 30 C16.67 30.99 16.34 31.98 16 33 C15.5153125 32.01902344 15.030625 31.03804687 14.53125 30.02734375 C10.63531978 22.17473188 6.66822045 14.37870421 2.43945312 6.69897461 C0 2.21335041 0 2.21335041 0 0 Z " fill="#D6D068" transform="translate(97,161)"/>
<path d="M0 0 C1 1 2 2 3 3 C3.66 3 4.32 3 5 3 C5.66 4.98 6.32 6.96 7 9 C8.98 9 10.96 9 13 9 C14.0625 10.75 14.0625 10.75 15 13 C14.67 14.32 14.34 15.64 14 17 C11.03 17 8.06 17 5 17 C9 15 9 15 13 15 C13 14.34 13 13.68 13 13 C11.9171875 13.12375 11.9171875 13.12375 10.8125 13.25 C7.02990343 12.91376919 5.70117086 11.63191007 3 9 C0.625 5.9375 0.625 5.9375 -1 3 C-0.67 2.01 -0.34 1.02 0 0 Z " fill="#2C649B" transform="translate(97,113)"/>
<path d="M0 0 C2.12038635 2.61514317 4.13091744 5.19637616 6 8 C13.04207705 7.2812193 13.04207705 7.2812193 20 6 C20 6.66 20 7.32 20 8 C17.62524166 8.48039005 15.25020845 8.95934474 12.875 9.4375 C12.20984375 9.57220703 11.5446875 9.70691406 10.859375 9.84570312 C4.08004414 11.2082157 -2.10087017 12.11895051 -9 12 C-9 11.34 -9 10.68 -9 10 C-5.18243176 8.62567543 -1.92744671 9.32024961 2 10 C1.505 8.63875 1.505 8.63875 1 7.25 C0 4 0 4 0 0 Z " fill="#D6D9A5" transform="translate(90,120)"/>
<path d="M0 0 C0 0.66 0 1.32 0 2 C-1.11375 2.6496875 -1.11375 2.6496875 -2.25 3.3125 C-6.27765198 5.78401371 -8.4105151 9.11577265 -11 13 C-11.825 13.680625 -12.65 14.36125 -13.5 15.0625 C-16.90243602 19.06036232 -17.33605112 22.89651231 -18 28 C-18.33 28 -18.66 28 -19 28 C-19.48742932 19.87617802 -18.00297701 15.2646813 -12.75 8.9375 C-4.67022553 0 -4.67022553 0 0 0 Z " fill="#81A5C5" transform="translate(38,103)"/>
<path d="M0 0 C2.475 0.99 2.475 0.99 5 2 C5 3.98 5 5.96 5 8 C2.69 8.33 0.38 8.66 -2 9 C-2.66 7.35 -3.32 5.7 -4 4 C-2.68 2.68 -1.36 1.36 0 0 Z " fill="#6992B5" transform="translate(180,48)"/>
<path d="M0 0 C3 2 3 2 3.8125 5.5 C3.874375 6.655 3.93625 7.81 4 9 C3.34 9.66 2.68 10.32 2 11 C1.690625 9.865625 1.38125 8.73125 1.0625 7.5625 C0.37075469 4.21224901 0.37075469 4.21224901 -1 3 C-4.06481021 2.8386942 -6.05549278 3.01849759 -9 4 C-9 6.31 -9 8.62 -9 11 C-9.66 10.67 -10.32 10.34 -11 10 C-11.49046322 4.60490463 -11.49046322 4.60490463 -9.125 1.6875 C-5.6414864 -1.07881962 -4.26476559 -1.1442054 0 0 Z " fill="#8CADC8" transform="translate(171,39)"/>
<path d="M0 0 C2.85984547 2.51632049 4.41468822 5.33885553 6.1875 8.6875 C6.71730469 9.68136719 7.24710937 10.67523438 7.79296875 11.69921875 C8.19128906 12.45847656 8.58960937 13.21773437 9 14 C9.33 13.01 9.66 12.02 10 11 C10.66 11 11.32 11 12 11 C10.74194623 15.50802601 9.09592835 18.4912812 6 22 C5.67 18.7 5.34 15.4 5 12 C4.34 12 3.68 12 3 12 C1.82923301 8.01939223 0.74250597 4.08378283 0 0 Z " fill="#E4DF94" transform="translate(118,174)"/>
<path d="M0 0 C-3.55960564 1.01050337 -7.12310522 2.00653404 -10.6875 3 C-11.69490234 3.28617188 -12.70230469 3.57234375 -13.74023438 3.8671875 C-14.71669922 4.13789063 -15.69316406 4.40859375 -16.69921875 4.6875 C-17.59471436 4.93886719 -18.49020996 5.19023437 -19.4128418 5.44921875 C-22.02189378 6.00466098 -24.34127842 6.1005663 -27 6 C-27 5.01 -27 4.02 -27 3 C-7.20567387 -1.93306874 -7.20567387 -1.93306874 0 0 Z " fill="#87AAC9" transform="translate(134,132)"/>
<path d="M0 0 C2.475 0.495 2.475 0.495 5 1 C1.94772947 4.05227053 -1.83341231 4.84346654 -5.875 6.1875 C-6.69097656 6.47302734 -7.50695312 6.75855469 -8.34765625 7.05273438 C-9.13785156 7.31763672 -9.92804688 7.58253906 -10.7421875 7.85546875 C-11.4626123 8.09934326 -12.18303711 8.34321777 -12.92529297 8.59448242 C-15.27824316 9.05438478 -16.74376667 8.74371194 -19 8 C-18.34 8 -17.68 8 -17 8 C-17 7.34 -17 6.68 -17 6 C-15.02 5.67 -13.04 5.34 -11 5 C-11 4.34 -11 3.68 -11 3 C-5.555 2.505 -5.555 2.505 0 2 C0 1.34 0 0.68 0 0 Z " fill="#4273A0" transform="translate(153,122)"/>
<path d="M0 0 C0 1.32 0 2.64 0 4 C-1.98 4 -3.96 4 -6 4 C-6 4.66 -6 5.32 -6 6 C-7.32 6 -8.64 6 -10 6 C-10.33 6.99 -10.66 7.98 -11 9 C-11.66 9 -12.32 9 -13 9 C-13.625 7.1875 -13.625 7.1875 -14 5 C-10.58522132 -0.12216802 -5.84766819 -0.27846039 0 0 Z " fill="#1B5FA2" transform="translate(121,78)"/>
<path d="M0 0 C0.66 0.33 1.32 0.66 2 1 C-1.14378706 5.52705337 -4.16008937 7.58004469 -9 10 C-9.66 10 -10.32 10 -11 10 C-11.04125 10.598125 -11.0825 11.19625 -11.125 11.8125 C-12 14 -12 14 -15.0625 15.75 C-16.031875 16.1625 -17.00125 16.575 -18 17 C-14.75286608 9.44053479 -7.39232505 3.31900308 0 0 Z " fill="#7095B8" transform="translate(92,51)"/>
<path d="M0 0 C6.93932481 -0.50264727 11.37407472 -0.27570321 17 4 C20.86511721 7.96422278 21.23114084 11.03157176 21.25 16.375 C21.1861054 18.25076302 21.10914609 20.12632538 21 22 C19.03266267 18.4342011 19 16.06058324 19 12 C17.48511563 8.10458306 15.4898351 6.32655673 12 4 C12 3.34 12 2.68 12 2 C11.34 2 10.68 2 10 2 C9.67 2.66 9.34 3.32 9 4 C6.03 3.01 3.06 2.02 0 1 C0 0.67 0 0.34 0 0 Z " fill="#E5F0EF" transform="translate(115,86)"/>
<path d="M0 0 C0.33 0.66 0.66 1.32 1 2 C2.32 1.67 3.64 1.34 5 1 C3.42858847 7.16476831 1.56927519 11.57073046 -3 16 C-3.55353075 4.29384966 -3.55353075 4.29384966 0 0 Z " fill="#608BB7" transform="translate(159,140)"/>
<path d="M0 0 C0.33 0.66 0.66 1.32 1 2 C1.66 2 2.32 2 3 2 C3.33 3.65 3.66 5.3 4 7 C4.66 6.67 5.32 6.34 6 6 C5.979375 6.94875 5.95875 7.8975 5.9375 8.875 C5.77448174 11.90666283 5.77448174 11.90666283 7 14 C6.01 14.99 5.02 15.98 4 17 C-1.24193548 7.32258065 -1.24193548 7.32258065 -0.6875 2 C-0.460625 1.34 -0.23375 0.68 0 0 Z " fill="#1F5DA4" transform="translate(25,116)"/>
<path d="M0 0 C3 1.625 3 1.625 6 4 C6.6060391 7.29954622 6.61896635 9.02268471 4.8125 11.875 C2.43963721 13.34781139 0.74086056 13.22223194 -2 13 C-2.33 12.34 -2.66 11.68 -3 11 C-1.68 11 -0.36 11 1 11 C0.67 9.68 0.34 8.36 0 7 C0.66 7 1.32 7 2 7 C2 6.01 2 5.02 2 4 C0.35 3.67 -1.3 3.34 -3 3 C-2.01 2.01 -1.02 1.02 0 0 Z " fill="#769CBF" transform="translate(67,147)"/>
<path d="M0 0 C2.50993714 2.50993714 2.51959955 4.03273663 3.0625 7.5 C3.6285743 11.37920565 3.6285743 11.37920565 5 15 C3.12422643 19.06417607 1.06417607 21.12422643 -3 23 C-3.66 22.67 -4.32 22.34 -5 22 C-4.18144531 21.18273437 -3.36289063 20.36546875 -2.51953125 19.5234375 C0.67825873 15.68608952 0.59594324 12.44789569 0.3125 7.625 C0.28994141 6.88894531 0.26738281 6.15289062 0.24414062 5.39453125 C0.18572927 3.59546158 0.09606337 1.79745247 0 0 Z " fill="#EEF0CE" transform="translate(130,95)"/>
<path d="M0 0 C3.36637397 1.4427317 5.66502571 3.16467407 8 6 C8 7.32 8 8.64 8 10 C7.34 10 6.68 10 6 10 C6 10.66 6 11.32 6 12 C3.525 11.01 3.525 11.01 1 10 C1 8.68 1 7.36 1 6 C0.69169075 3.99598989 0.36270588 1.99488234 0 0 Z " fill="#1D5FA0" transform="translate(98,176)"/>
<path d="M0 0 C1.1446875 -0.04898438 2.289375 -0.09796875 3.46875 -0.1484375 C6.5 0.375 6.5 0.375 8.40625 2.7734375 C9.5 5.375 9.5 5.375 9.5 7.375 C8.84 7.375 8.18 7.375 7.5 7.375 C7.5 6.055 7.5 4.735 7.5 3.375 C3.87 3.375 0.24 3.375 -3.5 3.375 C-3.17 5.025 -2.84 6.675 -2.5 8.375 C-4.20840281 6.74087557 -5.43453047 5.50593906 -6.5 3.375 C-7.49 2.715 -8.48 2.055 -9.5 1.375 C-6.18670139 0.27056713 -3.48785734 0.10212195 0 0 Z " fill="#F3E489" transform="translate(95.5,144.625)"/>
<path d="M0 0 C1.12308596 3.4907721 0.96308527 6.44297672 0.66015625 10.078125 C0.56669922 11.23828125 0.47324219 12.3984375 0.37695312 13.59375 C0.22129883 15.40359375 0.22129883 15.40359375 0.0625 17.25 C-0.08735352 19.08304688 -0.08735352 19.08304688 -0.24023438 20.953125 C-0.48765358 23.96928289 -0.74112939 26.98480694 -1 30 C-1.33 30 -1.66 30 -2 30 C-3.93723129 19.68893024 -3.80716409 9.83517389 0 0 Z " fill="#C7C466" transform="translate(75,84)"/>
<path d="M0 0 C0 1.65 0 3.3 0 5 C-0.66 5 -1.32 5 -2 5 C-2.144375 5.78375 -2.28875 6.5675 -2.4375 7.375 C-3 10 -3 10 -4 12 C-4.66 12 -5.32 12 -6 12 C-6.33 13.32 -6.66 14.64 -7 16 C-8.5 14.75 -8.5 14.75 -10 13 C-10 11.68 -10 10.36 -10 9 C-8.68 9 -7.36 9 -6 9 C-5.5978125 7.6078125 -5.5978125 7.6078125 -5.1875 6.1875 C-2.88235294 0 -2.88235294 0 0 0 Z " fill="#1B60A1" transform="translate(79,71)"/>
<path d="M0 0 C0.99 0 1.98 0 3 0 C3 0.99 3 1.98 3 3 C6.465 2.505 6.465 2.505 10 2 C8.88243734 5.86848614 7.97126708 8.28922757 5 11 C4.16151196 9.54462432 3.32936066 8.08559627 2.5 6.625 C1.80390625 5.40683594 1.80390625 5.40683594 1.09375 4.1640625 C0 2 0 2 0 0 Z " fill="#DED15A" transform="translate(114,194)"/>
<path d="M0 0 C0.78375 0.04125 1.5675 0.0825 2.375 0.125 C3.035 1.445 3.695 2.765 4.375 4.125 C3.715 4.125 3.055 4.125 2.375 4.125 C2.045 5.445 1.715 6.765 1.375 8.125 C0.75625 7.774375 0.1375 7.42375 -0.5 7.0625 C-1.551875 6.5984375 -1.551875 6.5984375 -2.625 6.125 C-3.615 6.62 -3.615 6.62 -4.625 7.125 C-4.75 4.75 -4.75 4.75 -4.625 2.125 C-2.625 0.125 -2.625 0.125 0 0 Z " fill="#1D609F" transform="translate(167.625,40.875)"/>
<path d="M0 0 C3.3 0 6.6 0 10 0 C10.66 1.65 11.32 3.3 12 5 C11.34 5 10.68 5 10 5 C10 4.01 10 3.02 10 2 C7.69 2.33 5.38 2.66 3 3 C3 3.66 3 4.32 3 5 C3.66 5.33 4.32 5.66 5 6 C4.67 6.66 4.34 7.32 4 8 C4.99 8.33 5.98 8.66 7 9 C6.34 10.32 5.68 11.64 5 13 C4.15930585 11.39967863 3.32768495 9.79458829 2.5 8.1875 C1.80390625 6.84751953 1.80390625 6.84751953 1.09375 5.48046875 C0 3 0 3 0 0 Z " fill="#678DA7" transform="translate(79,147)"/>
<path d="M0 0 C0.33 0 0.66 0 1 0 C1.33 2.64 1.66 5.28 2 8 C2.556875 7.690625 3.11375 7.38125 3.6875 7.0625 C6.15443308 5.92904426 8.31173299 5.35371934 11 5 C11.66 5.33 12.32 5.66 13 6 C12.67 6.99 12.34 7.98 12 9 C7.9083139 10.80795432 4.44280672 11.21156222 0 11 C0 7.37 0 3.74 0 0 Z " fill="#84A8C8" transform="translate(176,94)"/>
<path d="M0 0 C0.36923077 7.50769231 0.36923077 7.50769231 -1.5 10 C-1.995 10.33 -2.49 10.66 -3 11 C-3.99 9.68 -4.98 8.36 -6 7 C-6.99 7.495 -6.99 7.495 -8 8 C-8 6.68 -8 5.36 -8 4 C-7.34 4 -6.68 4 -6 4 C-6 3.34 -6 2.68 -6 2 C-1.125 0 -1.125 0 0 0 Z " fill="#1E5E9C" transform="translate(157,146)"/>
<path d="M0 0 C6.84691993 2.15188912 10.34385926 7.17725734 14 13 C13.67 13.66 13.34 14.32 13 15 C10.97642057 13.08292475 9.23177252 11.05148752 7.5 8.875 C5.25656749 5.80308932 5.25656749 5.80308932 2 5 C0.8125 2.4375 0.8125 2.4375 0 0 Z " fill="#6B93B8" transform="translate(130,78)"/>
<path d="M0 0 C0.61875 0.825 1.2375 1.65 1.875 2.5 C2.57625 3.325 3.2775 4.15 4 5 C4.66 5 5.32 5 6 5 C6.34123581 6.99866686 6.6725678 8.99902542 7 11 C7.226875 12.2375 7.45375 13.475 7.6875 14.75 C7.790625 15.8225 7.89375 16.895 8 18 C7.34 18.66 6.68 19.32 6 20 C6.061875 19.21625 6.12375 18.4325 6.1875 17.625 C6.0946875 16.325625 6.0946875 16.325625 6 15 C5.01 14.34 4.02 13.68 3 13 C2.8125 9.875 2.8125 9.875 3 7 C2.34 7 1.68 7 1 7 C0.67 4.69 0.34 2.38 0 0 Z " fill="#256197" transform="translate(65,114)"/>
<path d="M0 0 C-0.56847656 0.4125 -1.13695313 0.825 -1.72265625 1.25 C-7.21634276 5.3588006 -11.63030904 9.73458292 -16 15 C-16.66 15.66 -17.32 16.32 -18 17 C-17.41466252 13.4077919 -16.03046 11.62701771 -13.5625 9 C-11.67327057 6.98061488 -10.15624106 5.31647369 -8.9296875 2.83203125 C-8 1 -8 1 -5.5625 -0.3125 C-3 -1 -3 -1 0 0 Z " fill="#FDF7C1" transform="translate(108,57)"/>
<path d="M0 0 C0.7734375 0.7115625 0.7734375 0.7115625 1.5625 1.4375 C4.67992009 3.43584621 7.35021092 3.60184119 11 4 C11.99 4.33 12.98 4.66 14 5 C14 5.66 14 6.32 14 7 C14.99 7.33 15.98 7.66 17 8 C11.09315256 8.50271042 5.95165884 7.44278426 1 4 C0.2421875 1.859375 0.2421875 1.859375 0 0 Z " fill="#84A6C2" transform="translate(91,231)"/>
<path d="M0 0 C-0.33 0.99 -0.66 1.98 -1 3 C-3.61497339 4.23867161 -6.25511949 5.08503983 -9 6 C-9 6.66 -9 7.32 -9 8 C-10.65 8 -12.3 8 -14 8 C-14 7.34 -14 6.68 -14 6 C-13.01 5.34 -12.02 4.68 -11 4 C-11.66 3.34 -12.32 2.68 -13 2 C-12.06027344 1.90912109 -12.06027344 1.90912109 -11.1015625 1.81640625 C-9.87566406 1.69072266 -9.87566406 1.69072266 -8.625 1.5625 C-7.81289062 1.48128906 -7.00078125 1.40007812 -6.1640625 1.31640625 C-3.85304959 0.97851447 -2.33455672 0 0 0 Z " fill="#1C6197" transform="translate(127,118)"/>
<path d="M0 0 C2.31 0.33 4.62 0.66 7 1 C5.57951168 4.55122081 4.38694292 5.40061029 1 7 C-1.06776444 8.59643578 -3.02160437 10.29138559 -5 12 C-4.731875 11.505 -4.46375 11.01 -4.1875 10.5 C-2.56124507 7.0763054 -1.30484829 3.55867715 0 0 Z " fill="#6F9CC4" transform="translate(36,110)"/>
<path d="M0 0 C1.134375 0.020625 2.26875 0.04125 3.4375 0.0625 C-0.05609465 3.65884744 -3.67348131 6.89701967 -7.5625 10.0625 C-7.8925 9.4025 -8.2225 8.7425 -8.5625 8.0625 C-7.8203125 6.37109375 -7.8203125 6.37109375 -6.6875 4.5 C-6.31882813 3.87996094 -5.95015625 3.25992188 -5.5703125 2.62109375 C-3.71572337 -0.24704991 -3.9018164 0.06845292 0 0 Z " fill="#628EB3" transform="translate(163.5625,126.9375)"/>
<path d="M0 0 C1 3 1 3 -0.43359375 5.91796875 C-1.09488281 6.99691406 -1.75617188 8.07585937 -2.4375 9.1875 C-3.09621094 10.27417969 -3.75492187 11.36085937 -4.43359375 12.48046875 C-5.20896484 13.72763672 -5.20896484 13.72763672 -6 15 C-6.66 14.67 -7.32 14.34 -8 14 C-8 13.34 -8 12.68 -8 12 C-7.34 12 -6.68 12 -6 12 C-5.855625 10.906875 -5.71125 9.81375 -5.5625 8.6875 C-5 5 -5 5 -4 2 C-1.9375 0.8125 -1.9375 0.8125 0 0 Z " fill="#5C8AB3" transform="translate(130,204)"/>
<path d="M0 0 C5.31637797 -0.50632171 7.82517803 0.75291624 12 4 C13.875 5.75 13.875 5.75 15 7 C14.67 7.66 14.34 8.32 14 9 C13.01 8.67 12.02 8.34 11 8 C11 7.34 11 6.68 11 6 C8.69 5.34 6.38 4.68 4 4 C4 3.34 4 2.68 4 2 C2.68 2 1.36 2 0 2 C0 1.34 0 0.68 0 0 Z " fill="#739ABE" transform="translate(204,64)"/>
<path d="M0 0 C1.9375 0.3125 1.9375 0.3125 4 1 C4.33 1.99 4.66 2.98 5 4 C4.01 4.66 3.02 5.32 2 6 C2.33 7.32 2.66 8.64 3 10 C0.11562221 8.70700306 -1.87219421 7.34058637 -4 5 C-2.68 3.35 -1.36 1.7 0 0 Z " fill="#215F97" transform="translate(142,51)"/>
<path d="M0 0 C1.32 0.66 2.64 1.32 4 2 C3.67 3.65 3.34 5.3 3 7 C-6.24 7 -15.48 7 -25 7 C-25 6.67 -25 6.34 -25 6 C-16.09 6 -7.18 6 2 6 C1.34 5.01 0.68 4.02 0 3 C0 2.01 0 1.02 0 0 Z " fill="#BED6E9" transform="translate(68,127)"/>
<path d="M0 0 C6.52238806 5.10447761 6.52238806 5.10447761 8 9 C8.33 9.66 8.66 10.32 9 11 C9.039992 12.99960012 9.04346799 15.00047242 9 17 C5.21785458 12.7976162 0 5.90556785 0 0 Z " fill="#88AAC7" transform="translate(87,164)"/>
<path d="M0 0 C-0.33 0.99 -0.66 1.98 -1 3 C-3.0625 3.6875 -3.0625 3.6875 -5 4 C-5 4.66 -5 5.32 -5 6 C-6.98 6.66 -8.96 7.32 -11 8 C-11 7.01 -11 6.02 -11 5 C-9.68 5 -8.36 5 -7 5 C-7 3.35 -7 1.7 -7 0 C-2.25 -1.125 -2.25 -1.125 0 0 Z " fill="#4376A8" transform="translate(189,107)"/>
<path d="M0 0 C4.33168317 -0.26252625 7.8803623 0.70756464 12 2 C11.01 3.485 11.01 3.485 10 5 C7.03 4.67 4.06 4.34 1 4 C0.67 2.68 0.34 1.36 0 0 Z " fill="#4176AC" transform="translate(36,106)"/>
<path d="M0 0 C2 2.0625 2 2.0625 3 4 C1.35 4 -0.3 4 -2 4 C-2 3.34 -2 2.68 -2 2 C-2.99 2 -3.98 2 -5 2 C-5.33 2.66 -5.66 3.32 -6 4 C-6.33 3.01 -6.66 2.02 -7 1 C-7.5775 1.350625 -8.155 1.70125 -8.75 2.0625 C-11.35801776 3.14917407 -12.39417629 2.93065133 -15 2 C-9.43501135 -0.89843159 -6.15120767 -1.53780192 0 0 Z " fill="#477FAF" transform="translate(109,48)"/>
<path d="M0 0 C0.99 0.33 1.98 0.66 3 1 C3.12375 1.804375 3.2475 2.60875 3.375 3.4375 C3.684375 4.7059375 3.684375 4.7059375 4 6 C4.66 6.33 5.32 6.66 6 7 C6 7.99 6 8.98 6 10 C4.68 10 3.36 10 2 10 C1.67 9.01 1.34 8.02 1 7 C0.01 6.67 -0.98 6.34 -2 6 C-1.34 4.02 -0.68 2.04 0 0 Z " fill="#1E6098" transform="translate(128,78)"/>
<path d="M0 0 C1.8125 0.1875 1.8125 0.1875 4 1 C5.5625 3.375 5.5625 3.375 7 6 C7.86625 6.7734375 7.86625 6.7734375 8.75 7.5625 C9.36875 8.2740625 9.36875 8.2740625 10 9 C9.6875 11.1875 9.6875 11.1875 9 13 C8.01 12.34 7.02 11.68 6 11 C5.855625 10.175 5.71125 9.35 5.5625 8.5 C5.376875 7.675 5.19125 6.85 5 6 C3.68352881 5.30062468 2.34977849 4.63270867 1 4 C0.25 1.875 0.25 1.875 0 0 Z " fill="#7095BB" transform="translate(157,59)"/>
<path d="M0 0 C8.35294118 0.9638009 8.35294118 0.9638009 11 3 C11.75 5.625 11.75 5.625 12 8 C10.68 8.33 9.36 8.66 8 9 C8 7.02 8 5.04 8 3 C6.865625 2.87625 5.73125 2.7525 4.5625 2.625 C3.386875 2.41875 2.21125 2.2125 1 2 C0.67 1.34 0.34 0.68 0 0 Z " fill="#7FA4C0" transform="translate(136,226)"/>
<path d="M0 0 C2 3 2 3 2 5 C1.67 5.33 1.34 5.66 1 6 C1.33 6 1.66 6 2 6 C2.1875 8.375 2.1875 8.375 2 11 C1.01 11.66 0.02 12.32 -1 13 C-1 12.34 -1 11.68 -1 11 C-1.66 11 -2.32 11 -3 11 C-2.25 3.375 -2.25 3.375 0 0 Z " fill="#4178A9" transform="translate(154,137)"/>
<path d="M0 0 C-2.3932786 2.61371215 -4.98397046 4.40088665 -8 6.25 C-9.299375 7.06210938 -9.299375 7.06210938 -10.625 7.890625 C-13 9 -13 9 -16 8 C-15.360625 7.71125 -14.72125 7.4225 -14.0625 7.125 C-11.84793921 6.17176549 -11.84793921 6.17176549 -11 4 C-10.34 4 -9.68 4 -9 4 C-9 3.34 -9 2.68 -9 2 C-5.86501708 0.14223235 -3.62528568 -0.20140476 0 0 Z " fill="#8AAAC8" transform="translate(200,103)"/>
<path d="M0 0 C0 0.99 0 1.98 0 3 C-1.32 3.33 -2.64 3.66 -4 4 C-4 4.66 -4 5.32 -4 6 C-6.98241547 6.77321882 -9.97580475 7.41196203 -13 8 C-9.81692689 4.43495812 -5.03655764 0 0 0 Z " fill="#779BC2" transform="translate(51,95)"/>
<path d="M0 0 C0.66 1.32 1.32 2.64 2 4 C3.32 4 4.64 4 6 4 C6.33 5.32 6.66 6.64 7 8 C8.32 8 9.64 8 11 8 C10.67 8.99 10.34 9.98 10 11 C7.25 10.9375 7.25 10.9375 4 10 C1.44101711 6.98350199 0 4.00866157 0 0 Z " fill="#83A7C7" transform="translate(112,211)"/>
<path d="M0 0 C1 1 2 2 3 3 C3.66 3 4.32 3 5 3 C5.71614583 4.72526042 6.43229167 6.45052083 7.1484375 8.17578125 C8.06806692 10.26533932 8.06806692 10.26533932 10 13 C5.22299579 11.0538131 1.86594658 7.8555998 -0.3125 3.1875 C-0.539375 2.465625 -0.76625 1.74375 -1 1 C-0.67 0.67 -0.34 0.34 0 0 Z " fill="#7FA4C6" transform="translate(97,113)"/>
<path d="M0 0 C0.33 0 0.66 0 1 0 C1.66 4.29 2.32 8.58 3 13 C3.99 13 4.98 13 6 13 C6 13.66 6 14.32 6 15 C6.66 15 7.32 15 8 15 C8.33 16.32 8.66 17.64 9 19 C5.19510255 17.50521886 3.33809165 15.30557786 1 12 C0.03929566 9.11788698 -0.10581883 7.30149956 -0.0625 4.3125 C-0.05347656 3.50425781 -0.04445313 2.69601563 -0.03515625 1.86328125 C-0.02355469 1.24839844 -0.01195313 0.63351563 0 0 Z " fill="#D4CF6D" transform="translate(103,98)"/>
<path d="M0 0 C0 4.31618166 -2.13270348 5.92789659 -5 9 C-5.66 9 -6.32 9 -7 9 C-7 10.32 -7 11.64 -7 13 C-9.5 14.75 -9.5 14.75 -12 16 C-10.15401218 9.43648776 -4.73506693 4.6626653 0 0 Z " fill="#CBCC69" transform="translate(90,64)"/>
<path d="M0 0 C10.68430493 -0.76681614 10.68430493 -0.76681614 13.91015625 1.11328125 C15.25 2.5 15.25 2.5 17 5 C14.0955111 5 12.79782099 4.63854948 10.1875 3.5625 C6.80935383 2.23871629 3.61605683 1.4520071 0 1 C0 0.67 0 0.34 0 0 Z " fill="#7AA1C4" transform="translate(126,55)"/>
<path d="M0 0 C5.70709064 0.46588495 9.15939723 1.93757784 14 5 C14 5.33 14 5.66 14 6 C12.35 6 10.7 6 9 6 C8.67 5.34 8.34 4.68 8 4 C6.02 4 4.04 4 2 4 C1.34 2.68 0.68 1.36 0 0 Z " fill="#6F99BD" transform="translate(137,48)"/>
<path d="M0 0 C1.8141927 0.28094582 3.62635001 0.57506433 5.4375 0.875 C6.95150391 1.11863281 6.95150391 1.11863281 8.49609375 1.3671875 C9.32238281 1.57601562 10.14867187 1.78484375 11 2 C11.33 2.66 11.66 3.32 12 4 C14.01669827 5.13350534 14.01669827 5.13350534 16 6 C9.24616066 6.60302137 5.29662559 5.2964649 0 1 C0 0.67 0 0.34 0 0 Z " fill="#6693BF" transform="translate(32,130)"/>
<path d="M0 0 C1.0625 1.8125 1.0625 1.8125 2 4 C1.67 4.99 1.34 5.98 1 7 C0.85507877 8.40664926 0.75371069 9.8181133 0.68359375 11.23046875 C0.64169922 12.03291016 0.59980469 12.83535156 0.55664062 13.66210938 C0.51732422 14.49548828 0.47800781 15.32886719 0.4375 16.1875 C0.39431641 17.03248047 0.35113281 17.87746094 0.30664062 18.74804688 C0.20068482 20.83184433 0.0998498 22.91590103 0 25 C-0.33 25 -0.66 25 -1 25 C-1.0289337 21.20834926 -1.04677601 17.41672673 -1.0625 13.625 C-1.07087891 12.54476562 -1.07925781 11.46453125 -1.08789062 10.3515625 C-1.09111328 9.3203125 -1.09433594 8.2890625 -1.09765625 7.2265625 C-1.10289307 6.27346191 -1.10812988 5.32036133 -1.11352539 4.33837891 C-1 2 -1 2 0 0 Z " fill="#265E93" transform="translate(65,88)"/>
<path d="M0 0 C0.66 0.33 1.32 0.66 2 1 C2 1.99 2 2.98 2 4 C2.598125 3.649375 3.19625 3.29875 3.8125 2.9375 C6 2 6 2 9 3 C4.05 5.97 4.05 5.97 -1 9 C-0.835 8.071875 -0.67 7.14375 -0.5 6.1875 C0.07748388 3.04378647 0.07748388 3.04378647 0 0 Z " fill="#2F608A" transform="translate(106,83)"/>
<path d="M0 0 C1.65 0.33 3.3 0.66 5 1 C5.33 1.99 5.66 2.98 6 4 C5.34 4 4.68 4 4 4 C4 3.34 4 2.68 4 2 C0.87802522 3.3089572 0.87802522 3.3089572 -1 6 C-2.32 5.67 -3.64 5.34 -5 5 C-5 4.01 -5 3.02 -5 2 C-3.35 2 -1.7 2 0 2 C0 1.34 0 0.68 0 0 Z " fill="#235D96" transform="translate(152,58)"/>
<path d="M0 0 C2.6875 0.3125 2.6875 0.3125 5 1 C4.67 4.3 4.34 7.6 4 11 C3.01 11 2.02 11 1 11 C1.33 10.67 1.66 10.34 2 10 C2.04092937 7.66702567 2.04241723 5.33294775 2 3 C0.35 3 -1.3 3 -3 3 C-1.8125 1.4375 -1.8125 1.4375 0 0 Z " fill="#ACC3D9" transform="translate(54,92)"/>
<path d="M0 0 C1.60517097 0.08733576 3.20921662 0.19552224 4.8125 0.3125 C6.15248047 0.39951172 6.15248047 0.39951172 7.51953125 0.48828125 C10.30604 1.06313581 11.24135754 1.8206856 13 4 C12.34 5.98 11.68 7.96 11 10 C10.4465236 7.92446352 10 6.15634036 10 4 C6.7 3.01 3.4 2.02 0 1 C0 0.67 0 0.34 0 0 Z " fill="#8AB1CF" transform="translate(199,72)"/>
<path d="M0 0 C0.66 0.33 1.32 0.66 2 1 C2 1.99 2 2.98 2 4 C0.68 4 -0.64 4 -2 4 C-2.33 4.99 -2.66 5.98 -3 7 C-5.64 7.33 -8.28 7.66 -11 8 C-7.45960866 5.0843836 -3.8373228 2.49872182 0 0 Z " fill="#8AABCB" transform="translate(198,91)"/>
<path d="M0 0 C2.3129482 2.3129482 2.49580975 3.47904875 3.125 6.625 C3.29257813 7.44226563 3.46015625 8.25953125 3.6328125 9.1015625 C3.81457031 10.04128906 3.81457031 10.04128906 4 11 C2.35 11 0.7 11 -1 11 C-0.835 9.9275 -0.67 8.855 -0.5 7.75 C0.08810915 3.96971248 0.08810915 3.96971248 0 0 Z M-3 11 C-2.34 11 -1.68 11 -1 11 C-1 11.99 -1 12.98 -1 14 C-1.99 14 -2.98 14 -4 14 C-3.67 13.01 -3.34 12.02 -3 11 Z " fill="#79A2C5" transform="translate(173,82)"/>
<path d="M0 0 C0.99 0.33 1.98 0.66 3 1 C-0.08290155 5.22797927 -0.08290155 5.22797927 -2 7 C-4.8125 7.375 -4.8125 7.375 -7 7 C-7 6.34 -7 5.68 -7 5 C-5.1875 3.3125 -5.1875 3.3125 -3 2 C-2.01 2.33 -1.02 2.66 0 3 C0 2.01 0 1.02 0 0 Z " fill="#235F99" transform="translate(211,89)"/>
<path d="M0 0 C0.33 0 0.66 0 1 0 C1.55353075 10.55808656 1.55353075 10.55808656 -2 15 C-3.42944945 12.64561267 -4.08661261 11.51967567 -3.625 8.75 C-3.41875 8.1725 -3.2125 7.595 -3 7 C-2.34 7 -1.68 7 -1 7 C-0.67 4.69 -0.34 2.38 0 0 Z " fill="#779DC1" transform="translate(219,74)"/>
<path d="M0 0 C0.66 0.66 1.32 1.32 2 2 C5.08347826 2.16681109 5.08347826 2.16681109 8 2 C7.67 2.99 7.34 3.98 7 5 C7.66 5.33 8.32 5.66 9 6 C8.67 6.66 8.34 7.32 8 8 C4.67689517 6.83242263 2.16638868 5.85051143 0 3 C0 2.01 0 1.02 0 0 Z " fill="#79A0C4" transform="translate(20,131)"/>
<path d="M0 0 C1.32 0.33 2.64 0.66 4 1 C3.67 1.99 3.34 2.98 3 4 C0.93359375 4.94921875 0.93359375 4.94921875 -1.5625 5.6875 C-2.38878906 5.93886719 -3.21507813 6.19023438 -4.06640625 6.44921875 C-4.70449219 6.63097656 -5.34257813 6.81273438 -6 7 C-4.02 4.69 -2.04 2.38 0 0 Z " fill="#5D88B2" transform="translate(105,79)"/>
<path d="M0 0 C-0.99 0.33 -1.98 0.66 -3 1 C-3 1.66 -3 2.32 -3 3 C-5.64 3.33 -8.28 3.66 -11 4 C-11 3.01 -11 2.02 -11 1 C-7.32589215 -0.17571451 -3.83070817 -0.07366746 0 0 Z " fill="#688EBA" transform="translate(118,134)"/>
<path d="M0 0 C2 3 2 3 1.75 6.375 C1.10626078 9.48640622 0.30944157 12.11922854 -1 15 C-1.99 14.67 -2.98 14.34 -4 14 C-3.525625 13.360625 -3.05125 12.72125 -2.5625 12.0625 C-0.52968613 8.07818481 -0.2789471 4.41505926 0 0 Z " fill="#4474A0" transform="translate(136,99)"/>
<path d="M0 0 C-0.33 0.99 -0.66 1.98 -1 3 C-2.32 3 -3.64 3 -5 3 C-5 3.66 -5 4.32 -5 5 C-7.97 4.505 -7.97 4.505 -11 4 C-9.71264403 1.42528807 -8.71510189 1.29583343 -6.0625 0.3125 C-5.35222656 0.04050781 -4.64195313 -0.23148438 -3.91015625 -0.51171875 C-2 -1 -2 -1 0 0 Z " fill="#245C96" transform="translate(104,49)"/>
<path d="M0 0 C2.52349243 3.12432397 4.27256146 6.38060496 6 10 C6.66 10 7.32 10 8 10 C8 10.66 8 11.32 8 12 C6.25 11.875 6.25 11.875 4 11 C1.54753864 8.00254723 0.088804 6.02124604 -0.25 2.125 C-0.1675 1.42375 -0.085 0.7225 0 0 Z " fill="#416C7A" transform="translate(113,194)"/>
<path d="M0 0 C1.65 0 3.3 0 5 0 C4.34 2.31 3.68 4.62 3 7 C2.01 7 1.02 7 0 7 C0 4.69 0 2.38 0 0 Z " fill="#1E5C9D" transform="translate(65,150)"/>
<path d="M0 0 C1.34661086 2.69322172 1.75528519 5.00224356 2 8 C0.5625 9.875 0.5625 9.875 -1 11 C-2.125 9.375 -2.125 9.375 -3 7 C-1.63157895 1.63157895 -1.63157895 1.63157895 0 0 Z " fill="#6A98C2" transform="translate(30,122)"/>
<path d="M0 0 C3.8665284 3.222107 4.88059018 6.14922412 6 11 C4.125 10.875 4.125 10.875 2 10 C0.40155515 6.40349908 0 3.96602757 0 0 Z " fill="#356680" transform="translate(73,118)"/>
<path d="M0 0 C0 0.66 0 1.32 0 2 C-6.625 5.125 -6.625 5.125 -10 4 C-6.83527002 0.53386716 -4.79371499 0 0 0 Z " fill="#6891B9" transform="translate(163,111)"/>
<path d="M0 0 C0.33 0.66 0.66 1.32 1 2 C1.99 2 2.98 2 4 2 C4 2.66 4 3.32 4 4 C3.34 4 2.68 4 2 4 C1.67 5.32 1.34 6.64 1 8 C0.34 8 -0.32 8 -1 8 C-1.625 5.6875 -1.625 5.6875 -2 3 C-1.34 2.01 -0.68 1.02 0 0 Z " fill="#477AB3" transform="translate(98,86)"/>
<path d="M0 0 C0.66 0.33 1.32 0.66 2 1 C1 3 0 5 -1 7 C-3.48412207 7.82804069 -5.35220307 8 -8 8 C-6.625 6.5 -6.625 6.5 -5 5 C-4.34 5 -3.68 5 -3 5 C-3 4.34 -3 3.68 -3 3 C-2.34 3 -1.68 3 -1 3 C-0.67 2.01 -0.34 1.02 0 0 Z " fill="#82A6C7" transform="translate(208,82)"/>
<path d="M0 0 C0.66 0.33 1.32 0.66 2 1 C0.68 2.65 -0.64 4.3 -2 6 C-1.01 6.99 -0.02 7.98 1 9 C0.67 9.66 0.34 10.32 0 11 C-1.98 8.69 -3.96 6.38 -6 4 C-5.01 4 -4.02 4 -3 4 C-2.67 3.01 -2.34 2.02 -2 1 C-1.34 0.67 -0.68 0.34 0 0 Z " fill="#608FBE" transform="translate(154,60)"/>
<path d="M0 0 C1.98 0.66 3.96 1.32 6 2 C6 3.98 6 5.96 6 8 C2.24623848 6.74874616 1.75926711 5.4347596 0 2 C0 1.34 0 0.68 0 0 Z " fill="#1D5FA3" transform="translate(104,190)"/>
<path d="M0 0 C0.99 0.33 1.98 0.66 3 1 C2.79375 1.721875 2.5875 2.44375 2.375 3.1875 C1.93675713 6.47432151 2.7361135 7.99826957 4 11 C3.67 11.99 3.34 12.98 3 14 C0.55987961 9.65022018 -0.60918594 5.98287932 -1 1 C-0.67 0.67 -0.34 0.34 0 0 Z " fill="#E3D254" transform="translate(110,180)"/>
<path d="M0 0 C6.64615385 2.46153846 6.64615385 2.46153846 8.4375 5.1875 C8.623125 5.785625 8.80875 6.38375 9 7 C5.625 6.3125 5.625 6.3125 2 5 C0.5625 2.375 0.5625 2.375 0 0 Z " fill="#F2E37F" transform="translate(121,88)"/>
<path d="M0 0 C1.03115279 3.26913624 0.9638984 5.86041348 0.5625 9.25 C0.46066406 10.14203125 0.35882813 11.0340625 0.25390625 11.953125 C0.12822266 12.96632813 0.12822266 12.96632813 0 14 C-0.99 13.34 -1.98 12.68 -3 12 C-2.49202991 7.6822542 -1.80317221 3.96697886 0 0 Z " fill="#799EC0" transform="translate(67,78)"/>
<path d="M0 0 C-0.99 1.32 -1.98 2.64 -3 4 C-5.64 3.67 -8.28 3.34 -11 3 C-7.74003139 -0.25996861 -4.40088745 -1.46696248 0 0 Z " fill="#2E639B" transform="translate(208,69)"/>
<path d="M0 0 C-6.435 2.97 -6.435 2.97 -13 6 C-12.67 4.68 -12.34 3.36 -12 2 C-10.68 2 -9.36 2 -8 2 C-8 1.34 -8 0.68 -8 0 C-4.63458162 -1.08174162 -3.70152678 -0.92538169 0 0 Z " fill="#406778" transform="translate(105,57)"/>
<path d="M0 0 C3.465 1.485 3.465 1.485 7 3 C6.01 3.495 6.01 3.495 5 4 C5 5.65 5 7.3 5 9 C0.57142857 3.85714286 0.57142857 3.85714286 0 0 Z " fill="#6C95B8" transform="translate(107,202)"/>
<path d="M0 0 C0.66 0 1.32 0 2 0 C2.6875 2.25 2.6875 2.25 3 5 C1.5625 7.3125 1.5625 7.3125 0 9 C-0.66 8.67 -1.32 8.34 -2 8 C-2 7.34 -2 6.68 -2 6 C-1.34 6 -0.68 6 0 6 C-0.2784375 4.7934375 -0.2784375 4.7934375 -0.5625 3.5625 C-0.706875 2.716875 -0.85125 1.87125 -1 1 C-0.67 0.67 -0.34 0.34 0 0 Z " fill="#1E5F9B" transform="translate(156,136)"/>
<path d="M0 0 C0.66 0 1.32 0 2 0 C2.66 1.32 3.32 2.64 4 4 C3.34 4 2.68 4 2 4 C1.67 4.66 1.34 5.32 1 6 C-1.0625 6.625 -1.0625 6.625 -3 7 C-1.125 2.25 -1.125 2.25 0 0 Z " fill="#2D6DA5" transform="translate(128,200)"/>
<path d="M0 0 C0.66 1.32 1.32 2.64 2 4 C2.66 4 3.32 4 4 4 C4.66 5.98 5.32 7.96 6 10 C5.34 10 4.68 10 4 10 C3.731875 9.38125 3.46375 8.7625 3.1875 8.125 C2.04443152 5.7004767 2.04443152 5.7004767 -1 4 C-0.67 2.68 -0.34 1.36 0 0 Z " fill="#F1D74E" transform="translate(112,166)"/>
<path d="M0 0 C0.66 0 1.32 0 2 0 C3.125 5.75 3.125 5.75 2 8 C2.66 8.33 3.32 8.66 4 9 C3.34 9.66 2.68 10.32 2 11 C1 10 1 10 0.9375 6.9375 C0.958125 5.968125 0.97875 4.99875 1 4 C0.34 3.67 -0.32 3.34 -1 3 C-0.67 2.01 -0.34 1.02 0 0 Z " fill="#4075AA" transform="translate(84,152)"/>
<path d="M0 0 C2.94149514 0.0644123 5.17067353 1.05689118 8 2 C8 2.33 8 2.66 8 3 C2.06 3.495 2.06 3.495 -4 4 C-2.68 2.68 -1.36 1.36 0 0 Z " fill="#D7D374" transform="translate(113,86)"/>
<path d="M0 0 C1 3 1 3 0.00390625 5.26171875 C-0.47175781 6.06222656 -0.94742188 6.86273438 -1.4375 7.6875 C-1.91058594 8.49574219 -2.38367188 9.30398437 -2.87109375 10.13671875 C-3.24363281 10.75160156 -3.61617187 11.36648437 -4 12 C-5.27351308 9.45297384 -4.80191925 8.5717055 -4.0625 5.875 C-3.86785156 5.15054688 -3.67320312 4.42609375 -3.47265625 3.6796875 C-3.31667969 3.12539062 -3.16070312 2.57109375 -3 2 C-2.01 2 -1.02 2 0 2 C0 1.34 0 0.68 0 0 Z " fill="#96B5D1" transform="translate(170,127)"/>
<path d="M0 0 C1.65 0.33 3.3 0.66 5 1 C2.6870518 3.3129482 1.52095125 3.49580975 -1.625 4.125 C-2.44226563 4.29257813 -3.25953125 4.46015625 -4.1015625 4.6328125 C-5.04128906 4.81457031 -5.04128906 4.81457031 -6 5 C-5.34 4.67 -4.68 4.34 -4 4 C-4 3.34 -4 2.68 -4 2 C-2.68 2 -1.36 2 0 2 C0 1.34 0 0.68 0 0 Z " fill="#89AACB" transform="translate(153,122)"/>
<path d="M0 0 C0.33 0.99 0.66 1.98 1 3 C-0.65 4.32 -2.3 5.64 -4 7 C-4 6.34 -4 5.68 -4 5 C-4.66 4.67 -5.32 4.34 -6 4 C-4.02 2.68 -2.04 1.36 0 0 Z " fill="#D9D271" transform="translate(98,59)"/>
<path d="M0 0 C1.65 0 3.3 0 5 0 C3.25 5.75 3.25 5.75 1 8 C0.67 5.36 0.34 2.72 0 0 Z " fill="#719BBF" transform="translate(135,187)"/>
<path d="M0 0 C2.97069541 2.54631035 4.4775751 5.42230149 6 9 C5.67 9.66 5.34 10.32 5 11 C4.15504811 9.92570402 3.32445142 8.84010798 2.5 7.75 C2.0359375 7.14671875 1.571875 6.5434375 1.09375 5.921875 C0 4 0 4 0 0 Z " fill="#FDF2BA" transform="translate(118,174)"/>
<path d="M0 0 C0.66 0 1.32 0 2 0 C2 0.66 2 1.32 2 2 C2.66 2.33 3.32 2.66 4 3 C3.67 3.66 3.34 4.32 3 5 C3.99 5.33 4.98 5.66 6 6 C5.34 7.32 4.68 8.64 4 10 C3.32845067 8.71086513 2.66291141 7.41859796 2 6.125 C1.62875 5.40570313 1.2575 4.68640625 0.875 3.9453125 C0 2 0 2 0 0 Z " fill="#85A6C6" transform="translate(80,150)"/>
<path d="M0 0 C0.598125 0.33 1.19625 0.66 1.8125 1 C4.05386471 2.20787988 4.05386471 2.20787988 7 2 C4.82575883 4.50037734 3.26954202 5.43628586 0 6 C0 4.02 0 2.04 0 0 Z " fill="#6B98C1" transform="translate(48,102)"/>
<path d="M0 0 C-0.33 1.65 -0.66 3.3 -1 5 C-2.98 4.34 -4.96 3.68 -7 3 C-6.67 2.01 -6.34 1.02 -6 0 C-3.42525708 -0.99667468 -2.51072708 -1.25536354 0 0 Z " fill="#3E76AE" transform="translate(79,68)"/>
<path d="M0 0 C1 2 1 2 0.4375 3.9375 C-1.5350252 6.76764485 -3.88495996 7.64563476 -7 9 C-5.44499019 5.18315774 -2.96404505 2.80804268 0 0 Z " fill="#82A7C6" transform="translate(81,59)"/>
<path d="M0 0 C-2.93828597 2.50298434 -5.17902761 3.46930939 -9 4 C-8 1 -8 1 -5.625 -0.25 C-3 -1 -3 -1 0 0 Z " fill="#D8DCBA" transform="translate(108,57)"/>
<path d="M0 0 C0.33 0.99 0.66 1.98 1 3 C-0.9375 5.6875 -0.9375 5.6875 -3 8 C-3.33 6.02 -3.66 4.04 -4 2 C-2.68 1.34 -1.36 0.68 0 0 Z " fill="#729AC4" transform="translate(130,204)"/>
<path d="M0 0 C4.29 0.66 8.58 1.32 13 2 C13 2.33 13 2.66 13 3 C9.37 3.33 5.74 3.66 2 4 C2 3.34 2 2.68 2 2 C1.34 2 0.68 2 0 2 C0 1.34 0 0.68 0 0 Z " fill="#54756B" transform="translate(110,117)"/>
<path d="M0 0 C1.2065625 0.0309375 1.2065625 0.0309375 2.4375 0.0625 C2.1075 0.7225 1.7775 1.3825 1.4375 2.0625 C0.7775 2.0625 0.1175 2.0625 -0.5625 2.0625 C-0.2325 3.7125 0.0975 5.3625 0.4375 7.0625 C-1.8102975 5.01016315 -2.5647242 4.05582739 -3.5625 1.0625 C-2.5625 0.0625 -2.5625 0.0625 0 0 Z " fill="#DCD378" transform="translate(92.5625,145.9375)"/>
<path d="M0 0 C-0.33 0.99 -0.66 1.98 -1 3 C-4.96 3 -8.92 3 -13 3 C-13 2.67 -13 2.34 -13 2 C-12.06027344 1.90912109 -12.06027344 1.90912109 -11.1015625 1.81640625 C-9.87566406 1.69072266 -9.87566406 1.69072266 -8.625 1.5625 C-7.81289062 1.48128906 -7.00078125 1.40007812 -6.1640625 1.31640625 C-3.85304959 0.97851447 -2.33455672 0 0 0 Z " fill="#2F6080" transform="translate(127,118)"/>
<path d="M0 0 C-0.3125 1.9375 -0.3125 1.9375 -1 4 C-1.99 4.33 -2.98 4.66 -4 5 C-4.33 3.68 -4.66 2.36 -5 1 C-3 0 -3 0 0 0 Z " fill="#1C5D9C" transform="translate(174,88)"/>
<path d="M0 0 C0.33 0.66 0.66 1.32 1 2 C0.67 2.66 0.34 3.32 0 4 C0.66 4.33 1.32 4.66 2 5 C1.67 5.66 1.34 6.32 1 7 C-0.32 7 -1.64 7 -3 7 C-1.125 1.125 -1.125 1.125 0 0 Z " fill="#6996BC" transform="translate(71,71)"/>
<path d="M0 0 C2.66666667 1.33333333 5.33333333 2.66666667 8 4 C7.34 5.32 6.68 6.64 6 8 C6 7.34 6 6.68 6 6 C5.34 6 4.68 6 4 6 C2.61061923 4.03852126 1.2739589 2.03833424 0 0 Z " fill="#295F94" transform="translate(151,65)"/>
<path d="M0 0 C0.33 0.66 0.66 1.32 1 2 C0.06553465 4.03144641 -0.93224776 6.03533587 -2 8 C-2.33 8 -2.66 8 -3 8 C-3 5.69 -3 3.38 -3 1 C-2.01 0.67 -1.02 0.34 0 0 Z " fill="#7BA0C2" transform="translate(152,162)"/>
<path d="M0 0 C1.33332095 2.6666419 0.67102033 4.16680303 0 7 C-0.66 7 -1.32 7 -2 7 C-2 7.66 -2 8.32 -2 9 C-2.66 9 -3.32 9 -4 9 C-2.80100302 5.9168649 -1.52299523 2.93720508 0 0 Z " fill="#92B1CB" transform="translate(151,143)"/>
<path d="M0 0 C2.64 0 5.28 0 8 0 C4.55549263 2.29633824 2.06187717 2.54016485 -2 3 C-1.34 2.67 -0.68 2.34 0 2 C0 1.34 0 0.68 0 0 Z " fill="#99B6D3" transform="translate(136,128)"/>
<path d="M0 0 C0.66 0.33 1.32 0.66 2 1 C1.34 2.65 0.68 4.3 0 6 C-1.65 5.67 -3.3 5.34 -5 5 C-3.68 4.67 -2.36 4.34 -1 4 C-0.67 2.68 -0.34 1.36 0 0 Z " fill="#215D95" transform="translate(196,94)"/>
<path d="M0 0 C1.65 0 3.3 0 5 0 C5.66 1.65 6.32 3.3 7 5 C6.34 5.66 5.68 6.32 5 7 C4.54625 6.21625 4.0925 5.4325 3.625 4.625 C2.11571258 1.96301969 2.11571258 1.96301969 0 0 Z " fill="#34699D" transform="translate(129,88)"/>
<path d="" fill="#FFFFFF" transform="translate(0,0)"/>
<path d="" fill="#FFFFFF" transform="translate(0,0)"/>
</svg>
