<?xml version="1.0" encoding="UTF-8"?>
<svg version="1.1" xmlns="http://www.w3.org/2000/svg" width="278" height="302">
<path d="M0 0 C1.29349365 0.00523682 2.5869873 0.01047363 3.91967773 0.01586914 C4.9496714 0.01799156 4.9496714 0.01799156 6.00047302 0.02015686 C8.20144949 0.0257706 10.40232557 0.03832532 12.60327148 0.05102539 C14.09220231 0.05603863 15.58113473 0.06060184 17.07006836 0.06469727 C20.72700223 0.07574446 24.38387707 0.09301826 28.04077148 0.11352539 C28.44017944 1.14413086 28.44017944 1.14413086 28.84765625 2.19555664 C29.37830688 3.54713867 29.37830688 3.54713867 29.91967773 4.92602539 C30.26844971 5.8193457 30.61722168 6.71266602 30.9765625 7.63305664 C32.68467169 11.61433432 34.59003603 14.22696483 38.29077148 16.48852539 C42.11191773 17.35696772 45.28472913 17.25866025 49.04077148 16.11352539 C53.78126617 12.77363141 55.33813834 8.5027877 57.24389648 3.22290039 C58.04077148 1.11352539 58.04077148 1.11352539 59.04077148 0.11352539 C60.88236171 0.01392918 62.72774115 -0.01727871 64.57202148 -0.01928711 C65.6922168 -0.02057617 66.81241211 -0.02186523 67.96655273 -0.02319336 C69.14604492 -0.01932617 70.32553711 -0.01545898 71.54077148 -0.01147461 C73.31000977 -0.01727539 73.31000977 -0.01727539 75.11499023 -0.02319336 C76.7952832 -0.02125977 76.7952832 -0.02125977 78.50952148 -0.01928711 C79.5452832 -0.01815918 80.58104492 -0.01703125 81.64819336 -0.01586914 C84.04077148 0.11352539 84.04077148 0.11352539 85.04077148 1.11352539 C84.00477167 21.14285514 75.20624983 38.34652195 62.04077148 53.11352539 C47.9178286 69.08687312 40.92048599 88.60523218 36.04077148 109.11352539 C35.81260742 110.06227539 35.58444336 111.01102539 35.34936523 111.98852539 C33.78944438 119.66813573 33.9129997 127.28012844 34.11401367 135.08081055 C34.13109375 135.96043457 34.14817383 136.84005859 34.16577148 137.74633789 C34.18897461 138.53927246 34.21217773 139.33220703 34.23608398 140.14916992 C34.04077148 142.11352539 34.04077148 142.11352539 32.04077148 144.11352539 C29.3159142 144.28870286 26.69417786 144.34501672 23.97045898 144.30883789 C23.17423126 144.306008 22.37800354 144.3031781 21.55764771 144.30026245 C19.01020386 144.28905179 16.46310938 144.26394601 13.91577148 144.23852539 C12.19051614 144.22849672 10.46525529 144.21937067 8.73999023 144.21118164 C4.50678235 144.18910961 0.27383618 144.15457406 -3.95922852 144.11352539 C-3.95922852 122.11352539 -3.95922852 100.11352539 -3.95922852 78.11352539 C-4.64702393 78.05583984 -5.33481934 77.9981543 -6.04345703 77.9387207 C-6.94507568 77.8571875 -7.84669434 77.7756543 -8.77563477 77.69165039 C-10.11670288 77.57418457 -10.11670288 77.57418457 -11.48486328 77.4543457 C-15.89169177 76.84734693 -18.09772121 75.14177605 -20.89672852 71.80102539 C-21.95922852 69.11352539 -21.95922852 69.11352539 -21.58422852 66.05102539 C-19.47724868 62.24225415 -16.97051651 60.53907906 -12.95922852 59.11352539 C-11.38514544 58.85697549 -9.80117221 58.65534019 -8.21313477 58.50805664 C-7.41335205 58.43047119 -6.61356934 58.35288574 -5.78955078 58.27294922 C-5.18554443 58.22033936 -4.58153809 58.16772949 -3.95922852 58.11352539 C-3.96144913 57.40164566 -3.96366974 56.68976593 -3.96595764 55.95631409 C-3.98596105 49.26078304 -4.0012029 42.56526028 -4.01104069 35.86970615 C-4.01626834 32.42712191 -4.02336382 28.98456227 -4.03466797 25.54199219 C-4.04757086 21.58797496 -4.05245769 17.63396784 -4.05688477 13.67993164 C-4.06204605 12.43828751 -4.06720734 11.19664337 -4.07252502 9.91737366 C-4.07260056 8.77626633 -4.07267609 7.635159 -4.07275391 6.45947266 C-4.07497452 5.44909439 -4.07719513 4.43871613 -4.07948303 3.39772034 C-3.89672678 -0.07367445 -3.53651983 0.13567212 0 0 Z " fill="#0446A9" transform="translate(163.959228515625,123.886474609375)"/>
<path d="M0 0 C5.0226153 3.65281113 5.97788136 7.14604779 7 13 C7 14.32 7 15.64 7 17 C8.11560303 16.99476318 9.23120605 16.98952637 10.38061523 16.98413086 C14.50479333 16.96608225 18.62896791 16.95456851 22.75317383 16.94506836 C24.54094021 16.94002782 26.32870245 16.93319546 28.11645508 16.92456055 C30.68051168 16.9124827 33.24451397 16.90676906 35.80859375 16.90234375 C36.6127623 16.89718246 37.41693085 16.89202118 38.24546814 16.88670349 C40.16401715 16.88650785 42.08245368 16.93798017 44 17 C45 18 45 18 45.12025452 20.09437561 C45.11803391 21.01592941 45.11581329 21.93748322 45.11352539 22.88696289 C45.11341209 24.44846825 45.11341209 24.44846825 45.11329651 26.04151917 C45.10813522 27.1737944 45.10297394 28.30606964 45.09765625 29.47265625 C45.0962413 30.62543564 45.09482635 31.77821503 45.09336853 32.96592712 C45.08775005 36.66481064 45.07519442 40.36363464 45.0625 44.0625 C45.05748738 46.56315017 45.05292406 49.06380129 45.04882812 51.56445312 C45.03777462 57.70965588 45.02101852 63.85482369 45 70 C44.18015625 70.37511719 43.3603125 70.75023437 42.515625 71.13671875 C41.43796875 71.64847656 40.3603125 72.16023438 39.25 72.6875 C38.18265625 73.18636719 37.1153125 73.68523437 36.015625 74.19921875 C32.77083308 76.13684709 31.04318148 77.83793342 29 81 C28.42240835 85.54853423 28.58712605 87.94717143 30.25 92.1875 C33.19870946 95.20322559 35.29831759 96.13103148 39.171875 97.67578125 C40.26081055 98.11446533 41.34974609 98.55314941 42.47167969 99.00512695 C43.30602539 99.33343506 44.14037109 99.66174316 45 100 C45.02527062 106.39037231 45.04283317 112.78073183 45.05493164 119.17114258 C45.05997308 121.34692873 45.06680607 123.52271147 45.07543945 125.69848633 C45.08751338 128.81853067 45.09323005 131.93853038 45.09765625 135.05859375 C45.10281754 136.03775253 45.10797882 137.01691132 45.11329651 138.02574158 C45.11337204 138.92659988 45.11344757 139.82745819 45.11352539 140.75561523 C45.115746 141.55281479 45.11796661 142.35001434 45.12025452 143.17137146 C45 145 45 145 44 146 C41.3337397 146.08855161 38.69352886 146.11524673 36.02734375 146.09765625 C35.22970108 146.0962413 34.43205841 146.09482635 33.61024475 146.09336853 C31.05262565 146.08775316 28.49509282 146.07519812 25.9375 146.0625 C24.20768355 146.05748698 22.47786574 146.05292373 20.74804688 146.04882812 C16.49866447 146.03777875 12.24934688 146.02050386 8 146 C7.85304687 144.70449219 7.70609375 143.40898437 7.5546875 142.07421875 C6.01283728 129.4937703 3.34761047 117.90039362 -1 106 C-1.25716797 105.29552734 -1.51433594 104.59105469 -1.77929688 103.86523438 C-6.65881397 90.71661196 -12.77865953 80.31877055 -21.8359375 69.66015625 C-31.65131349 57.96141592 -39.79137957 44.59386857 -43.1875 29.5 C-43.42533203 28.49453125 -43.42533203 28.49453125 -43.66796875 27.46875 C-44.13334152 24.00856656 -44 20.49133803 -44 17 C-33.77 17 -23.54 17 -13 17 C-13 14.69 -13 12.38 -13 10 C-12.23046875 7.63671875 -12.23046875 7.63671875 -11.1875 5.6875 C-10.85105469 5.03136719 -10.51460937 4.37523438 -10.16796875 3.69921875 C-7.44876031 -0.25682028 -4.46570485 -0.62519868 0 0 Z " fill="#FD9304" transform="translate(110,107)"/>
<path d="M0 0 C1 1 1 1 1.11352539 4.96899414 C1.1133662 6.74105607 1.10766785 8.5131226 1.09765625 10.28515625 C1.0962413 11.21597519 1.09482635 12.14679413 1.09336853 13.1058197 C1.08775172 16.09141191 1.0751964 19.07693029 1.0625 22.0625 C1.05748716 24.08137913 1.05292388 26.10025943 1.04882812 28.11914062 C1.03777683 33.07945572 1.02050095 38.03971532 1 43 C1.61053223 43.05115967 2.22106445 43.10231934 2.85009766 43.1550293 C3.65495605 43.23148682 4.45981445 43.30794434 5.2890625 43.38671875 C6.08521973 43.45850342 6.88137695 43.53028809 7.70166016 43.60424805 C12.07589974 44.35744991 14.88511982 46.88511982 17.9375 49.9375 C19 52 19 52 19.0625 54.4375 C17.57171392 58.03292526 15.28672291 60.06746335 12 62 C8.37162196 63.32812328 4.88038359 64 1 64 C1.00523682 64.99443115 1.01047363 65.9888623 1.01586914 67.01342773 C1.03392041 70.69033921 1.04543246 74.36724675 1.05493164 78.04418945 C1.05997157 79.63794614 1.0668035 81.23169819 1.07543945 82.82543945 C1.08751999 85.11150253 1.09323155 87.39750467 1.09765625 89.68359375 C1.10281754 90.40026718 1.10797882 91.11694061 1.11329651 91.85533142 C1.11349263 93.57063672 1.06192007 95.28581266 1 97 C0 98 0 98 -3.05102539 98.11352539 C-4.39991271 98.11336634 -5.74880614 98.10767612 -7.09765625 98.09765625 C-8.16094398 98.09553383 -8.16094398 98.09553383 -9.24571228 98.09336853 C-11.51801712 98.08775443 -13.79022475 98.07519963 -16.0625 98.0625 C-17.59960796 98.05748681 -19.13671745 98.05292359 -20.67382812 98.04882812 C-24.44925642 98.03778042 -28.22461171 98.02050641 -32 98 C-32.42410156 97.02417969 -32.84820312 96.04835938 -33.28515625 95.04296875 C-33.87639626 93.75725635 -34.46891226 92.47213019 -35.0625 91.1875 C-35.33771484 90.54490234 -35.61292969 89.90230469 -35.89648438 89.24023438 C-37.57021997 85.6904435 -38.90729636 83.68454355 -42.5546875 82.05078125 C-46.41050201 80.87480154 -48.19674734 80.70527569 -52 82 C-56.86204417 84.9172265 -58.34230484 87.34087977 -60.1796875 92.6953125 C-60.52499512 93.68805176 -60.87030273 94.68079102 -61.22607422 95.70361328 C-61.48146973 96.4614209 -61.73686523 97.21922852 -62 98 C-66.31248609 98.02886537 -70.62494762 98.04675255 -74.9375 98.0625 C-76.16919922 98.07087891 -77.40089844 98.07925781 -78.66992188 98.08789062 C-79.83974609 98.09111328 -81.00957031 98.09433594 -82.21484375 98.09765625 C-83.84087524 98.10551147 -83.84087524 98.10551147 -85.49975586 98.11352539 C-88 98 -88 98 -89 97 C-89.10106278 95.16898019 -89.12963081 93.33380091 -89.125 91.5 C-89.12757812 90.4996875 -89.13015625 89.499375 -89.1328125 88.46875 C-88.12530712 62.15507996 -76.31044964 40.41576763 -57.5 22.625 C-44.16615693 10.9531657 -29.11061517 4.69089597 -12 1 C-11.09765625 0.80277344 -10.1953125 0.60554688 -9.265625 0.40234375 C-6.14839549 -0.15123322 -3.15677856 -0.12141456 0 0 Z " fill="#FC1B1C" transform="translate(154,22)"/>
<path d="M0 0 C20.11542409 1.60559861 37.39940772 8.22523048 53.09375 21.01953125 C53.94453125 21.70660156 54.7953125 22.39367187 55.671875 23.1015625 C69.29810976 34.70058135 79.33197808 50.8116465 84.09375 68.01953125 C84.30644531 68.72464844 84.51914063 69.42976563 84.73828125 70.15625 C87.19760978 78.87890444 87.2694504 88.01976638 87.09375 97.01953125 C84.12015551 98.5063285 81.43075821 98.1306573 78.1171875 98.1171875 C77.08931625 98.11506508 77.08931625 98.11506508 76.04067993 98.11289978 C73.84999239 98.107298 71.6594067 98.09474531 69.46875 98.08203125 C67.98437648 98.07701647 66.50000135 98.07245353 65.015625 98.06835938 C61.37496685 98.05732802 57.73436836 98.04006224 54.09375 98.01953125 C54.03678955 98.70660156 53.9798291 99.39367187 53.92114258 100.1015625 C53.79968872 101.45314453 53.79968872 101.45314453 53.67578125 102.83203125 C53.5981958 103.72535156 53.52061035 104.61867188 53.44067383 105.5390625 C52.88022198 109.54623406 51.48220493 111.96622061 48.28125 114.39453125 C45.14144336 115.29161886 43.20539779 114.99192119 40.09375 114.01953125 C34.69353933 109.51935569 35.47612412 105.6225889 34.09375 98.01953125 C21.88375 98.01953125 9.67375 98.01953125 -2.90625 98.01953125 C-2.90625 88.44953125 -2.90625 78.87953125 -2.90625 69.01953125 C1.05375 67.03953125 5.01375 65.05953125 9.09375 63.01953125 C13.49759772 57.52592595 13.49759772 57.52592595 13.5234375 51.23046875 C12.79303554 47.47221866 11.16518301 45.14703855 8.09375 43.01953125 C6.21881712 42.23475789 4.31557831 41.51550581 2.39453125 40.8515625 C1.40235596 40.50456299 0.41018066 40.15756348 -0.61206055 39.80004883 C-1.36914307 39.54247803 -2.12622559 39.28490723 -2.90625 39.01953125 C-2.93089849 33.62606137 -2.94908531 28.232624 -2.96118164 22.83911133 C-2.96622231 21.0028425 -2.97305477 19.16657771 -2.98168945 17.33032227 C-2.99376672 14.69676724 -2.99948081 12.06326509 -3.00390625 9.4296875 C-3.00906754 8.60364517 -3.01422882 7.77760284 -3.01954651 6.92652893 C-3.01974205 4.95716757 -2.96829152 2.98791511 -2.90625 1.01953125 C-1.90625 0.01953125 -1.90625 0.01953125 0 0 Z " fill="#259201" transform="translate(162.90625,21.98046875)"/>
<path d="M0 0 C1.12775345 0.00212242 1.12775345 0.00212242 2.27828979 0.00428772 C4.6829626 0.0098916 7.08754277 0.02244468 9.4921875 0.03515625 C11.12109241 0.04017075 12.74999877 0.04473375 14.37890625 0.04882812 C18.37503577 0.05986228 22.37109592 0.07712946 26.3671875 0.09765625 C27.67883592 2.72095309 27.49981596 4.7346425 27.4921875 7.66015625 C27.49605469 9.14708984 27.49605469 9.14708984 27.5 10.6640625 C27.3671875 13.09765625 27.3671875 13.09765625 26.3671875 14.09765625 C23.86961946 14.19855655 21.40031108 14.23737391 18.90234375 14.23046875 C18.15383652 14.23142548 17.40532928 14.2323822 16.63414001 14.23336792 C15.04784054 14.23404971 13.46153829 14.23219547 11.87524414 14.22802734 C9.44345841 14.22268649 7.01185801 14.22796845 4.58007812 14.234375 C3.04166626 14.23371407 1.50325451 14.2324326 -0.03515625 14.23046875 C-0.76540512 14.23249298 -1.49565399 14.23451721 -2.24803162 14.23660278 C-7.40289914 14.21261293 -7.40289914 14.21261293 -9.6328125 13.09765625 C-9.6328125 9.13765625 -9.6328125 5.17765625 -9.6328125 1.09765625 C-6.56686656 -0.43531672 -3.36169397 -0.0236583 0 0 Z " fill="#F70302" transform="translate(127.6328125,253.90234375)"/>
<path d="M0 0 C2.21481807 -0.00971092 4.42871033 -0.04072353 6.64331055 -0.07226562 C8.04499772 -0.07879493 9.44669156 -0.08404569 10.84838867 -0.08789062 C12.13028076 -0.09723633 13.41217285 -0.10658203 14.73291016 -0.11621094 C15.74168213 0.00141602 16.7504541 0.11904297 17.78979492 0.24023438 C20.58901076 4.43905813 19.65537585 6.3615055 18.78979492 11.24023438 C17.78979492 12.24023438 17.78979492 12.24023438 14.73876953 12.35375977 C13.38988222 12.35360072 12.04098878 12.34791049 10.69213867 12.33789062 C9.62885094 12.3357682 9.62885094 12.3357682 8.54408264 12.33360291 C6.2717778 12.3279888 3.99957017 12.315434 1.72729492 12.30273438 C0.19018697 12.29772119 -1.34692253 12.29315797 -2.8840332 12.2890625 C-6.6594615 12.2780148 -10.43481679 12.26074079 -14.21020508 12.24023438 C-14.23707787 10.42781386 -14.25654223 8.61528204 -14.27270508 6.80273438 C-14.28430664 5.79339844 -14.2959082 4.7840625 -14.30786133 3.74414062 C-14.06820173 -2.40073135 -4.79459436 0.01276714 0 0 Z " fill="#0087AA" transform="translate(174.210205078125,268.759765625)"/>
<path d="M0 0 C2.96508789 -0.35644531 2.96508789 -0.35644531 6.72265625 -0.328125 C7.38333603 -0.32625183 8.04401581 -0.32437866 8.72471619 -0.32244873 C10.12097217 -0.3157261 11.51720925 -0.30180717 12.91333008 -0.28125 C15.05763114 -0.2500708 17.20119779 -0.24027799 19.34570312 -0.234375 C29.83662324 -0.16337676 29.83662324 -0.16337676 31 1 C31.07226502 2.85287502 31.0838122 4.70833878 31.0625 6.5625 C31.05347656 7.57441406 31.04445312 8.58632813 31.03515625 9.62890625 C31.02355469 10.41136719 31.01195312 11.19382812 31 12 C26.56544671 14.21727665 20.4946684 13.18499503 15.625 13.1875 C14.37976563 13.19974609 13.13453125 13.21199219 11.8515625 13.22460938 C10.6553125 13.22654297 9.4590625 13.22847656 8.2265625 13.23046875 C7.12908691 13.23457764 6.03161133 13.23868652 4.90087891 13.24291992 C2.05532981 13.00463332 0.41092192 12.47512758 -2 11 C-2.25 3.375 -2.25 3.375 0 0 Z " fill="#FE6500" transform="translate(124,269)"/>
<path d="M0 0 C11.22 0 22.44 0 34 0 C34 3.3 34 6.6 34 10 C33 11 33 11 29.85717773 11.11352539 C28.46597303 11.11336633 27.07476239 11.10767506 25.68359375 11.09765625 C24.95253922 11.0962413 24.22148468 11.09482635 23.46827698 11.09336853 C21.12464368 11.08775408 18.78110461 11.07519922 16.4375 11.0625 C14.85221492 11.05748686 13.26692834 11.05292363 11.68164062 11.04882812 C7.7877239 11.03777997 3.89387795 11.02050572 0 11 C0 7.37 0 3.74 0 0 Z " fill="#057D06" transform="translate(162,255)"/>
<path d="M0 0 C0.68429077 -0.00095673 1.36858154 -0.00191345 2.0736084 -0.00289917 C3.52286877 -0.0035808 4.97213218 -0.00172773 6.42138672 0.00244141 C8.64687928 0.00778998 10.87217001 0.0024959 13.09765625 -0.00390625 C14.50260461 -0.00324547 15.90755285 -0.0019643 17.3125 0 C18.59962891 0.00112793 19.88675781 0.00225586 21.21289062 0.00341797 C24.15625 0.1328125 24.15625 0.1328125 25.15625 1.1328125 C25.19705783 3.13239614 25.19879356 5.13326504 25.15625 7.1328125 C24.49625 7.1328125 23.83625 7.1328125 23.15625 7.1328125 C23.15625 5.8128125 23.15625 4.4928125 23.15625 3.1328125 C13.91625 3.1328125 4.67625 3.1328125 -4.84375 3.1328125 C-4.74835938 6.74476563 -4.65296875 10.35671875 -4.5546875 14.078125 C-4.46944247 17.58295356 -4.38786494 21.08784967 -4.30664062 24.59277344 C-4.2483022 27.02548564 -4.18616128 29.45810979 -4.12011719 31.890625 C-4.02575884 35.3904619 -3.94515458 38.89038928 -3.8671875 42.390625 C-3.83499115 43.47522003 -3.8027948 44.55981506 -3.7696228 45.67727661 C-3.66650058 50.89480824 -3.62760495 55.28251616 -5.84375 60.1328125 C-7.72849003 62.01755253 -10.87121402 61.8261325 -13.40625 62.1953125 C-14.60378906 62.37191406 -15.80132812 62.54851562 -17.03515625 62.73046875 C-18.42541016 62.92962891 -18.42541016 62.92962891 -19.84375 63.1328125 C-19.84375 63.7928125 -19.84375 64.4528125 -19.84375 65.1328125 C-21.16375 65.1328125 -22.48375 65.1328125 -23.84375 65.1328125 C-22.84375 62.1328125 -22.84375 62.1328125 -20.34375 60.5078125 C-17.32751643 59.3228636 -15.27969228 58.8519821 -12.125 58.546875 C-11.32126953 58.46646973 -10.51753906 58.38606445 -9.68945312 58.30322266 C-8.77583008 58.21886963 -8.77583008 58.21886963 -7.84375 58.1328125 C-7.84597061 57.42093277 -7.84819122 56.70905304 -7.85047913 55.9756012 C-7.87048253 49.28007015 -7.88572438 42.58454739 -7.89556217 35.88899326 C-7.90078982 32.44640902 -7.90788531 29.00384938 -7.91918945 25.5612793 C-7.93209235 21.60726207 -7.93697918 17.65325494 -7.94140625 13.69921875 C-7.94656754 12.45757462 -7.95172882 11.21593048 -7.95704651 9.93666077 C-7.95715981 8.22499977 -7.95715981 8.22499977 -7.95727539 6.47875977 C-7.959496 5.4683815 -7.96171661 4.45800323 -7.96400452 3.41700745 C-7.71063886 -1.39558984 -4.03935935 0.00353975 0 0 Z " fill="#4E7AB5" transform="translate(167.84375,123.8671875)"/>
<path d="M0 0 C0.33 0 0.66 0 1 0 C1.33 2.97 1.66 5.94 2 9 C1.34 9 0.68 9 0 9 C0.04125 9.763125 0.0825 10.52625 0.125 11.3125 C0 14 0 14 -2 17 C-2 17.99 -2 18.98 -2 20 C-4.5 22.1875 -4.5 22.1875 -7 24 C-7 23.34 -7 22.68 -7 22 C-8.65 22 -10.3 22 -12 22 C-12 22.66 -12 23.32 -12 24 C-12.66 24 -13.32 24 -14 24 C-13.67 30.6 -13.34 37.2 -13 44 C3.335 44.495 3.335 44.495 20 45 C20.495 47.475 20.495 47.475 21 50 C20.67 49.34 20.34 48.68 20 48 C7.79 48 -4.42 48 -17 48 C-17 38.43 -17 28.86 -17 19 C-13.04 17.02 -9.08 15.04 -5 13 C-1.10573732 8.56245146 -1.10573732 8.56245146 -0.25 3.6875 C-0.1675 2.470625 -0.085 1.25375 0 0 Z " fill="#2A8D07" transform="translate(177,72)"/>
<path d="M0 0 C1.65 0 3.3 0 5 0 C4.01 0.33 3.02 0.66 2 1 C2.00523682 1.99443115 2.01047363 2.9888623 2.01586914 4.01342773 C2.03392041 7.69033921 2.04543246 11.36724675 2.05493164 15.04418945 C2.05997157 16.63794614 2.0668035 18.23169819 2.07543945 19.82543945 C2.08751999 22.11150253 2.09323155 24.39750467 2.09765625 26.68359375 C2.10281754 27.40026718 2.10797882 28.11694061 2.11329651 28.85533142 C2.11349263 30.57063672 2.06192007 32.28581266 2 34 C1 35 1 35 -2.05102539 35.11352539 C-3.39991271 35.11336634 -4.74880614 35.10767612 -6.09765625 35.09765625 C-7.16094398 35.09553383 -7.16094398 35.09553383 -8.24571228 35.09336853 C-10.51801712 35.08775443 -12.79022475 35.07519963 -15.0625 35.0625 C-16.59960796 35.05748681 -18.13671745 35.05292359 -19.67382812 35.04882812 C-23.44925642 35.03778042 -27.22461171 35.02050641 -31 35 C-31.42410156 34.02417969 -31.84820312 33.04835937 -32.28515625 32.04296875 C-32.87639626 30.75725635 -33.46891226 29.47213019 -34.0625 28.1875 C-34.33771484 27.54490234 -34.61292969 26.90230469 -34.89648438 26.24023438 C-36.56426758 22.70306779 -37.89619486 20.68968409 -41.53125 19.0625 C-44.91496464 18.02604687 -47.48878617 17.74308192 -51 18 C-49 16 -49 16 -45.9609375 15.8046875 C-44.18589844 15.83949219 -44.18589844 15.83949219 -42.375 15.875 C-40.59222656 15.90207031 -40.59222656 15.90207031 -38.7734375 15.9296875 C-37.85820313 15.95289062 -36.94296875 15.97609375 -36 16 C-35.01 19.63 -34.02 23.26 -33 27 C-32.01 27 -31.02 27 -30 27 C-30 28.65 -30 30.3 -30 32 C-20.1 32 -10.2 32 0 32 C0 21.44 0 10.88 0 0 Z " fill="#E9807F" transform="translate(153,85)"/>
<path d="M0 0 C0.33 1.32 0.66 2.64 1 4 C2.11560303 3.99476318 3.23120605 3.98952637 4.38061523 3.98413086 C8.50479333 3.96608225 12.62896791 3.95456851 16.75317383 3.94506836 C18.54094021 3.94002782 20.32870245 3.93319546 22.11645508 3.92456055 C24.68051168 3.9124827 27.24451397 3.90676906 29.80859375 3.90234375 C30.6127623 3.89718246 31.41693085 3.89202118 32.24546814 3.88670349 C34.16401715 3.88650785 36.08245368 3.93798017 38 4 C39 5 39 5 39.12025452 7.09437561 C39.11803391 8.01592941 39.11581329 8.93748322 39.11352539 9.88696289 C39.11344986 10.92796646 39.11337433 11.96897003 39.11329651 13.04151917 C39.10813522 14.1737944 39.10297394 15.30606964 39.09765625 16.47265625 C39.0962413 17.62543564 39.09482635 18.77821503 39.09336853 19.96592712 C39.08775005 23.66481064 39.07519442 27.36363464 39.0625 31.0625 C39.05748738 33.56315017 39.05292406 36.06380129 39.04882812 38.56445312 C39.03777462 44.70965588 39.02101852 50.85482369 39 57 C37.54618103 57.69699552 36.08677047 58.38233866 34.625 59.0625 C33.81289062 59.44535156 33.00078125 59.82820313 32.1640625 60.22265625 C31.44992188 60.47917969 30.73578125 60.73570312 30 61 C29.34 60.67 28.68 60.34 28 60 C28.33 59.01 28.66 58.02 29 57 C31.64 56.67 34.28 56.34 37 56 C37 39.5 37 23 37 6 C24.79 6 12.58 6 0 6 C0 4.02 0 2.04 0 0 Z " fill="#F1C677" transform="translate(116,120)"/>
<path d="M0 0 C0.33 0 0.66 0 1 0 C2.67458223 14.05452946 2.67458223 14.05452946 2 20 C0 22 0 22 -3.53173828 22.22705078 C-5.04463331 22.22673363 -6.55755088 22.21540633 -8.0703125 22.1953125 C-8.86654022 22.1924826 -9.66276794 22.18965271 -10.48312378 22.18673706 C-13.03056763 22.1755264 -15.57766211 22.15042062 -18.125 22.125 C-19.85025535 22.11497133 -21.57551619 22.10584528 -23.30078125 22.09765625 C-27.53398914 22.07558422 -31.7669353 22.04104867 -36 22 C-36.02701408 19.89590361 -36.04640223 17.79170822 -36.0625 15.6875 C-36.07410156 14.51574219 -36.08570313 13.34398437 -36.09765625 12.13671875 C-36 9 -36 9 -35 6 C-23.45 6 -11.9 6 0 6 C0 4.02 0 2.04 0 0 Z M-34 9 C-34 12.63 -34 16.26 -34 20 C-29.31860746 20.02465288 -24.63725241 20.04283739 -19.95581055 20.05493164 C-18.36205386 20.05997157 -16.76830181 20.0668035 -15.17456055 20.07543945 C-12.88849747 20.08751999 -10.60249533 20.09323155 -8.31640625 20.09765625 C-7.59973282 20.10281754 -6.88305939 20.10797882 -6.14466858 20.11329651 C-4.42936328 20.11349263 -2.71418734 20.06192007 -1 20 C-0.67 19.67 -0.34 19.34 0 19 C0 15.7 0 12.4 0 9 C-11.22 9 -22.44 9 -34 9 Z " fill="#ACD5AF" transform="translate(196,246)"/>
<path d="M0 0 C1.12775345 0.00212242 1.12775345 0.00212242 2.27828979 0.00428772 C4.6829626 0.0098916 7.08754277 0.02244468 9.4921875 0.03515625 C11.12109241 0.04017075 12.74999877 0.04473375 14.37890625 0.04882812 C18.37503577 0.05986228 22.37109592 0.07712946 26.3671875 0.09765625 C27.67883592 2.72095309 27.49981596 4.7346425 27.4921875 7.66015625 C27.49605469 9.14708984 27.49605469 9.14708984 27.5 10.6640625 C27.3671875 13.09765625 27.3671875 13.09765625 26.3671875 14.09765625 C23.86961946 14.19855655 21.40031108 14.23737391 18.90234375 14.23046875 C18.15383652 14.23142548 17.40532928 14.2323822 16.63414001 14.23336792 C15.04784054 14.23404971 13.46153829 14.23219547 11.87524414 14.22802734 C9.44345841 14.22268649 7.01185801 14.22796845 4.58007812 14.234375 C3.04166626 14.23371407 1.50325451 14.2324326 -0.03515625 14.23046875 C-0.76540512 14.23249298 -1.49565399 14.23451721 -2.24803162 14.23660278 C-7.40289914 14.21261293 -7.40289914 14.21261293 -9.6328125 13.09765625 C-9.6328125 9.13765625 -9.6328125 5.17765625 -9.6328125 1.09765625 C-6.56686656 -0.43531672 -3.36169397 -0.0236583 0 0 Z M-7.6328125 2.09765625 C-7.6328125 5.39765625 -7.6328125 8.69765625 -7.6328125 12.09765625 C3.2571875 12.09765625 14.1471875 12.09765625 25.3671875 12.09765625 C25.3671875 8.79765625 25.3671875 5.49765625 25.3671875 2.09765625 C14.4771875 2.09765625 3.5871875 2.09765625 -7.6328125 2.09765625 Z " fill="#E07D7A" transform="translate(127.6328125,253.90234375)"/>
<path d="M0 0 C5.17592341 10.02699808 5.21615262 20.92818264 5 32 C2.02640551 33.48679725 -0.66299179 33.11112605 -3.9765625 33.09765625 C-4.66181 33.0962413 -5.3470575 33.09482635 -6.05307007 33.09336853 C-8.24375761 33.08776675 -10.4343433 33.07521406 -12.625 33.0625 C-14.10937352 33.05748522 -15.59374865 33.05292228 -17.078125 33.04882812 C-20.71878315 33.03779677 -24.35938164 33.02053099 -28 33 C-28 34.98 -28 36.96 -28 39 C-28.33 39 -28.66 39 -29 39 C-29 36.03 -29 33.06 -29 30 C-18.77 30 -8.54 30 2 30 C1.34673689 23.4937599 1.34673689 23.4937599 0.68359375 16.98852539 C0.12660286 11.29428813 -0.09388539 5.72114077 0 0 Z " fill="#7BB367" transform="translate(245,87)"/>
<path d="M0 0 C2.21481807 -0.00971092 4.42871033 -0.04072353 6.64331055 -0.07226562 C8.04499772 -0.07879493 9.44669156 -0.08404569 10.84838867 -0.08789062 C12.13028076 -0.09723633 13.41217285 -0.10658203 14.73291016 -0.11621094 C15.74168213 0.00141602 16.7504541 0.11904297 17.78979492 0.24023438 C20.58901076 4.43905813 19.65537585 6.3615055 18.78979492 11.24023438 C17.78979492 12.24023438 17.78979492 12.24023438 14.73876953 12.35375977 C13.38988222 12.35360072 12.04098878 12.34791049 10.69213867 12.33789062 C9.62885094 12.3357682 9.62885094 12.3357682 8.54408264 12.33360291 C6.2717778 12.3279888 3.99957017 12.315434 1.72729492 12.30273438 C0.19018697 12.29772119 -1.34692253 12.29315797 -2.8840332 12.2890625 C-6.6594615 12.2780148 -10.43481679 12.26074079 -14.21020508 12.24023438 C-14.23707787 10.42781386 -14.25654223 8.61528204 -14.27270508 6.80273438 C-14.28430664 5.79339844 -14.2959082 4.7840625 -14.30786133 3.74414062 C-14.06820173 -2.40073135 -4.79459436 0.01276714 0 0 Z M-11.21020508 2.24023438 C-11.21020508 4.88023437 -11.21020508 7.52023437 -11.21020508 10.24023438 C-1.97020508 10.24023438 7.26979492 10.24023438 16.78979492 10.24023438 C16.78979492 7.60023438 16.78979492 4.96023438 16.78979492 2.24023438 C7.54979492 2.24023438 -1.69020508 2.24023438 -11.21020508 2.24023438 Z " fill="#55A4B5" transform="translate(174.210205078125,268.759765625)"/>
<path d="M0 0 C2.96508789 -0.35644531 2.96508789 -0.35644531 6.72265625 -0.328125 C7.38333603 -0.32625183 8.04401581 -0.32437866 8.72471619 -0.32244873 C10.12097217 -0.3157261 11.51720925 -0.30180717 12.91333008 -0.28125 C15.05763114 -0.2500708 17.20119779 -0.24027799 19.34570312 -0.234375 C29.83662324 -0.16337676 29.83662324 -0.16337676 31 1 C31.07226502 2.85287502 31.0838122 4.70833878 31.0625 6.5625 C31.05347656 7.57441406 31.04445312 8.58632813 31.03515625 9.62890625 C31.02355469 10.41136719 31.01195312 11.19382812 31 12 C26.56544671 14.21727665 20.4946684 13.18499503 15.625 13.1875 C14.37976563 13.19974609 13.13453125 13.21199219 11.8515625 13.22460938 C10.6553125 13.22654297 9.4590625 13.22847656 8.2265625 13.23046875 C7.12908691 13.23457764 6.03161133 13.23868652 4.90087891 13.24291992 C2.05532981 13.00463332 0.41092192 12.47512758 -2 11 C-2.25 3.375 -2.25 3.375 0 0 Z M1 2 C1 4.64 1 7.28 1 10 C10.24 10 19.48 10 29 10 C29 7.36 29 4.72 29 2 C19.76 2 10.52 2 1 2 Z " fill="#F1A067" transform="translate(124,269)"/>
<path d="M0 0 C0.82514784 2.83384108 1.07936233 5.16935251 0.87890625 8.109375 C0.83580322 8.78967773 0.7927002 9.46998047 0.74829102 10.17089844 C0.68697998 11.02200195 0.62566895 11.87310547 0.5625 12.75 C0.376875 15.4725 0.19125 18.195 0 21 C7.26 21 14.52 21 22 21 C22.33 18.69 22.66 16.38 23 14 C23.66 13.34 24.32 12.68 25 12 C25.99 12 26.98 12 28 12 C28 11.34 28 10.68 28 10 C29.32 9.67 30.64 9.34 32 9 C31.401875 9.804375 30.80375 10.60875 30.1875 11.4375 C28.39307163 14.09880581 27.33706151 16.6673858 26.36328125 19.72265625 C26.10458252 20.52582275 25.84588379 21.32898926 25.5793457 22.15649414 C25.38816162 22.76485107 25.19697754 23.37320801 25 24 C20.68751391 24.02886537 16.37505238 24.04675255 12.0625 24.0625 C10.83080078 24.07087891 9.59910156 24.07925781 8.33007812 24.08789062 C7.16025391 24.09111328 5.99042969 24.09433594 4.78515625 24.09765625 C3.15912476 24.10551147 3.15912476 24.10551147 1.50024414 24.11352539 C-1 24 -1 24 -2 23 C-2.94444444 5.88888889 -2.94444444 5.88888889 0 0 Z " fill="#EA8D8D" transform="translate(67,96)"/>
<path d="M0 0 C0.93826619 3.06687009 1.01788333 5.45007796 0.625 8.625 C0.48964844 9.78902344 0.48964844 9.78902344 0.3515625 10.9765625 C0 13 0 13 -1 15 C-10.57 15 -20.14 15 -30 15 C-29.16669676 22.54064652 -29.16669676 22.54064652 -28 30 C-28.99 29.67 -29.98 29.34 -31 29 C-31.73046875 27.21484375 -31.73046875 27.21484375 -32.1875 24.9375 C-32.34605469 24.20402344 -32.50460938 23.47054687 -32.66796875 22.71484375 C-33.10176234 19.16794323 -33 15.573329 -33 12 C-22.77 12 -12.54 12 -2 12 C-2 9.69 -2 7.38 -2 5 C-1 2.0625 -1 2.0625 0 0 Z " fill="#F1C372" transform="translate(99,112)"/>
<path d="M0 0 C0.66 0 1.32 0 2 0 C2.02527062 6.39037231 2.04283317 12.78073183 2.05493164 19.17114258 C2.05997308 21.34692873 2.06680607 23.52271147 2.07543945 25.69848633 C2.08751338 28.81853067 2.09323005 31.93853038 2.09765625 35.05859375 C2.10281754 36.03775253 2.10797882 37.01691132 2.11329651 38.02574158 C2.11337204 38.92659988 2.11344757 39.82745819 2.11352539 40.75561523 C2.115746 41.55281479 2.11796661 42.35001434 2.12025452 43.17137146 C2 45 2 45 1 46 C-1.6662603 46.08855161 -4.30647114 46.11524673 -6.97265625 46.09765625 C-7.77029892 46.0962413 -8.56794159 46.09482635 -9.38975525 46.09336853 C-11.94737435 46.08775316 -14.50490718 46.07519812 -17.0625 46.0625 C-18.79231645 46.05748698 -20.52213426 46.05292373 -22.25195312 46.04882812 C-26.50133553 46.03777875 -30.75065312 46.02050386 -35 46 C-36.33333333 36.66666667 -37.66666667 27.33333333 -39 18 C-37.515 18.99 -37.515 18.99 -36 20 C-35.4479006 22.96421283 -35.07038913 25.75943245 -34.8125 28.75 C-34.73064453 29.54921875 -34.64878906 30.3484375 -34.56445312 31.171875 C-34.14065786 35.50242162 -34 39.6213078 -34 44 C-22.45 44 -10.9 44 1 44 C0.67 29.48 0.34 14.96 0 0 Z " fill="#FBD9A5" transform="translate(153,207)"/>
<path d="M0 0 C0.99 0.33 1.98 0.66 3 1 C2.2884375 1.680625 2.2884375 1.680625 1.5625 2.375 C-1.16534957 5.21196356 -1.11962695 7.18490986 -1.09765625 11.0078125 C-1.09515869 11.8961377 -1.09266113 12.78446289 -1.09008789 13.69970703 C-1.08098389 14.83005371 -1.07187988 15.96040039 -1.0625 17.125 C-1.041875 20.71375 -1.02125 24.3025 -1 28 C10.55 28.33 22.1 28.66 34 29 C33.67 30.32 33.34 31.64 33 33 C33 32.34 33 31.68 33 31 C20.79 31 8.58 31 -4 31 C-4 21.43 -4 11.86 -4 2 C-2.68 1.34 -1.36 0.68 0 0 Z " fill="#9CC88E" transform="translate(164,89)"/>
<path d="M0 0 C0.33 1.32 0.66 2.64 1 4 C0.34 4 -0.32 4 -1 4 C-1.33 6.31 -1.66 8.62 -2 11 C-2.66 11 -3.32 11 -4 11 C-4.0825 11.61875 -4.165 12.2375 -4.25 12.875 C-5 15 -5 15 -7.0625 16.25 C-7.701875 16.4975 -8.34125 16.745 -9 17 C-9.19622241 21.21878192 -8.80230168 24.17010894 -7 28 C-7.99 28.33 -8.98 28.66 -10 29 C-10.33 28.34 -10.66 27.68 -11 27 C-13.83374881 30.20336822 -14.5205537 32.78087253 -15 37 C-16.485 37.495 -16.485 37.495 -18 38 C-17.03700899 24.19712888 -9.22429347 10.06286561 0 0 Z " fill="#ED2323" transform="translate(86,56)"/>
<path d="M0 0 C0.99 0 1.98 0 3 0 C2.67 16.17 2.34 32.34 2 49 C1.34 49 0.68 49 0 49 C0 32.83 0 16.66 0 0 Z " fill="#0B4292" transform="translate(161,202)"/>
<path d="M0 0 C1.0305249 0.00410889 2.0610498 0.00821777 3.12280273 0.01245117 C4.23977539 0.01438477 5.35674805 0.01631836 6.50756836 0.01831055 C8.26423828 0.03667969 8.26423828 0.03667969 10.05639648 0.05541992 C11.23137695 0.05606445 12.40635742 0.05670898 13.61694336 0.05737305 C22.35377508 0.10279852 22.35377508 0.10279852 23.49389648 1.24291992 C23.44311523 3.16870117 23.44311523 3.16870117 23.18139648 5.55541992 C23.06344727 6.72524414 23.06344727 6.72524414 22.94311523 7.91870117 C22.47803369 10.32499263 21.68731093 12.11425824 20.49389648 14.24291992 C20.4100557 9.96703994 20.64661446 6.47933005 21.49389648 2.24291992 C13.57389648 2.24291992 5.65389648 2.24291992 -2.50610352 2.24291992 C-2.50610352 4.22291992 -2.50610352 6.20291992 -2.50610352 8.24291992 C-3.16610352 8.24291992 -3.82610352 8.24291992 -4.50610352 8.24291992 C-4.50610352 9.23291992 -4.50610352 10.22291992 -4.50610352 11.24291992 C-5.16610352 11.24291992 -5.82610352 11.24291992 -6.50610352 11.24291992 C-6.22368711 9.78276701 -5.92983738 8.32482199 -5.63110352 6.86791992 C-5.46868164 6.05581055 -5.30625977 5.24370117 -5.13891602 4.40698242 C-4.21262876 1.23930872 -3.30380078 0.32024177 0 0 Z " fill="#84A0C4" transform="translate(225.506103515625,123.757080078125)"/>
<path d="M0 0 C8.48684611 0.06591725 16.77773506 2.09147427 25 4 C25 4.33 25 4.66 25 5 C16.09294587 5.56585991 9.11200317 3.82240063 0 2 C0 13.88 0 25.76 0 38 C0.99 38.33 1.98 38.66 3 39 C1.68 39 0.36 39 -1 39 C-1.02464849 33.60653012 -1.04283531 28.21309275 -1.05493164 22.81958008 C-1.05997231 20.98331125 -1.06680477 19.14704646 -1.07543945 17.31079102 C-1.08751672 14.67723599 -1.09323081 12.04373384 -1.09765625 9.41015625 C-1.10281754 8.58411392 -1.10797882 7.75807159 -1.11329651 6.90699768 C-1.11349205 4.93763632 -1.06204152 2.96838386 -1 1 C-0.67 0.67 -0.34 0.34 0 0 Z " fill="#A6D896" transform="translate(161,22)"/>
<path d="M0 0 C0.99 0 1.98 0 3 0 C3.2475 0.969375 3.495 1.93875 3.75 2.9375 C4.1625 3.948125 4.575 4.95875 5 6 C6.32303717 6.3721042 7.65737935 6.70630173 9 7 C9.70211894 8.65204456 10.36971413 10.31923769 11 12 C11.99 12.33 12.98 12.66 14 13 C14 13.66 14 14.32 14 15 C14.66 15 15.32 15 16 15 C16.66 16.98 17.32 18.96 18 21 C18.99 21 19.98 21 21 21 C21.12375 22.134375 21.2475 23.26875 21.375 24.4375 C21.58125 25.613125 21.7875 26.78875 22 28 C22.66 28.33 23.32 28.66 24 29 C23.34 29.99 22.68 30.98 22 32 C21.72027344 31.45472656 21.44054687 30.90945312 21.15234375 30.34765625 C17.3227234 23.14402954 12.58316456 17.04610094 7.328125 10.8359375 C6.87074951 10.29364502 6.41337402 9.75135254 5.94213867 9.19262695 C5.03348222 8.11899412 4.11968936 7.04968416 3.20043945 5.98510742 C0 2.21992104 0 2.21992104 0 0 Z " fill="#F3B95F" transform="translate(81,166)"/>
<path d="M0 0 C1 1 1 1 1.11352539 4.96899414 C1.1133662 6.74105607 1.10766785 8.5131226 1.09765625 10.28515625 C1.0962413 11.21597519 1.09482635 12.14679413 1.09336853 13.1058197 C1.08775172 16.09141191 1.0751964 19.07693029 1.0625 22.0625 C1.05748716 24.08137913 1.05292388 26.10025943 1.04882812 28.11914062 C1.03777683 33.07945572 1.02050095 38.03971532 1 43 C1.66 43.33 2.32 43.66 3 44 C2.01 44 1.02 44 0 44 C0 30.14 0 16.28 0 2 C-9.32046939 1.82243598 -9.32046939 1.82243598 -17 5 C-19.67058851 5.14115161 -22.32432238 5.04247107 -25 5 C-21.52758821 3.01822652 -18.08286042 2.21062445 -14.1875 1.375 C-13.00542969 1.11460938 -11.82335937 0.85421875 -10.60546875 0.5859375 C-6.98822199 -0.00191409 -3.65768688 -0.1743941 0 0 Z " fill="#FAC7C6" transform="translate(154,22)"/>
<path d="M0 0 C4.95998472 0.61632946 8.93671966 2.79835629 13.3125 5.0625 C14.05306641 5.43955078 14.79363281 5.81660156 15.55664062 6.20507812 C17.37387522 7.13128157 19.18732404 8.06490629 21 9 C21 9.99 21 10.98 21 12 C18.36 11.67 15.72 11.34 13 11 C12.67 11.66 12.34 12.32 12 13 C10 11 10 11 9 8 C8.01 8.33 7.02 8.66 6 9 C6 7.68 6 6.36 6 5 C5.34 4.67 4.68 4.34 4 4 C4 3.34 4 2.68 4 2 C3.01 2.33 2.02 2.66 1 3 C0.67 2.01 0.34 1.02 0 0 Z " fill="#299108" transform="translate(186,27)"/>
<path d="M0 0 C2.31 0 4.62 0 7 0 C7 0.33 7 0.66 7 1 C5.02 1 3.04 1 1 1 C1 11.89 1 22.78 1 34 C4.36812135 35.68406068 7.55248428 36.93029702 11.09765625 38.12109375 C13.26540211 39.12261904 14.50416895 40.14406148 16 42 C16.1875 44.6875 16.1875 44.6875 16 47 C15.34 46.2575 14.68 45.515 14 44.75 C10.82479426 41.53819246 7.08683153 39.81524279 3 38 C3 37.34 3 36.68 3 36 C2.01 36 1.02 36 0 36 C0 24.12 0 12.24 0 0 Z " fill="#348419" transform="translate(161,24)"/>
<path d="M0 0 C-0.0625 1.8125 -0.0625 1.8125 -1 4 C-4.4960903 5.81278756 -7.03981755 7 -11 7 C-10.938125 7.78375 -10.87625 8.5675 -10.8125 9.375 C-10.874375 10.24125 -10.93625 11.1075 -11 12 C-13.7508303 13.83388686 -14.93591989 14.29963883 -18 15 C-20.00382009 15.65509503 -22.00458132 16.31974363 -24 17 C-20.85855373 12.62553606 -17.36772218 9.8324418 -13 6.8125 C-12.38382813 6.37486328 -11.76765625 5.93722656 -11.1328125 5.48632812 C-3.32631202 0 -3.32631202 0 0 0 Z " fill="#EE6060" transform="translate(117,32)"/>
<path d="M0 0 C0.53109375 0.27714844 1.0621875 0.55429688 1.609375 0.83984375 C2.31578125 1.20207031 3.0221875 1.56429687 3.75 1.9375 C4.79414063 2.47697266 4.79414063 2.47697266 5.859375 3.02734375 C7.96092022 4.06844555 7.96092022 4.06844555 10.203125 4.50390625 C11.09257812 4.74947266 11.09257812 4.74947266 12 5 C13.15410254 7.30820508 13.1210297 8.60784276 13.11352539 11.17431641 C13.11344986 12.03505768 13.11337433 12.89579895 13.11329651 13.78262329 C13.10813522 14.71287323 13.10297394 15.64312317 13.09765625 16.6015625 C13.0962413 17.55316254 13.09482635 18.50476257 13.09336853 19.48519897 C13.08776012 22.53183097 13.07520619 25.57839013 13.0625 28.625 C13.05748608 30.68749894 13.05292299 32.74999903 13.04882812 34.8125 C13.03778796 39.87502817 13.02051767 44.93750173 13 50 C12.67 50 12.34 50 12 50 C12 36.14 12 22.28 12 8 C10.35 7.67 8.7 7.34 7 7 C3.75 5.6875 3.75 5.6875 1 4 C0.328125 1.89453125 0.328125 1.89453125 0 0 Z " fill="#EB9526" transform="translate(141,201)"/>
<path d="M0 0 C2 3 2 3 2 6 C3.65 6.33 5.3 6.66 7 7 C7.33 8.32 7.66 9.64 8 11 C9.32 11 10.64 11 12 11 C11.67 10.01 11.34 9.02 11 8 C12.32 8.33 13.64 8.66 15 9 C14 12 14 12 12.3125 13.25 C9.09852798 14.29236931 7.2177765 14.00555515 4 13 C0.10483777 9.42066174 -0.69947011 6.20918474 -1 1 C-0.67 0.67 -0.34 0.34 0 0 Z " fill="#51A438" transform="translate(199,123)"/>
<path d="M0 0 C4.37821909 -0.0740719 8.75610782 -0.12856375 13.13476562 -0.16479492 C14.62473909 -0.179896 16.11466801 -0.20037858 17.60449219 -0.22631836 C19.7442523 -0.26264584 21.88342566 -0.27971221 24.0234375 -0.29296875 C25.31169434 -0.3086792 26.59995117 -0.32438965 27.92724609 -0.34057617 C28.94125488 -0.22818604 29.95526367 -0.1157959 31 0 C33.78637633 4.1795645 32.79562512 6.14668677 32 11 C31.34 10.67 30.68 10.34 30 10 C30 7.36 30 4.72 30 2 C28.75605469 2.01160156 27.51210937 2.02320313 26.23046875 2.03515625 C17.43355571 2.09171099 8.74583651 2.10059965 0 1 C0 0.67 0 0.34 0 0 Z " fill="#6AB2C4" transform="translate(161,269)"/>
<path d="M0 0 C0.33 1.32 0.66 2.64 1 4 C0.34 4 -0.32 4 -1 4 C-1.33 6.31 -1.66 8.62 -2 11 C-2.66 11 -3.32 11 -4 11 C-4.061875 11.598125 -4.12375 12.19625 -4.1875 12.8125 C-5.3236757 15.87143458 -7.17330142 16.55041099 -10 18 C-10.33 17.34 -10.66 16.68 -11 16 C-8.17999022 10.10554346 -4.34162359 4.85240284 0 0 Z " fill="#EE6465" transform="translate(86,56)"/>
<path d="M0 0 C5.30643041 -0.50537432 7.86680312 0.69344249 12 4 C13.9375 5.9375 13.9375 5.9375 15 8 C14.875 10.625 14.875 10.625 14 13 C13.01 13.66 12.02 14.32 11 15 C11 11.7 11 8.4 11 5 C9.68 5 8.36 5 7 5 C7 4.34 7 3.68 7 3 C6.401875 2.87625 5.80375 2.7525 5.1875 2.625 C3 2 3 2 0 0 Z " fill="#E96E6E" transform="translate(158,66)"/>
<path d="M0 0 C1.485 0.99 1.485 0.99 3 2 C3.5520994 4.96421283 3.92961087 7.75943245 4.1875 10.75 C4.26935547 11.54921875 4.35121094 12.3484375 4.43554688 13.171875 C4.85547053 17.46285952 5.09050184 21.68375861 5 26 C7.31 26 9.62 26 12 26 C8.77208445 28.1519437 7.71599191 28.20086443 4 28 C2.66666667 18.66666667 1.33333333 9.33333333 0 0 Z " fill="#FBD89E" transform="translate(114,225)"/>
<path d="M0 0 C1.77503906 0.03480469 1.77503906 0.03480469 3.5859375 0.0703125 C5.36871094 0.09738281 5.36871094 0.09738281 7.1875 0.125 C8.10273437 0.14820312 9.01796875 0.17140625 9.9609375 0.1953125 C10.6597068 1.96172933 11.34460333 3.73363914 12.0234375 5.5078125 C12.40628906 6.49394531 12.78914063 7.48007813 13.18359375 8.49609375 C13.9609375 11.1953125 13.9609375 11.1953125 12.9609375 14.1953125 C12.68121094 13.58042969 12.40148437 12.96554688 12.11328125 12.33203125 C9.41233857 6.70400691 9.41233857 6.70400691 4.5234375 3.1328125 C1.14110632 2.24272535 -1.56398828 1.94103878 -5.0390625 2.1953125 C-3.0390625 0.1953125 -3.0390625 0.1953125 0 0 Z " fill="#F38685" transform="translate(107.0390625,100.8046875)"/>
<path d="M0 0 C0.66 0 1.32 0 2 0 C0.53967505 5.31027254 -1.98320986 9.46330032 -5 14 C-6.58158962 10.99112219 -7.43945339 8.36327963 -8 5 C-7.01 4.67 -6.02 4.34 -5 4 C-5 5.32 -5 6.64 -5 8 C-4.34 8 -3.68 8 -3 8 C-2.67 6.02 -2.34 4.04 -2 2 C-1.34 2 -0.68 2 0 2 C0 1.34 0 0.68 0 0 Z " fill="#265CAA" transform="translate(239,153)"/>
<path d="M0 0 C0.33 0 0.66 0 1 0 C1.33 2.97 1.66 5.94 2 9 C1.34 9 0.68 9 0 9 C0 10.65 0 12.3 0 14 C-5.41538462 17.07692308 -5.41538462 17.07692308 -8.375 16.6875 C-8.91125 16.460625 -9.4475 16.23375 -10 16 C-9.071875 15.4225 -8.14375 14.845 -7.1875 14.25 C-2.57541238 11.02587466 -2.57541238 11.02587466 -0.6015625 5.96875 C-0.34322627 3.98584485 -0.16606294 1.99275526 0 0 Z " fill="#77BA63" transform="translate(177,72)"/>
<path d="M0 0 C0.66 0.33 1.32 0.66 2 1 C1.360625 1.763125 0.72125 2.52625 0.0625 3.3125 C-2.14232781 5.88246713 -2.14232781 5.88246713 -3 9 C-3.66 9 -4.32 9 -5 9 C-5 9.99 -5 10.98 -5 12 C-5.99 12 -6.98 12 -8 12 C-7.25 5.25 -7.25 5.25 -5 3 C-4.01 3 -3.02 3 -2 3 C-2 2.34 -2 1.68 -2 1 C-1.34 0.67 -0.68 0.34 0 0 Z " fill="#EF5056" transform="translate(97,105)"/>
<path d="M0 0 C-0.0625 1.8125 -0.0625 1.8125 -1 4 C-4.90579378 6.02800831 -8.65114973 7.34108329 -13 8 C-9.4918251 4.18228025 -5.53544278 0 0 0 Z " fill="#EC787B" transform="translate(117,32)"/>
<path d="M0 0 C-2.40313638 2.51236985 -3.78319518 3.95013095 -7.3828125 4.09765625 C-8.28773438 4.08605469 -9.19265625 4.07445313 -10.125 4.0625 C-11.03507813 4.05347656 -11.94515625 4.04445313 -12.8828125 4.03515625 C-13.58148438 4.02355469 -14.28015625 4.01195313 -15 4 C-15 3.34 -15 2.68 -15 2 C-9.92523206 0.73694665 -5.27203646 -0.27036084 0 0 Z " fill="#E85F5F" transform="translate(169,81)"/>
<path d="M0 0 C0.87840996 3.09720845 0.99435406 4.90645403 0 8 C-0.66 8 -1.32 8 -2 8 C-2.33 11.63 -2.66 15.26 -3 19 C-3.99 19.33 -4.98 19.66 -6 20 C-5.50104522 12.84831485 -2.68436185 6.58708719 0 0 Z " fill="#EF8888" transform="translate(74,74)"/>
<path d="M0 0 C3.3 0 6.6 0 10 0 C10 0.33 10 0.66 10 1 C7.03 1 4.06 1 1 1 C1.53389455 6.03386292 2.10525894 11.01501407 3 16 C2.01 15.67 1.02 15.34 0 15 C0 10.05 0 5.1 0 0 Z " fill="#F1A83F" transform="translate(68,126)"/>
<path d="M0 0 C3.28136272 6.34212963 4.24747046 11.94709197 4 19 C1.46756317 17.12819886 1.00099762 16.00453464 0.3125 12.875 C-0.03505111 8.56536624 -0.08816095 4.31988651 0 0 Z " fill="#7CB966" transform="translate(245,87)"/>
<path d="M0 0 C5.03899375 -0.22904517 7.75134493 0.3135087 11.75 3.3125 C13.44074109 5.59500047 13.22455452 7.23049425 13 10 C12.34 9.2575 11.68 8.515 11 7.75 C7.82479426 4.53819246 4.08683153 2.81524279 0 1 C0 0.67 0 0.34 0 0 Z " fill="#79B862" transform="translate(164,61)"/>
<path d="M0 0 C1.23314794 3.61198652 0.81852045 6.46039358 0.1875 10.1875 C0.01605469 11.25355469 -0.15539062 12.31960937 -0.33203125 13.41796875 C-0.55246094 14.27003906 -0.77289063 15.12210938 -1 16 C-1.66 16.33 -2.32 16.66 -3 17 C-3.3540919 10.48208608 -3.03901852 5.82478551 0 0 Z " fill="#6589C2" transform="translate(199,229)"/>
<path d="M0 0 C0.53109375 0.27714844 1.0621875 0.55429688 1.609375 0.83984375 C2.31578125 1.20207031 3.0221875 1.56429687 3.75 1.9375 C4.79414063 2.47697266 4.79414063 2.47697266 5.859375 3.02734375 C7.90224433 3.95558182 9.81115376 4.53166578 12 5 C12 5.99 12 6.98 12 8 C7.86894386 7.39249174 4.56700675 6.18884505 1 4 C0.328125 1.89453125 0.328125 1.89453125 0 0 Z " fill="#F1BA66" transform="translate(141,201)"/>
<path d="M0 0 C0 0.33 0 0.66 0 1 C-0.78375 1.12375 -1.5675 1.2475 -2.375 1.375 C-5.14057822 1.79117993 -5.14057822 1.79117993 -7 4 C-7.99 4 -8.98 4 -10 4 C-10 4.66 -10 5.32 -10 6 C-11.32 6 -12.64 6 -14 6 C-13 3 -13 3 -10.375 1.3125 C-6.67051902 -0.12813149 -3.93906235 -0.23634374 0 0 Z " fill="#6185BE" transform="translate(158,183)"/>
<path d="M0 0 C0.66 0 1.32 0 2 0 C1.50341703 5.66104589 0.45489316 9.87674471 -2 15 C-2.33 15 -2.66 15 -3 15 C-3 13.35 -3 11.7 -3 10 C-2.34 10 -1.68 10 -1 10 C-1.020625 8.72125 -1.04125 7.4425 -1.0625 6.125 C-1.125 2.25 -1.125 2.25 0 0 Z " fill="#6288C0" transform="translate(244,138)"/>
<path d="M0 0 C3.89985574 4.15984612 4.89169747 7.55084591 6 13 C2.50586395 10.13301658 0.71163126 8.15849852 0.1875 3.6875 C0.125625 2.470625 0.06375 1.25375 0 0 Z " fill="#7AB664" transform="translate(239,73)"/>
<path d="M0 0 C0.66 0.99 1.32 1.98 2 3 C0.88625 2.95875 -0.2275 2.9175 -1.375 2.875 C-5.04366025 2.58878141 -5.04366025 2.58878141 -7 5 C-7.99 5 -8.98 5 -10 5 C-8.24930977 -0.25207069 -5.05825809 -0.53811256 0 0 Z " fill="#F3C47B" transform="translate(110,107)"/>
<path d="M0 0 C1.65 1.32 3.3 2.64 5 4 C2.09399739 5.25664978 0.20395416 6 -3 6 C-3.33 5.01 -3.66 4.02 -4 3 C-2.68 2.67 -1.36 2.34 0 2 C0 1.34 0 0.68 0 0 Z " fill="#245FAF" transform="translate(197,137)"/>
<path d="M0 0 C3.2626876 3.08632611 6.02235218 5.93483504 8 10 C7.67 10.66 7.34 11.32 7 12 C4 10 4 10 3.5 7.9375 C3.335 7.298125 3.17 6.65875 3 6 C2.01 5.67 1.02 5.34 0 5 C0 3.35 0 1.7 0 0 Z " fill="#7BB966" transform="translate(229,57)"/>
<path d="M0 0 C4.49092377 2.37754788 7.52235713 5.3606063 11 9 C10.67 9.66 10.34 10.32 10 11 C6.19220105 8.68220933 3.72032104 7.15744252 2 3 C1.34 2.67 0.68 2.34 0 2 C0 1.34 0 0.68 0 0 Z " fill="#92C586" transform="translate(216,44)"/>
<path d="M0 0 C0.66 0 1.32 0 2 0 C2 3.3 2 6.6 2 10 C0.35 10.33 -1.3 10.66 -3 11 C-2.34 10.34 -1.68 9.68 -1 9 C-0.53993654 6.79749008 -0.53993654 6.79749008 -0.375 4.375 C-0.30023438 3.55773437 -0.22546875 2.74046875 -0.1484375 1.8984375 C-0.09945312 1.27195312 -0.05046875 0.64546875 0 0 Z " fill="#6CAC70" transform="translate(196,256)"/>
<path d="M0 0 C1.32 0.33 2.64 0.66 4 1 C4.625 3.3125 4.625 3.3125 5 6 C4.01 7.485 4.01 7.485 3 9 C2.01 6.03 1.02 3.06 0 0 Z " fill="#F5B658" transform="translate(104,198)"/>
<path d="M0 0 C1.32 0.33 2.64 0.66 4 1 C3 4 3 4 1.3125 5.25 C-1.73227042 6.23749311 -3.91911384 5.7002014 -7 5 C-3.91190305 3.23537317 -2.76687864 3 1 3 C0.67 2.01 0.34 1.02 0 0 Z " fill="#76B45F" transform="translate(210,131)"/>
<path d="M0 0 C5.27790097 -0.50265724 7.86225252 0.74891269 12 4 C12 4.33 12 4.66 12 5 C10.35 5 8.7 5 7 5 C7 4.34 7 3.68 7 3 C6.401875 2.87625 5.80375 2.7525 5.1875 2.625 C3 2 3 2 0 0 Z " fill="#F07879" transform="translate(158,66)"/>
<path d="M0 0 C0.99 0.33 1.98 0.66 3 1 C3 1.66 3 2.32 3 3 C3.66 3.33 4.32 3.66 5 4 C3.68 5.65 2.36 7.3 1 9 C0.67 6.03 0.34 3.06 0 0 Z " fill="#308F12" transform="translate(177,68)"/>
<path d="M0 0 C-3.04117196 2.02744797 -5.48143999 3.06650449 -9 4 C-11.19140625 3.55078125 -11.19140625 3.55078125 -13 3 C-11.5903653 2.29819469 -10.17192359 1.61406042 -8.75 0.9375 C-7.96109375 0.55464844 -7.1721875 0.17179687 -6.359375 -0.22265625 C-3.74006478 -1.08564091 -2.55144824 -0.93045933 0 0 Z " fill="#EF9798" transform="translate(130,28)"/>
<path d="M0 0 C0.66 0 1.32 0 2 0 C1.71682074 1.60568666 1.42312209 3.20952047 1.125 4.8125 C0.96257812 5.70582031 0.80015625 6.59914062 0.6328125 7.51953125 C0 10 0 10 -2 13 C-1.85966889 11.02043559 -1.7125877 9.04134859 -1.5625 7.0625 C-1.48128906 5.96035156 -1.40007812 4.85820312 -1.31640625 3.72265625 C-1 1 -1 1 0 0 Z " fill="#789AC6" transform="translate(202,215)"/>
<path d="M0 0 C4.38889325 0.66498383 7.9811485 2.18757677 12 4 C12 4.33 12 4.66 12 5 C6.25 5.125 6.25 5.125 4 4 C4 3.34 4 2.68 4 2 C3.01 2.33 2.02 2.66 1 3 C0.67 2.01 0.34 1.02 0 0 Z " fill="#8EC27C" transform="translate(186,27)"/>
<path d="M0 0 C0 0.66 0 1.32 0 2 C0.66 2.66 1.32 3.32 2 4 C-1.375 3.6875 -1.375 3.6875 -5 3 C-5.66 2.01 -6.32 1.02 -7 0 C-2.25 -1.125 -2.25 -1.125 0 0 Z " fill="#547EB9" transform="translate(152,197)"/>
<path d="M0 0 C3.59391114 1.33488128 6.75490696 2.96022723 10 5 C9.34 5.66 8.68 6.32 8 7 C8 6.34 8 5.68 8 5 C6.865625 4.731875 5.73125 4.46375 4.5625 4.1875 C3.386875 3.795625 2.21125 3.40375 1 3 C0.67 2.01 0.34 1.02 0 0 Z " fill="#85BF70" transform="translate(198,32)"/>
<path d="M0 0 C1.8871875 0.0309375 1.8871875 0.0309375 3.8125 0.0625 C3.8125 0.3925 3.8125 0.7225 3.8125 1.0625 C-1.43135089 2.8104503 -5.66072267 3.25642201 -11.1875 3.0625 C-7.38236939 1.09432899 -4.31111928 -0.07067409 0 0 Z " fill="#F2979B" transform="translate(140.1875,23.9375)"/>
<path d="M0 0 C2.64 0 5.28 0 8 0 C5.3144406 2.6855594 2.62378672 3.06049974 -1 4 C-0.67 2.68 -0.34 1.36 0 0 Z " fill="#F6C476" transform="translate(145,177)"/>
<path d="M0 0 C0.66 0 1.32 0 2 0 C0.90931332 3.77545388 0.0916909 6.47043472 -3 9 C-2.67 6.69 -2.34 4.38 -2 2 C-1.34 2 -0.68 2 0 2 C0 1.34 0 0.68 0 0 Z " fill="#5783BA" transform="translate(239,153)"/>
<path d="M0 0 C0.33 1.32 0.66 2.64 1 4 C0.34 4 -0.32 4 -1 4 C-1 4.66 -1 5.32 -1 6 C-2.32 6.33 -3.64 6.66 -5 7 C-3.70700306 4.11562221 -2.34058637 2.12780579 0 0 Z " fill="#EF878D" transform="translate(92,49)"/>
<path d="M0 0 C1.485 0.99 1.485 0.99 3 2 C3.1875 5.125 3.1875 5.125 3 8 C1.5 6.8125 1.5 6.8125 0 5 C-0.1875 2.3125 -0.1875 2.3125 0 0 Z " fill="#F4BD69" transform="translate(114,225)"/>
<path d="M0 0 C0.99 0 1.98 0 3 0 C4.06775224 1.96466413 5.06553465 3.96855359 6 6 C5.67 6.66 5.34 7.32 5 8 C0 2.25 0 2.25 0 0 Z " fill="#F5C87E" transform="translate(81,166)"/>
<path d="M0 0 C-0.7115625 0.680625 -0.7115625 0.680625 -1.4375 1.375 C-3.09027808 2.93258204 -3.09027808 2.93258204 -4 5 C-4.66 5 -5.32 5 -6 5 C-6 3.35 -6 1.7 -6 0 C-3 -1 -3 -1 0 0 Z " fill="#61A64D" transform="translate(167,90)"/>
<path d="M0 0 C3.36591866 1.44253657 5.51047079 3.33264727 8 6 C2.33846154 4.52307692 2.33846154 4.52307692 0.625 1.875 C0.41875 1.25625 0.2125 0.6375 0 0 Z " fill="#82BC6F" transform="translate(208,38)"/>
</svg>
