<?xml version="1.0" encoding="UTF-8"?>
<svg version="1.1" xmlns="http://www.w3.org/2000/svg" width="288" height="195">
<path d="M0 0 C-0.60283536 6.97566632 -1.94893872 13.48984448 -3.75 20.25 C-4.1531543 21.76799194 -4.1531543 21.76799194 -4.56445312 23.31665039 C-8.64417171 38.36121545 -13.51048287 49.32450307 -25.1875 59.9375 C-25.8460498 60.5444873 -26.50459961 61.15147461 -27.18310547 61.77685547 C-31.73368576 65.93798663 -36.4291068 69.87351376 -41.25 73.71875 C-45.0730774 76.89016648 -48.67748031 80.27825864 -52.28100586 83.6953125 C-55.42692012 86.65126868 -58.6094374 89.18984985 -62.1875 91.625 C-65.26666657 93.98196205 -66.54747021 95.49383435 -67.3125 99.3125 C-67.54829913 101.20751983 -67.77632376 103.10351105 -68 105 C-70.08054377 117.12235198 -73.47298385 128.01483085 -79 139 C-79.52335937 140.05832031 -80.04671875 141.11664063 -80.5859375 142.20703125 C-86.59025115 153.38091251 -95.49124205 162.92679753 -106 170 C-105.9278125 168.99066406 -105.855625 167.98132813 -105.78125 166.94140625 C-105.56670392 163.82220795 -105.42722284 160.70622781 -105.30859375 157.58203125 C-105.14554672 153.67240144 -104.71860671 149.88351743 -104.16015625 146.01171875 C-103.04988613 136.25084953 -103.2257133 128.75364249 -109.05859375 120.51171875 C-115.28996592 112.76886152 -122.99908012 105.09603619 -133.171875 103.6015625 C-138.24222072 103.36175982 -143.13503834 103.84441095 -148.14648438 104.59814453 C-151.78971552 105.11121422 -155.40380396 105.26631234 -159.07714844 105.40600586 C-162.3905831 105.53455003 -165.69251443 105.76613738 -169 106 C-161.75782419 89.81595406 -141.98931993 79.84590354 -126.453125 73.56640625 C-120.09962847 71.26905825 -114.37256951 69.85572095 -107.68579102 69.15136719 C-100.38502011 68.34373769 -95.55381973 67.68623131 -90.375 62 C-88.87545141 60.03071329 -87.41574372 58.03037086 -86 56 C-84.57675411 54.21769024 -83.13918514 52.44672346 -81.6875 50.6875 C-80.59888672 49.33785156 -80.59888672 49.33785156 -79.48828125 47.9609375 C-75.50502766 43.22105332 -71.24861487 38.7427881 -67.01171875 34.23046875 C-64.6789695 31.7424425 -62.40949536 29.2130907 -60.1875 26.625 C-59.12721457 25.41472297 -58.06474215 24.2063581 -57 23 C-56.41476563 22.32453125 -55.82953125 21.6490625 -55.2265625 20.953125 C-43.4644019 8.18277921 -17.38088724 0 0 0 Z M-58 42 C-60.59107284 45.41550511 -60.50288306 48.83325464 -60 53 C-58.21523759 55.97239241 -56.14791945 58.42604027 -53 60 C-46.62313587 60.50374999 -46.62313587 60.50374999 -41 58 C-38.08491258 54.46025099 -37.46780828 51.38983875 -37.64453125 46.9296875 C-38.36082977 43.04120981 -40.75161664 40.87386835 -43.875 38.6875 C-49.76160785 36.78300923 -53.30477332 38.15845089 -58 42 Z " fill="#333333" transform="translate(241,6)"/>
<path d="M0 0 C-0.04152572 9.57167923 -3.79014797 16.18522195 -9 24 C-9.66 24 -10.32 24 -11 24 C-11 24.66 -11 25.32 -11 26 C-12.96777984 27.54347731 -14.93785591 28.96677338 -17 30.375 C-18.29037041 31.27416763 -19.57938054 32.17528978 -20.8671875 33.078125 C-21.54491211 33.55314453 -22.22263672 34.02816406 -22.92089844 34.51757812 C-26.37656028 36.98150235 -29.74565907 39.55798888 -33.125 42.125 C-51.51326 56 -51.51326 56 -56 56 C-55.38436341 51.94461609 -53.27721531 49.24039142 -50.9375 45.9375 C-50.33240601 45.07922607 -50.33240601 45.07922607 -49.71508789 44.20361328 C-46.50828187 39.66948481 -43.25373621 35.16915531 -39.96875 30.69140625 C-38.62414433 28.85324492 -37.29129064 27.006444 -35.96875 25.15234375 C-27.04738898 12.67959478 -16.90644489 -0.53202099 0 0 Z " fill="#E91C26" transform="translate(109,138)"/>
<path d="M0 0 C2.74417399 1.06355555 4.19059828 2.54231997 6.24609375 4.64453125 C7.37724609 5.79018555 7.37724609 5.79018555 8.53125 6.95898438 C9.69720703 8.16264648 9.69720703 8.16264648 10.88671875 9.390625 C12.07587891 10.60008789 12.07587891 10.60008789 13.2890625 11.83398438 C15.24518921 13.82546278 17.19397594 15.82360221 19.13671875 17.828125 C17.64099382 21.00295877 16.245634 22.85049035 13.51171875 25.078125 C12.88007812 25.59890625 12.2484375 26.1196875 11.59765625 26.65625 C11.11554688 27.04296875 10.6334375 27.4296875 10.13671875 27.828125 C1.25 18.94140625 1.25 18.94140625 -0.33349609 17.35009766 C-1.74824766 15.94257112 -3.18947295 14.56178963 -4.6328125 13.18359375 C-6.61415119 11.09121681 -7.78677594 9.47045621 -8.86328125 6.828125 C-7.79612053 5.62607036 -6.70889788 4.44180167 -5.61328125 3.265625 C-5.01 2.60433594 -4.40671875 1.94304687 -3.78515625 1.26171875 C-1.86328125 -0.171875 -1.86328125 -0.171875 0 0 Z " fill="#2E2E2E" transform="translate(113.86328125,115.171875)"/>
<path d="M0 0 C0.268125 1.093125 0.53625 2.18625 0.8125 3.3125 C1.66536779 6.92204591 1.66536779 6.92204591 3.6875 8.6875 C4.120625 9.120625 4.55375 9.55375 5 10 C4.9375 12.0625 4.9375 12.0625 4 14 C2.67532254 14.6837045 1.34136367 15.34964186 0 16 C-1.26804566 18.0335948 -1.26804566 18.0335948 -2 20 C-2.99 19.67 -3.98 19.34 -5 19 C-4.67 18.34 -4.34 17.68 -4 17 C-5.32 17 -6.64 17 -8 17 C-8 16.34 -8 15.68 -8 15 C-9.32 15.33 -10.64 15.66 -12 16 C-12.33 13.69 -12.66 11.38 -13 9 C-11.35 8.01 -9.7 7.02 -8 6 C-7.67 6.99 -7.34 7.98 -7 9 C-6.34 8.34 -5.68 7.68 -5 7 C-5.66 6.34 -6.32 5.68 -7 5 C-7 4.01 -7 3.02 -7 2 C-4.35261084 0.5393715 -3.10551666 0 0 0 Z " fill="#EC1B23" transform="translate(94,145)"/>
<path d="M0 0 C0 4.17890135 -2.06409465 5.77011174 -4.6875 8.8671875 C-6.26679107 11.43353549 -6.24756844 13.03949408 -6 16 C-5.34 15.67 -4.68 15.34 -4 15 C-2.35 16.32 -0.7 17.64 1 19 C-1.77037731 20.95897908 -4.54138059 22.91707085 -7.3125 24.875 C-8.09818359 25.43058594 -8.88386719 25.98617187 -9.69335938 26.55859375 C-10.8293457 27.36103516 -10.8293457 27.36103516 -11.98828125 28.1796875 C-12.68477783 28.67194824 -13.38127441 29.16420898 -14.09887695 29.67138672 C-18.86181551 33 -18.86181551 33 -22 33 C-21.38436341 28.94461609 -19.27721531 26.24039142 -16.9375 22.9375 C-16.33675659 22.08575195 -16.33675659 22.08575195 -15.72387695 21.21679688 C-14.48983613 19.47256269 -13.2464328 17.73539512 -12 16 C-11.26265625 14.97003906 -10.5253125 13.94007813 -9.765625 12.87890625 C-6.60540115 8.50092696 -3.39638348 4.19861975 0 0 Z M-10 16 C-10.66 16.66 -11.32 17.32 -12 18 C-11.6814823 20.10820797 -11.6814823 20.10820797 -11 22 C-9.62437146 20.71034824 -8.29233607 19.37310707 -7 18 C-7 17.34 -7 16.68 -7 16 C-7.99 16 -8.98 16 -10 16 Z " fill="#E01C24" transform="translate(75,161)"/>
<path d="M0 0 C-1.41836357 5.1576857 -3.67391575 9.79975258 -7 14 C-7.66 14 -8.32 14 -9 14 C-9 14.66 -9 15.32 -9 16 C-10.8125 17.6875 -10.8125 17.6875 -13 19 C-13.99 18.67 -14.98 18.34 -16 18 C-13.48231966 13.34229137 -13.48231966 13.34229137 -11.0625 11.625 C-8.51773618 9.62003457 -7.46062668 7.4703487 -5.94140625 4.65234375 C-4.40413103 1.95413869 -3.22183927 0 0 0 Z " fill="#D8252E" transform="translate(107,148)"/>
<path d="M0 0 C3.77468671 0.56620301 5.47551893 2.12268981 8.109375 4.81640625 C8.86347656 5.58017578 9.61757812 6.34394531 10.39453125 7.13085938 C11.17183594 7.93330078 11.94914062 8.73574219 12.75 9.5625 C13.54277344 10.36880859 14.33554688 11.17511719 15.15234375 12.00585938 C17.10847046 13.99733778 19.05725719 15.99547721 21 18 C20.67 18.99 20.34 19.98 20 21 C18 20 18 20 17 18 C16.34 18 15.68 18 15 18 C13.62437146 16.71034824 12.29233607 15.37310707 11 14 C10.34 13.34 9.68 12.68 9 12 C7 9 7 9 6.1875 7.125 C4.58125276 4.25066284 2.37750763 2.25237565 0 0 Z " fill="#262627" transform="translate(112,115)"/>
<path d="M0 0 C0.33 0.99 0.66 1.98 1 3 C3.01508358 3.73323796 3.01508358 3.73323796 5 4 C4.01 5.485 4.01 5.485 3 7 C2.34 7 1.68 7 1 7 C0.67 6.34 0.34 5.68 0 5 C-1.98 5.99 -1.98 5.99 -4 7 C-4 9.64 -4 12.28 -4 15 C-6.97 14.505 -6.97 14.505 -10 14 C-7.52005088 8.6267769 -4.33932834 4.02937631 0 0 Z " fill="#D6222C" transform="translate(86,147)"/>
<path d="M0 0 C4.43280987 1.89977566 7.23930149 4.32646327 9.25 8.75 C9.4975 9.4925 9.745 10.235 10 11 C7 11 7 11 4.95703125 9.25 C4.24933594 8.5075 3.54164062 7.765 2.8125 7 C2.09707031 6.2575 1.38164063 5.515 0.64453125 4.75 C0.10183594 4.1725 -0.44085938 3.595 -1 3 C-0.67 2.01 -0.34 1.02 0 0 Z " fill="#39393A" transform="translate(112,116)"/>
<path d="M0 0 C0 3.58518478 -0.71425965 4.18618696 -2.9375 6.875 C-5.43183368 10.00326749 -5.43183368 10.00326749 -6.5 13.8125 C-6.665 14.534375 -6.83 15.25625 -7 16 C-10.0625 17.8125 -10.0625 17.8125 -13 19 C-9.77624942 12.08968317 -4.86235296 5.83482355 0 0 Z " fill="#BE2B36" transform="translate(75,161)"/>
<path d="M0 0 C-0.33 3.3 -0.66 6.6 -1 10 C-1.33 10 -1.66 10 -2 10 C-2 7.69 -2 5.38 -2 3 C-5.3 3 -8.6 3 -12 3 C-7.59906688 0.06604459 -5.39587371 0 0 0 Z " fill="#C32833" transform="translate(109,138)"/>
<path d="M0 0 C0.33 0.99 0.66 1.98 1 3 C5.26826873 3 5.93882432 2.62386487 9 0 C6.94433505 4.97687303 3.30420611 6.94540211 -1 10 C-0.67 6.7 -0.34 3.4 0 0 Z " fill="#2A292A" transform="translate(136,166)"/>
<path d="M0 0 C0.5625 1.9375 0.5625 1.9375 1 4 C0.67 4.33 0.34 4.66 0 5 C0.99 5.66 1.98 6.32 3 7 C-1.625 10 -1.625 10 -5 10 C-4.38545304 6.00544473 -2.29353263 3.25533664 0 0 Z " fill="#BD232B" transform="translate(58,184)"/>
<path d="M0 0 C-1.35961348 4.07884045 -3.30291425 4.93816372 -7 7 C-9.875 7.25 -9.875 7.25 -12 7 C-11.34 5.68 -10.68 4.36 -10 3 C-8.68 3.33 -7.36 3.66 -6 4 C-6 3.34 -6 2.68 -6 2 C-3 0 -3 0 0 0 Z " fill="#D71F2A" transform="translate(69,183)"/>
<path d="M0 0 C1.98 0.66 3.96 1.32 6 2 C6 2.99 6 3.98 6 5 C6.99 4.67 7.98 4.34 9 4 C9.33 4.99 9.66 5.98 10 7 C7.66666667 7 5.33333333 7 3 7 C0.82967524 8.43990623 0.82967524 8.43990623 -1 10 C-0.67 9.4225 -0.34 8.845 0 8.25 C1.27075898 5.80116138 1.27075898 5.80116138 1 2 C0.67 1.34 0.34 0.68 0 0 Z " fill="#3E3E3E" transform="translate(121,128)"/>
<path d="M0 0 C1.09658936 3.28976808 0.79953138 4.71303767 0 8 C0.66 8 1.32 8 2 8 C2 8.66 2 9.32 2 10 C1.01 9.67 0.02 9.34 -1 9 C-1 8.34 -1 7.68 -1 7 C-3.97 6.505 -3.97 6.505 -7 6 C-6.34 5.67 -5.68 5.34 -5 5 C-5 4.34 -5 3.68 -5 3 C-2.46153846 0 -2.46153846 0 0 0 Z " fill="#3E3E3E" transform="translate(129,84)"/>
<path d="M0 0 C0.66 0.99 1.32 1.98 2 3 C4.56282742 3.72965366 4.56282742 3.72965366 7 4 C5.37660195 5.70884005 3.70680947 7.37446717 2 9 C1.34 9 0.68 9 0 9 C-1.15941038 5.52176885 -0.70820884 3.54104422 0 0 Z " fill="#2C2C2C" transform="translate(137,152)"/>
<path d="M0 0 C0.66 0.33 1.32 0.66 2 1 C0.83445193 7.0509304 -0.45343096 13.03466226 -2 19 C-3.125 17.375 -3.125 17.375 -4 15 C-3.25 12.3125 -3.25 12.3125 -2 9 C-1.26691669 6.01390733 -0.62868256 3.00965057 0 0 Z " fill="#212121" transform="translate(173,100)"/>
<path d="M0 0 C0.66 0.33 1.32 0.66 2 1 C-0.10515339 4.72450216 -1.24267224 6.6795921 -5.25 8.375 C-6.61125 8.684375 -6.61125 8.684375 -8 9 C-6.4169423 4.7257442 -3.49431596 2.73468206 0 0 Z " fill="#2E2E2E" transform="translate(86,96)"/>
<path d="M0 0 C2.0625 0.4375 2.0625 0.4375 4 1 C3.67 2.32 3.34 3.64 3 5 C2.34 5 1.68 5 1 5 C0.67 5.66 0.34 6.32 0 7 C-0.66 6.34 -1.32 5.68 -2 5 C-1.46428571 1.46428571 -1.46428571 1.46428571 0 0 Z " fill="#575757" transform="translate(114,96)"/>
<path d="M0 0 C0.66 0.66 1.32 1.32 2 2 C1.01 5.3 0.02 8.6 -1 12 C-1.99 11.34 -2.98 10.68 -4 10 C-3.67 8.35 -3.34 6.7 -3 5 C-2.34 5 -1.68 5 -1 5 C-0.67 3.35 -0.34 1.7 0 0 Z " fill="#292828" transform="translate(239,9)"/>
<path d="M0 0 C0 0.66 0 1.32 0 2 C-0.66 2 -1.32 2 -2 2 C-1.67 3.65 -1.34 5.3 -1 7 C-1.66 6.67 -2.32 6.34 -3 6 C-3 5.34 -3 4.68 -3 4 C-5.31 4.66 -7.62 5.32 -10 6 C-4.4 0 -4.4 0 0 0 Z " fill="#CC2831" transform="translate(97,141)"/>
<path d="M0 0 C0.33 0.66 0.66 1.32 1 2 C3.97 2 6.94 2 10 2 C10 2.33 10 2.66 10 3 C5.38 3.33 0.76 3.66 -4 4 C-2.68 2.68 -1.36 1.36 0 0 Z " fill="#262527" transform="translate(76,108)"/>
<path d="M0 0 C0.33 0.66 0.66 1.32 1 2 C1.66 2 2.32 2 3 2 C3 2.99 3 3.98 3 5 C1.824375 4.9690625 1.824375 4.9690625 0.625 4.9375 C-1.98114961 4.81315937 -1.98114961 4.81315937 -4 6 C-4 5.01 -4 4.02 -4 3 C-2 1.3125 -2 1.3125 0 0 Z " fill="#59575A" transform="translate(108,102)"/>
<path d="M0 0 C0.99 0.33 1.98 0.66 3 1 C3.33 2.65 3.66 4.3 4 6 C2.35 5.67 0.7 5.34 -1 5 C-0.67 3.35 -0.34 1.7 0 0 Z " fill="#545454" transform="translate(107,96)"/>
<path d="M0 0 C0.66 0.33 1.32 0.66 2 1 C-1.96 4.465 -1.96 4.465 -6 8 C-6.66 7.01 -7.32 6.02 -8 5 C-7.34 5 -6.68 5 -6 5 C-5.67 4.34 -5.34 3.68 -5 3 C-4.34 3 -3.68 3 -3 3 C-1.37485532 1.54166642 -1.37485532 1.54166642 0 0 Z " fill="#262626" transform="translate(195,81)"/>
<path d="M0 0 C0.33 0 0.66 0 1 0 C0.88590407 1.45922693 0.75834456 2.91740598 0.625 4.375 C0.55539063 5.18710937 0.48578125 5.99921875 0.4140625 6.8359375 C0 9 0 9 -2 11 C-1.979375 10.05125 -1.95875 9.1025 -1.9375 8.125 C-1.77448174 5.09333717 -1.77448174 5.09333717 -3 3 C-2.34 3 -1.68 3 -1 3 C-0.67 2.01 -0.34 1.02 0 0 Z " fill="#2B292A" transform="translate(236,22)"/>
<path d="M0 0 C0.66 0.99 1.32 1.98 2 3 C1.34 4.32 0.68 5.64 0 7 C-1.32 5.35 -2.64 3.7 -4 2 C-2.68 1.34 -1.36 0.68 0 0 Z " fill="#2D2C2D" transform="translate(138,128)"/>
<path d="M0 0 C1.65 0.33 3.3 0.66 5 1 C5 1.66 5 2.32 5 3 C3.02 3.33 1.04 3.66 -1 4 C-0.67 2.68 -0.34 1.36 0 0 Z " fill="#3D3B3D" transform="translate(106,106)"/>
<path d="M0 0 C0.66 0 1.32 0 2 0 C2 1.32 2 2.64 2 4 C0.02 4.99 -1.96 5.98 -4 7 C-2.79618552 4.50638429 -1.54571278 2.31856917 0 0 Z " fill="#CC232E" transform="translate(66,173)"/>
<path d="M0 0 C0.66 0 1.32 0 2 0 C1.67 1.98 1.34 3.96 1 6 C-0.32 5.34 -1.64 4.68 -3 4 C-1.625 2 -1.625 2 0 0 Z " fill="#2D2D2D" transform="translate(92,91)"/>
<path d="M0 0 C0.66 0.66 1.32 1.32 2 2 C0.6875 4 0.6875 4 -1 6 C-1.99 6 -2.98 6 -4 6 C-2.84826645 3.53199953 -1.95216435 1.95216435 0 0 Z " fill="#413F42" transform="translate(182,31)"/>
</svg>
