<?xml version="1.0" encoding="UTF-8"?>
<svg version="1.1" xmlns="http://www.w3.org/2000/svg" width="268" height="247">
<path d="M0 0 C2.67382812 -0.37231445 2.67382812 -0.37231445 6.03125 -0.36328125 C7.23394531 -0.36263672 8.43664062 -0.36199219 9.67578125 -0.36132812 C11.56876953 -0.3371582 11.56876953 -0.3371582 13.5 -0.3125 C15.39298828 -0.31733398 15.39298828 -0.31733398 17.32421875 -0.32226562 C26.73319997 -0.26680003 26.73319997 -0.26680003 29 2 C29.14507695 4.74485593 29.18652423 7.38480543 29.125 10.125 C29.11597656 10.87910156 29.10695313 11.63320312 29.09765625 12.41015625 C29.0740687 14.27357254 29.03819719 16.13682593 29 18 C27.02 18.66 25.04 19.32 23 20 C23.72703125 20.14695312 24.4540625 20.29390625 25.203125 20.4453125 C34.64112159 22.55071174 43.36170063 25.94700805 51 32 C53.26831293 30.94685471 55.04044105 29.96477715 56.9375 28.3125 C59 27 59 27 61.5 27.0625 C64.59847054 28.22442645 66.00130731 29.35887038 68 32 C68.75 35.25 68.75 35.25 69 38 C67.03617993 39.50559539 65.21736634 40.89131683 63 42 C64.36277515 45.62537314 66.00941956 48.89425695 67.9375 52.25 C75.35333148 65.67084624 77.70503487 82.08065597 73.75 97.0625 C73.19628764 98.71853374 72.61398849 100.36535531 72 102 C71.73316406 102.82371094 71.46632813 103.64742188 71.19140625 104.49609375 C66.25365241 118.56320581 55.22911075 130.27081906 42 136.9375 C27.19594548 143.71603036 10.60625352 145.83090727 -5.26953125 141.0390625 C-21.69962 134.78669682 -35.29788318 124.07681285 -43 108 C-49.4566615 92.78681077 -50.92633673 74.69087142 -45 59 C-37.16674674 42.28538213 -25.56114262 30.20314911 -8.3984375 23.22265625 C-4.27506112 21.73918866 -0.3141444 20.743818 4 20 C3.195625 19.690625 2.39125 19.38125 1.5625 19.0625 C-1 18 -1 18 -2 17 C-2.12586907 14.7109392 -2.17577971 12.41748882 -2.1875 10.125 C-2.20167969 8.86945313 -2.21585938 7.61390625 -2.23046875 6.3203125 C-2 3 -2 3 0 0 Z M6 7 C5.67 8.65 5.34 10.3 5 12 C10.61 12 16.22 12 22 12 C22 10.68 22 9.36 22 8 C18.99686252 6.49843126 16.20932478 6.90718796 12.875 6.9375 C11.59367187 6.94652344 10.31234375 6.95554687 8.9921875 6.96484375 C8.00476563 6.97644531 7.01734375 6.98804687 6 7 Z M-8 31 C-8.88171875 31.350625 -9.7634375 31.70125 -10.671875 32.0625 C-23.70905788 37.89279296 -32.73381346 48.78035395 -37.875 61.875 C-40.34611131 68.66646487 -41.18199491 74.12835957 -41.1875 81.3125 C-41.19974609 82.14201172 -41.21199219 82.97152344 -41.22460938 83.82617188 C-41.23673399 88.94679921 -40.6559124 93.15007474 -39 98 C-37.02 97.01 -37.02 97.01 -35 96 C-35.10699219 94.76765625 -35.21398437 93.5353125 -35.32421875 92.265625 C-36.29529876 79.56965306 -35.23112281 69.70775105 -30 58 C-30 57.01 -30 56.02 -30 55 C-29.34 55 -28.68 55 -28 55 C-27.08051965 53.60375207 -26.16491469 52.20479058 -25.26953125 50.79296875 C-22.02815355 46.21514609 -18.14301963 42.30082457 -13 40 C-13 39.34 -13 38.68 -13 38 C-12.34773438 37.80664062 -11.69546875 37.61328125 -11.0234375 37.4140625 C-10.14945313 37.15367188 -9.27546875 36.89328125 -8.375 36.625 C-7.51648438 36.36976562 -6.65796875 36.11453125 -5.7734375 35.8515625 C-2.98104477 35.03317952 -2.98104477 35.03317952 -0.26171875 33.921875 C10.98214505 30.74396858 25.56630796 31.95916093 36 37 C39.91045399 39.40250114 43.47076493 42.07112765 47 45 C47.73863281 45.61101562 48.47726563 46.22203125 49.23828125 46.8515625 C50.84566198 48.21091054 52.42661908 49.60143918 54 51 C54.66 49.68 55.32 48.36 56 47 C47.79792817 36.06390422 35.48506617 29.11992307 22 27 C11.29466373 26.31976509 2.07223895 26.90646973 -8 31 Z M-15.125 49.5625 C-15.80820313 50.16191406 -16.49140625 50.76132813 -17.1953125 51.37890625 C-18.49779892 52.54888864 -19.76199159 53.76199159 -21 55 C-21 55.99 -21 56.98 -21 58 C-21.66 58 -22.32 58 -23 58 C-28.37696175 67.87144505 -31.36796923 78.79504413 -29 90 C-26.40554876 88.9792323 -23.84222803 87.92876287 -21.30078125 86.78125 C-11.97736996 82.78376124 -3.04276034 81.75517951 7 81 C7 80.34 7 79.68 7 79 C5.27836601 77.29714205 5.27836601 77.29714205 3.125 75.5625 C0.53806278 73.41599116 -1.11184374 71.83223438 -3 69 C-3 67.68 -3 66.36 -3 65 C0.35730835 65 2.38434667 65.39758653 4.81640625 67.77734375 C6.00121583 69.19246189 7.16018241 70.6297195 8.2890625 72.08984375 C10.07177826 74.080136 11.55455936 74.9801765 14 76 C14.96099609 75.02160156 14.96099609 75.02160156 15.94140625 74.0234375 C23.86886622 66.01327675 23.86886622 66.01327675 28.125 62.5 C29.07375 61.675 30.0225 60.85 31 60 C31 59.34 31 58.68 31 58 C31.66 58 32.32 58 33 58 C33.33 57.34 33.66 56.68 34 56 C35.65 56 37.3 56 39 56 C39 57.98 39 59.96 39 62 C38.34 62 37.68 62 37 62 C37 62.66 37 63.32 37 64 C35.515 64.495 35.515 64.495 34 65 C34 65.66 34 66.32 34 67 C33.1028125 67.4021875 33.1028125 67.4021875 32.1875 67.8125 C30.00152146 68.99917406 28.58667406 70.09599113 27 72 C27 72.66 27 73.32 27 74 C25.68 74.66 24.36 75.32 23 76 C23.99 76.495 23.99 76.495 25 77 C34.1373258 73.78436419 43.64356615 67.12350158 49 59 C48.97853446 55.26499613 46.69855125 53.2039175 44.1875 50.625 C27.27493826 34.38144782 2.24176395 34.27578573 -15.125 49.5625 Z " fill="#4D61A1" transform="translate(130,89)"/>
<path d="M0 0 C1.65 0 3.3 0 5 0 C6.125 4.75 6.125 4.75 5 7 C4.34 7 3.68 7 3 7 C3 7.66 3 8.32 3 9 C1.390625 10.55078125 1.390625 10.55078125 -0.75 12.3125 C-3.90170177 14.98362313 -6.55769329 17.64182828 -9 21 C0.97987786 16.47884448 9.06905247 11.37472351 15 2 C17.51397448 4.24821147 18.80123321 6.34697359 20.125 9.4375 C20.62386719 10.58025391 20.62386719 10.58025391 21.1328125 11.74609375 C24.91906468 21.58693839 24.00604172 33.6244867 20.26171875 43.3203125 C14.09815728 56.41072479 5.2690657 63.53086389 -8.05859375 68.81640625 C-18.75006172 72.10432006 -30.66715561 70.59914839 -40.5546875 65.74609375 C-49.83409423 60.5704976 -55.64749177 54.3619534 -60.5 45 C-60.85078613 44.33564941 -61.20157227 43.67129883 -61.56298828 42.98681641 C-63.94106482 38.10714245 -64.33834712 34.41355388 -64 29 C-63.67 29 -63.34 29 -63 29 C-63 30.98 -63 32.96 -63 35 C-62.26136719 34.60167969 -61.52273437 34.20335937 -60.76171875 33.79296875 C-50.57293278 28.47201445 -40.60763327 25.08188807 -29 25 C-28.34 25.33 -27.68 25.66 -27 26 C-27 25.34 -27 24.68 -27 24 C-27.58136719 23.74863281 -28.16273438 23.49726563 -28.76171875 23.23828125 C-31.28524777 21.84219277 -32.87650007 20.31913782 -34.8125 18.1875 C-35.43769531 17.52105469 -36.06289062 16.85460937 -36.70703125 16.16796875 C-38 14 -38 14 -37.69921875 11.23828125 C-37.46847656 10.49964844 -37.23773438 9.76101562 -37 9 C-34.03 9.495 -34.03 9.495 -31 10 C-30.505 11.485 -30.505 11.485 -30 13 C-29.4225 13.28875 -28.845 13.5775 -28.25 13.875 C-25.23969997 15.38015001 -23.29852456 17.57377963 -21 20 C-16.20416778 15.96481826 -16.20416778 15.96481826 -11.6875 11.625 C-10 10 -10 10 -8 10 C-7.731875 9.360625 -7.46375 8.72125 -7.1875 8.0625 C-6 6 -6 6 -3 5 C-3 4.34 -3 3.68 -3 3 C-2.34 3 -1.68 3 -1 3 C-0.67 2.01 -0.34 1.02 0 0 Z " fill="#A4DFFC" transform="translate(164,144)"/>
<path d="M0 0 C9.51537857 5.8210298 15.94031723 12.12865812 21 22 C21.37382812 22.69738281 21.74765625 23.39476562 22.1328125 24.11328125 C28.69093804 36.62229848 28.28438744 49.05802811 24.32421875 62.453125 C19.05676486 76.56182156 8.71869349 86.08344829 -4.7421875 92.2578125 C-17.27022708 97.11285223 -30.74746573 96.35258907 -43 91 C-54.77193501 84.88169167 -64.49365442 75.90268694 -69 63.17578125 C-69.5159083 61.43707108 -70.00492095 59.68997375 -70.45703125 57.93359375 C-70.82703227 56.00976501 -70.82703227 56.00976501 -72 55 C-74.05191839 41.68152969 -71.29357306 31.14566001 -66 19 C-65.34 19 -64.68 19 -64 19 C-63.76023437 18.27296875 -63.52046875 17.5459375 -63.2734375 16.796875 C-61.81852288 13.60141834 -60.1139438 11.71413705 -57.625 9.25 C-56.85414062 8.47140625 -56.08328125 7.6928125 -55.2890625 6.890625 C-53.06949687 5.05740014 -51.80775207 4.38462357 -49 4 C-49 3.34 -49 2.68 -49 2 C-33.53298969 -5.25826182 -15.95098397 -7.70713761 0 0 Z M-51.125 13.5625 C-51.80820313 14.16191406 -52.49140625 14.76132813 -53.1953125 15.37890625 C-54.49779892 16.54888864 -55.76199159 17.76199159 -57 19 C-57 19.99 -57 20.98 -57 22 C-57.66 22 -58.32 22 -59 22 C-63.15069005 29.90532188 -65.1419342 37.12960554 -66 46 C-66.13019531 46.81984375 -66.26039062 47.6396875 -66.39453125 48.484375 C-67.34072246 58.04250993 -61.4228705 67.34018394 -55.95703125 74.78125 C-48.60266246 82.83932012 -37.78194622 88.40063293 -26.90625 89.23828125 C-14.44366043 89.5098285 -3.78625278 86.94051551 6 79 C6.62519531 78.49855469 7.25039062 77.99710937 7.89453125 77.48046875 C15.73951479 70.45587564 20.41720038 59.58699108 21.3359375 49.203125 C21.47456912 35.17360527 18.23907557 25.47028412 8.5 15 C-8.44285529 -1.49568315 -33.52697122 -1.92778009 -51.125 13.5625 Z " fill="#1C4596" transform="translate(166,125)"/>
<path d="M0 0 C0.66 0 1.32 0 2 0 C1.67 0.99 1.34 1.98 1 3 C1 5.31 1 7.62 1 10 C7.6 10.33 14.2 10.66 21 11 C21 8.69 21 6.38 21 4 C15.39 4 9.78 4 4 4 C3.67 2.68 3.34 1.36 3 0 C10.59 0 18.18 0 26 0 C27.42597611 2.85195222 27.1320252 5.32461175 27.125 8.5 C27.12886719 10.24796875 27.12886719 10.24796875 27.1328125 12.03125 C27 15 27 15 26 17 C23.9375 17.625 23.9375 17.625 22 18 C22.72703125 18.14695312 23.4540625 18.29390625 24.203125 18.4453125 C33.64112159 20.55071174 42.36170063 23.94700805 50 30 C52.26831293 28.94685471 54.04044105 27.96477715 55.9375 26.3125 C58 25 58 25 60.5 25.0625 C63.59847054 26.22442645 65.00130731 27.35887038 67 30 C67.75 33.25 67.75 33.25 68 36 C66.03617993 37.50559539 64.21736634 38.89131683 62 40 C63.36277515 43.62537314 65.00941956 46.89425695 66.9375 50.25 C74.35333148 63.67084624 76.70503487 80.08065597 72.75 95.0625 C72.19628764 96.71853374 71.61398849 98.36535531 71 100 C70.73316406 100.82371094 70.46632813 101.64742188 70.19140625 102.49609375 C64.59383622 118.44294882 52.02857218 129.51265641 37.26171875 136.8203125 C33.89135246 138.03929528 31.54817442 138.23020596 28 138 C24.95229259 138 22.30664165 138.44794315 19.3125 139 C12.26452613 140.19875068 6.06822153 140.41364431 -1 139 C0.485 138.01 0.485 138.01 2 137 C-0.97 136.34 -3.94 135.68 -7 135 C-7 134.01 -7 133.02 -7 132 C0.59904741 132.88655553 0.59904741 132.88655553 2.80859375 133.51171875 C16.34025001 136.52679367 29.65326925 132.81772342 41.4375 126.125 C54.76026429 117.41226508 63.18956681 104.95302069 66.68359375 89.30859375 C68.78596733 73.96905319 65.56604822 59.86655406 57 47 C47.06983367 36.28880935 34.05660768 26.90369475 19.03173828 25.86376953 C11.02426808 25.56706005 3.05399906 25.88177411 -4.8984375 26.87890625 C-7 27 -7 27 -10 26 C-10 25.34 -10 24.68 -10 24 C-8.68 24 -7.36 24 -6 24 C-6 23.34 -6 22.68 -6 22 C-4.35 22 -2.7 22 -1 22 C-1 21.34 -1 20.68 -1 20 C2.96 19.505 2.96 19.505 7 19 C7 18.01 7 17.02 7 16 C5.865625 15.87625 4.73125 15.7525 3.5625 15.625 C1.7990625 15.315625 1.7990625 15.315625 0 15 C-1.30459914 12.39080172 -1.1326594 10.41057385 -1.125 7.5 C-1.12886719 6.03046875 -1.12886719 6.03046875 -1.1328125 4.53125 C-1 2 -1 2 0 0 Z " fill="#39529A" transform="translate(131,91)"/>
<path d="M0 0 C9.22749875 7.90928465 12.12532462 19.68577797 13.35546875 31.37890625 C14.00959209 46.91875544 8.08003055 60.80699345 -1.6875 72.6875 C-10.56453876 82.22022912 -24.30364636 89.32014072 -37.3984375 90.23828125 C-54.86782121 90.56433065 -69.83876908 85.66096168 -82.70703125 73.48828125 C-88.8201307 66.85447486 -92.59229555 59.6394101 -95 51 C-94.01 50.34 -93.02 49.68 -92 49 C-90.80767387 46.94996045 -90.80767387 46.94996045 -90 45 C-89.85304688 45.60585937 -89.70609375 46.21171875 -89.5546875 46.8359375 C-86.18292124 59.43161604 -79.28512842 69.13646456 -68.3125 76.25 C-57.20071404 82.44012734 -44.44728661 85.42586283 -31.87402344 82.50634766 C-18.71165649 78.72887496 -7.87157538 71.42962242 -0.5625 59.69140625 C5.53752003 48.34464281 8.02093236 35.46527077 5.30859375 22.76171875 C3.27764134 16.07402189 0.20972108 10.55683182 -4 5 C-2.93453047 2.86906094 -1.70840281 1.63412443 0 0 Z " fill="#24A9F3" transform="translate(186,136)"/>
<path d="M0 0 C5.87120341 3.59170681 11.51496158 7.74167909 16 13 C16 13.66 16 14.32 16 15 C15.34 15.33 14.68 15.66 14 16 C14 17.65 14 19.3 14 21 C13.56429687 20.62488281 13.12859375 20.24976563 12.6796875 19.86328125 C11.42868137 18.78828248 10.17455312 17.71691044 8.91796875 16.6484375 C7.31697207 15.27242814 5.74799094 13.85928063 4.1875 12.4375 C-4.10876011 5.65164081 -13.96449395 2.5607542 -24.62890625 3.2265625 C-30.88767423 4.00973813 -36.40100134 5.07878331 -42 8 C-42.61230469 8.26941406 -43.22460938 8.53882813 -43.85546875 8.81640625 C-46.64901187 10.35819781 -48.81707353 12.30516658 -51.1875 14.4375 C-52.06792969 15.21996094 -52.94835937 16.00242188 -53.85546875 16.80859375 C-56.20702721 18.89188406 -56.20702721 18.89188406 -57 22 C-57.66 22 -58.32 22 -59 22 C-59.1546875 22.7734375 -59.1546875 22.7734375 -59.3125 23.5625 C-60 26 -60 26 -61.4375 29.125 C-63.17841635 33.13827032 -63.96797604 37.14001535 -64.6875 41.4375 C-64.81705078 42.16904297 -64.94660156 42.90058594 -65.08007812 43.65429688 C-65.39429815 45.434877 -65.69824068 47.21726583 -66 49 C-66.33 49 -66.66 49 -67 49 C-67.495 41.575 -67.495 41.575 -68 34 C-70.0140956 37.0211434 -70.26836596 37.80660017 -70.4140625 41.23046875 C-70.47207031 42.43413086 -70.47207031 42.43413086 -70.53125 43.66210938 C-70.5621875 44.49548828 -70.593125 45.32886719 -70.625 46.1875 C-70.66367188 47.03248047 -70.70234375 47.87746094 -70.7421875 48.74804688 C-70.83636279 50.83167524 -70.91926675 52.91580753 -71 55 C-71.33 55 -71.66 55 -72 55 C-73.65711603 41.50348874 -71.38001009 31.34398254 -66 19 C-65.34 19 -64.68 19 -64 19 C-63.76023437 18.27296875 -63.52046875 17.5459375 -63.2734375 16.796875 C-61.81852288 13.60141834 -60.1139438 11.71413705 -57.625 9.25 C-56.85414062 8.47140625 -56.08328125 7.6928125 -55.2890625 6.890625 C-53.06949687 5.05740014 -51.80775207 4.38462357 -49 4 C-49 3.34 -49 2.68 -49 2 C-33.53298969 -5.25826182 -15.95098397 -7.70713761 0 0 Z " fill="#415798" transform="translate(166,125)"/>
<path d="M0 0 C0.33 0 0.66 0 1 0 C1.01458252 0.66418945 1.02916504 1.32837891 1.04418945 2.01269531 C1.51608948 21.24220441 2.24402108 38.31640681 16.01953125 53.15625 C21.93030614 58.65898323 28.70859295 62.62434859 36 66 C36 66.66 36 67.32 36 68 C36.61488281 68.18175781 37.22976562 68.36351562 37.86328125 68.55078125 C38.67152344 68.80214844 39.47976562 69.05351562 40.3125 69.3125 C41.11300781 69.55613281 41.91351563 69.79976563 42.73828125 70.05078125 C45 71 45 71 46.26953125 72.6171875 C49.23103033 74.98371273 52.79159212 74.11212617 56.375 73.8125 C57.13039062 73.76802734 57.88578125 73.72355469 58.6640625 73.67773438 C62.86951718 73.37997054 66.0816697 72.61720178 70 71 C73 72 73 72 74 74 C67.96537694 75.74503501 62.52093028 76.35461101 56.25 76.3125 C55.36892578 76.30686035 54.48785156 76.3012207 53.58007812 76.29541016 C37.02457981 75.9882637 22.66747455 69.54284781 10.87890625 57.90625 C-2.52686056 43.51215633 -6.79124945 28.04304944 -6.17578125 8.8125 C-6.11777344 7.554375 -6.05976562 6.29625 -6 5 C-5.67 5 -5.34 5 -5 5 C-4.67 10.61 -4.34 16.22 -4 22 C-3.71125 20.040625 -3.4225 18.08125 -3.125 16.0625 C-2.29460785 10.64122555 -1.26590057 5.33486669 0 0 Z " fill="#495D99" transform="translate(88,156)"/>
<path d="M0 0 C5.14965536 9.26937964 4.39022096 24.06122823 1.75 34.0625 C1.19628764 35.71853374 0.61398849 37.36535531 0 39 C-0.26683594 39.82371094 -0.53367187 40.64742187 -0.80859375 41.49609375 C-6.40616378 57.44294882 -18.97142782 68.51265641 -33.73828125 75.8203125 C-37.10864754 77.03929528 -39.45182558 77.23020596 -43 77 C-46.04770741 77 -48.69335835 77.44794315 -51.6875 78 C-58.73547387 79.19875068 -64.93177847 79.41364431 -72 78 C-70.515 77.01 -70.515 77.01 -69 76 C-71.97 75.34 -74.94 74.68 -78 74 C-78 73.01 -78 72.02 -78 71 C-70.40095259 71.88655553 -70.40095259 71.88655553 -68.19140625 72.51171875 C-54.65974999 75.52679367 -41.34673075 71.81772342 -29.5625 65.125 C-23.64760032 61.28326283 -18.26120966 57.13401763 -14.375 51.1875 C-11.74460247 47.65722963 -10.23471598 46.8863359 -6 46 C-5.93941406 45.31292969 -5.87882812 44.62585938 -5.81640625 43.91796875 C-5.69072266 42.56638672 -5.69072266 42.56638672 -5.5625 41.1875 C-5.44068359 39.84751953 -5.44068359 39.84751953 -5.31640625 38.48046875 C-4.93465103 35.48769631 -3.95277864 32.85833592 -3 30 C-2.01 29.505 -2.01 29.505 -1 29 C-0.34444881 26.47266765 -0.34444881 26.47266765 0 24 C0.33 24 0.66 24 1 24 C1.04125 22.741875 1.0825 21.48375 1.125 20.1875 C1.14820313 19.47980469 1.17140625 18.77210938 1.1953125 18.04296875 C1.13254462 15.68640281 1.13254462 15.68640281 -1 13 C-1.38499891 11.34450469 -1.72793135 9.6777567 -2 8 C-1.34 8 -0.68 8 0 8 C0 5.36 0 2.72 0 0 Z " fill="#465FA1" transform="translate(202,152)"/>
<path d="M0 0 C1.65 0 3.3 0 5 0 C6.125 4.75 6.125 4.75 5 7 C4.34 7 3.68 7 3 7 C3 7.66 3 8.32 3 9 C1.42578125 10.55078125 1.42578125 10.55078125 -0.6875 12.3125 C-3.94538314 15.08284781 -7.01430155 17.933607 -10 21 C-11.66666667 22.66666667 -13.33333333 24.33333333 -15 26 C-14.649375 26.5775 -14.29875 27.155 -13.9375 27.75 C-12.85082593 30.35801776 -13.06934867 31.39417629 -14 34 C-14.7425 33.835 -15.485 33.67 -16.25 33.5 C-20.08647687 32.80245875 -23.28473129 32.93849465 -27 34 C-28.125 30.25 -28.125 30.25 -27 28 C-26.34 28 -25.68 28 -25 28 C-25 27.01 -25 26.02 -25 25 C-25.680625 24.814375 -26.36125 24.62875 -27.0625 24.4375 C-31.20032714 22.41260587 -34.19657046 19.64974789 -37 16 C-37.9375 12.5625 -37.9375 12.5625 -38 10 C-35.6875 9.375 -35.6875 9.375 -33 9 C-32.01 9.66 -31.02 10.32 -30 11 C-30 11.66 -30 12.32 -30 13 C-29.443125 13.226875 -28.88625 13.45375 -28.3125 13.6875 C-25.36753316 15.35896766 -23.31843456 17.55276352 -21 20 C-16.20416778 15.96481826 -16.20416778 15.96481826 -11.6875 11.625 C-10 10 -10 10 -8 10 C-7.731875 9.360625 -7.46375 8.72125 -7.1875 8.0625 C-6 6 -6 6 -3 5 C-3 4.34 -3 3.68 -3 3 C-2.34 3 -1.68 3 -1 3 C-0.67 2.01 -0.34 1.02 0 0 Z " fill="#677CB3" transform="translate(164,144)"/>
<path d="M0 0 C0.66 0 1.32 0 2 0 C1.67 0.99 1.34 1.98 1 3 C1 5.31 1 7.62 1 10 C7.6 10.33 14.2 10.66 21 11 C21 8.69 21 6.38 21 4 C15.39 4 9.78 4 4 4 C3.67 2.68 3.34 1.36 3 0 C10.59 0 18.18 0 26 0 C27.43316898 2.86633795 27.13200361 5.37235501 27.125 8.5625 C27.12886719 10.32787109 27.12886719 10.32787109 27.1328125 12.12890625 C27 15 27 15 26 16 C23.32941149 16.14115161 20.67567762 16.04247107 18 16 C18 17.32 18 18.64 18 20 C18.66 20.33 19.32 20.66 20 21 C19.01 21.33 18.02 21.66 17 22 C17.33 22.66 17.66 23.32 18 24 C17.13117188 24.04898438 16.26234375 24.09796875 15.3671875 24.1484375 C14.21476562 24.22320312 13.06234375 24.29796875 11.875 24.375 C10.73804688 24.44460937 9.60109375 24.51421875 8.4296875 24.5859375 C4.99897026 24.88059552 4.99897026 24.88059552 1.875 26.0625 C-1.0961541 27.0313546 -2.82267805 27.08747302 -5.875 26.625 C-7.04675781 26.45871094 -7.04675781 26.45871094 -8.2421875 26.2890625 C-9.11230469 26.14597656 -9.11230469 26.14597656 -10 26 C-10 25.34 -10 24.68 -10 24 C-8.68 24 -7.36 24 -6 24 C-6 23.34 -6 22.68 -6 22 C-4.35 22 -2.7 22 -1 22 C-1 21.34 -1 20.68 -1 20 C2.96 19.505 2.96 19.505 7 19 C7 18.01 7 17.02 7 16 C5.865625 15.87625 4.73125 15.7525 3.5625 15.625 C1.7990625 15.315625 1.7990625 15.315625 0 15 C-1.30459914 12.39080172 -1.1326594 10.41057385 -1.125 7.5 C-1.12886719 6.03046875 -1.12886719 6.03046875 -1.1328125 4.53125 C-1 2 -1 2 0 0 Z " fill="#223B8E" transform="translate(131,91)"/>
<path d="M0 0 C0.66 0.33 1.32 0.66 2 1 C0.68 1.33 -0.64 1.66 -2 2 C-2 2.66 -2 3.32 -2 4 C0.64 4.33 3.28 4.66 6 5 C3.2310359 8.21199835 0.78597152 9.4921472 -3.12109375 11.01953125 C-7.60748274 13.36066147 -11.40615794 17.21847381 -13 22 C-13.66 22 -14.32 22 -15 22 C-15.1546875 22.7734375 -15.1546875 22.7734375 -15.3125 23.5625 C-16 26 -16 26 -17.4375 29.125 C-19.17841635 33.13827032 -19.96797604 37.14001535 -20.6875 41.4375 C-20.81705078 42.16904297 -20.94660156 42.90058594 -21.08007812 43.65429688 C-21.39429815 45.434877 -21.69824068 47.21726583 -22 49 C-22.33 49 -22.66 49 -23 49 C-23.495 41.575 -23.495 41.575 -24 34 C-26.0140956 37.0211434 -26.26836596 37.80660017 -26.4140625 41.23046875 C-26.47207031 42.43413086 -26.47207031 42.43413086 -26.53125 43.66210938 C-26.5621875 44.49548828 -26.593125 45.32886719 -26.625 46.1875 C-26.66367188 47.03248047 -26.70234375 47.87746094 -26.7421875 48.74804688 C-26.83636279 50.83167524 -26.91926675 52.91580753 -27 55 C-27.33 55 -27.66 55 -28 55 C-29.65711603 41.50348874 -27.38001009 31.34398254 -22 19 C-21.34 19 -20.68 19 -20 19 C-19.76023437 18.27296875 -19.52046875 17.5459375 -19.2734375 16.796875 C-17.81852288 13.60141834 -16.1139438 11.71413705 -13.625 9.25 C-12.85414062 8.47140625 -12.08328125 7.6928125 -11.2890625 6.890625 C-9.06949687 5.05740014 -7.80775207 4.38462357 -5 4 C-5 3.34 -5 2.68 -5 2 C-2.625 0.9375 -2.625 0.9375 0 0 Z " fill="#6D7DB0" transform="translate(122,125)"/>
<path d="M0 0 C2.64 0 5.28 0 8 0 C6.02 0.99 6.02 0.99 4 2 C4.72703125 2.14695312 5.4540625 2.29390625 6.203125 2.4453125 C15.74734973 4.57440879 25.23906191 7.61718317 32 15 C31.34 15 30.68 15 30 15 C29.67 15.99 29.34 16.98 29 18 C27.3125 18.9375 27.3125 18.9375 25 19 C23.61729551 18.08943851 22.24046369 17.16773863 20.90625 16.1875 C12.97978444 11.24970178 3.80719987 9.93464182 -5.3125 9.4375 C-6.05306641 9.39431641 -6.79363281 9.35113281 -7.55664062 9.30664062 C-9.37091464 9.20129568 -11.1854355 9.10021684 -13 9 C-13 8.67 -13 8.34 -13 8 C-12.22914063 7.96261719 -11.45828125 7.92523438 -10.6640625 7.88671875 C-9.15972656 7.78810547 -9.15972656 7.78810547 -7.625 7.6875 C-6.12839844 7.60048828 -6.12839844 7.60048828 -4.6015625 7.51171875 C-3.74304688 7.34285156 -2.88453125 7.17398438 -2 7 C0.36980013 4.04622502 0.36980013 4.04622502 0 0 Z " fill="#5265A3" transform="translate(149,107)"/>
<path d="M0 0 C3.37719288 0.62653805 5.58116593 1.90461176 8.375 3.875 C11.82643816 6.24822029 15.20099611 8.24661359 19 10 C19 10.66 19 11.32 19 12 C19.61488281 12.18175781 20.22976562 12.36351562 20.86328125 12.55078125 C21.67152344 12.80214844 22.47976562 13.05351562 23.3125 13.3125 C24.11300781 13.55613281 24.91351563 13.79976562 25.73828125 14.05078125 C28 15 28 15 29.26953125 16.6171875 C32.23103033 18.98371273 35.79159212 18.11212617 39.375 17.8125 C40.13039062 17.76802734 40.88578125 17.72355469 41.6640625 17.67773438 C45.86951718 17.37997054 49.0816697 16.61720178 53 15 C56 16 56 16 57 18 C50.96537694 19.74503501 45.52093028 20.35461101 39.25 20.3125 C38.36892578 20.30686035 37.48785156 20.3012207 36.58007812 20.29541016 C21.21800051 20.01040468 7.35791241 14.51752876 -4 4 C-4.66 3.01 -5.32 2.02 -6 1 C-4.02 1.99 -4.02 1.99 -2 3 C-0.84188612 1.94729537 -0.84188612 1.94729537 0 0 Z " fill="#445A9E" transform="translate(105,212)"/>
<path d="M0 0 C0 3.15987325 -0.38214873 4.36034793 -2 7 C-5.22791555 9.1519437 -6.28400809 9.20086443 -10 9 C-10.0825 9.78375 -10.165 10.5675 -10.25 11.375 C-11 14 -11 14 -12.8125 15.1875 C-13.534375 15.455625 -14.25625 15.72375 -15 16 C-15.66 16.391875 -16.32 16.78375 -17 17.1875 C-19 18 -19 18 -20.9375 17.5 C-23.04827485 16.76723394 -23.04827485 16.76723394 -25.1015625 17.92578125 C-28.89623468 19.33216245 -32.42103391 19.49557503 -36.4375 19.6875 C-37.17548828 19.73455078 -37.91347656 19.78160156 -38.67382812 19.83007812 C-42.94404025 20.06161852 -46.78444989 19.88853909 -51 19 C-50.01 18.34 -49.02 17.68 -48 17 C-52.455 16.01 -52.455 16.01 -57 15 C-57 14.01 -57 13.02 -57 12 C-49.40095259 12.88655553 -49.40095259 12.88655553 -47.19140625 13.51171875 C-33.53661369 16.55423046 -20.11372848 12.7864076 -8.3125 5.875 C-5.44118306 4.04013426 -2.70863664 2.06663473 0 0 Z " fill="#1F3B8D" transform="translate(181,211)"/>
<path d="M0 0 C2.67382812 -0.37231445 2.67382812 -0.37231445 6.03125 -0.36328125 C7.23394531 -0.36263672 8.43664062 -0.36199219 9.67578125 -0.36132812 C10.93777344 -0.34521484 12.19976562 -0.32910156 13.5 -0.3125 C15.39298828 -0.31733398 15.39298828 -0.31733398 17.32421875 -0.32226562 C26.73319997 -0.26680003 26.73319997 -0.26680003 29 2 C29.14507695 4.74485593 29.18652423 7.38480543 29.125 10.125 C29.11597656 10.87910156 29.10695312 11.63320312 29.09765625 12.41015625 C29.0740687 14.27357254 29.03819719 16.13682593 29 18 C28.34 17.67 27.68 17.34 27 17 C27 12.05 27 7.1 27 2 C19.74 2.33 12.48 2.66 5 3 C5.33 3.66 5.66 4.32 6 5 C8.71446979 5.31241455 11.33909361 5.51336592 14.0625 5.625 C14.82111328 5.66367188 15.57972656 5.70234375 16.36132812 5.7421875 C18.24047195 5.83673562 20.12020336 5.91946756 22 6 C22 6.66 22 7.32 22 8 C16.72 8 11.44 8 6 8 C5.67 9.32 5.34 10.64 5 12 C10.61 12 16.22 12 22 12 C22 12.33 22 12.66 22 13 C15.07 13 8.14 13 1 13 C1 5 1 5 3 2 C2.34 2 1.68 2 1 2 C1 6.95 1 11.9 1 17 C3.31 17.33 5.62 17.66 8 18 C8 18.99 8 19.98 8 21 C5.29120665 22.35439668 2.99066732 22.06501451 0 22 C0 22.66 0 23.32 0 24 C-4.95 24.495 -4.95 24.495 -10 25 C-7.42853943 22.42853943 -5.3949583 22.19882003 -1.875 21.375 C-0.23144531 20.98441406 -0.23144531 20.98441406 1.4453125 20.5859375 C2.70988281 20.29589844 2.70988281 20.29589844 4 20 C3.195625 19.690625 2.39125 19.38125 1.5625 19.0625 C-1 18 -1 18 -2 17 C-2.12586907 14.7109392 -2.17577971 12.41748882 -2.1875 10.125 C-2.20167969 8.86945313 -2.21585937 7.61390625 -2.23046875 6.3203125 C-2 3 -2 3 0 0 Z " fill="#A5B0D0" transform="translate(130,89)"/>
<path d="M0 0 C0 4 0 4 -2 7 C-3.96064978 8.09451046 -5.96776584 9.10744765 -8 10.0625 C-12.33930886 12.04772364 -12.33930886 12.04772364 -16 15 C-19.74854566 16.92492885 -21.95037684 17.15703519 -26 16 C-26.33 15.01 -26.66 14.02 -27 13 C-25.71034824 11.62437146 -24.37310707 10.29233607 -23 9 C-22.34 9 -21.68 9 -21 9 C-20.67 8.34 -20.34 7.68 -20 7 C-17.60482514 5.51908091 -15.2241548 4.14742533 -12.75 2.8125 C-12.08097656 2.43158203 -11.41195312 2.05066406 -10.72265625 1.65820312 C-6.81095547 -0.45903374 -4.42828966 -1.62198982 0 0 Z " fill="#5267A2" transform="translate(227,87)"/>
<path d="M0 0 C6.59112422 0.64211525 11.38967712 3.71146328 17 7 C18.21429688 7.69416016 18.21429688 7.69416016 19.453125 8.40234375 C24.86902539 11.60707618 24.86902539 11.60707618 26 15 C25.01 16.485 25.01 16.485 24 18 C17.88486755 17.55890848 13.31972033 14.74635224 8.125 11.75 C7.24585937 11.27175781 6.36671875 10.79351562 5.4609375 10.30078125 C4.63078125 9.82511719 3.800625 9.34945312 2.9453125 8.859375 C2.18750488 8.43108398 1.42969727 8.00279297 0.64892578 7.56152344 C-1 6 -1 6 -1.30908203 3.38378906 C-1 1 -1 1 0 0 Z " fill="#5668A5" transform="translate(61,86)"/>
<path d="M0 0 C3.53571429 0.53571429 3.53571429 0.53571429 5 2 C5.09974389 3.90284987 5.1308063 5.80938253 5.1328125 7.71484375 C5.13410156 8.87564453 5.13539063 10.03644531 5.13671875 11.23242188 C5.13285156 12.45509766 5.12898437 13.67777344 5.125 14.9375 C5.12886719 16.15630859 5.13273438 17.37511719 5.13671875 18.63085938 C5.13542969 19.79294922 5.13414062 20.95503906 5.1328125 22.15234375 C5.13168457 23.22476318 5.13055664 24.29718262 5.12939453 25.40209961 C5 28 5 28 4 30 C2.33388095 30.042721 0.66617115 30.04063832 -1 30 C-3.70071153 27.29928847 -2.18565282 19.20329036 -2.1875 15.5625 C-2.20586914 13.66274414 -2.20586914 13.66274414 -2.22460938 11.72460938 C-2.22654297 10.51740234 -2.22847656 9.31019531 -2.23046875 8.06640625 C-2.23457764 6.95209229 -2.23868652 5.83777832 -2.24291992 4.68969727 C-2 2 -2 2 0 0 Z " fill="#5467A3" transform="translate(142,39)"/>
<path d="M0 0 C8.32879098 7.13896369 11.46936102 17.40510832 13 28 C13.83116883 40.75324675 13.83116883 40.75324675 11 45 C10.67 37.74 10.34 30.48 10 23 C9.67 23 9.34 23 9 23 C8.67 28.61 8.34 34.22 8 40 C7.67 40 7.34 40 7 40 C6.97421875 39.12859375 6.9484375 38.2571875 6.921875 37.359375 C6.32523553 24.8299462 3.61624222 15.05343973 -4 5 C-2.93453047 2.86906094 -1.70840281 1.63412443 0 0 Z " fill="#29A4F2" transform="translate(186,136)"/>
<path d="M0 0 C0.99 1.32 1.98 2.64 3 4 C2.01 4.495 2.01 4.495 1 5 C1.144375 5.845625 1.28875 6.69125 1.4375 7.5625 C0.67544578 13.5500689 -3.81917627 16.29264458 -8.375 19.859375 C-13.4544037 23.57368896 -18.8706955 27.29532636 -25 29 C-25.99 28.67 -26.98 28.34 -28 28 C-26.8125 26.5 -26.8125 26.5 -25 25 C-22.3125 24.8125 -22.3125 24.8125 -20 25 C-19.67 23.35 -19.34 21.7 -19 20 C-17.576875 19.5359375 -17.576875 19.5359375 -16.125 19.0625 C-13.13919592 18.12605258 -13.13919592 18.12605258 -11 17 C-11 16.01 -11 15.02 -11 14 C-10.34 13.67 -9.68 13.34 -9 13 C-7.99260254 11.33779419 -6.99477045 9.66979326 -6 8 C-4.04443072 5.29921378 -2.0288532 2.64604479 0 0 Z " fill="#1E3C8E" transform="translate(190,200)"/>
<path d="M0 0 C0.33 0.66 0.66 1.32 1 2 C-0.32 2 -1.64 2 -3 2 C-3 2.66 -3 3.32 -3 4 C-0.03 4.495 -0.03 4.495 3 5 C-0.88063626 7.58709084 -5.00411177 9.51181949 -9.1875 11.5625 C-12.09706984 12.98147784 -12.09706984 12.98147784 -15 15 C-14.67 13.35 -14.34 11.7 -14 10 C-14.7425 10.45375 -15.485 10.9075 -16.25 11.375 C-19 13 -19 13 -21.125 13.8125 C-23.30855681 14.9630693 -23.30855681 14.9630693 -24.4375 18 C-26 21 -26 21 -28.6875 22.375 C-29.450625 22.58125 -30.21375 22.7875 -31 23 C-26.58196289 13.37422833 -16.79734627 4.83374419 -7 1 C-3.125 0.3125 -3.125 0.3125 0 0 Z " fill="#6273AA" transform="translate(124,113)"/>
<path d="M0 0 C0.99 0.33 1.98 0.66 3 1 C3.06058594 1.78246094 3.12117187 2.56492188 3.18359375 3.37109375 C3.26738281 4.38300781 3.35117188 5.39492187 3.4375 6.4375 C3.51871094 7.44683594 3.59992188 8.45617187 3.68359375 9.49609375 C3.73211468 11.93640779 3.73211468 11.93640779 5 13 C5.66 12.34 6.32 11.68 7 11 C8.27845417 17.23246407 9.57116481 24.37630524 6 30 C5.01 30.66 4.02 31.32 3 32 C2.3019438 34.27510176 2.3019438 34.27510176 2 37 C1.73509766 38.64935547 1.73509766 38.64935547 1.46484375 40.33203125 C1.29082031 41.48058594 1.11679688 42.62914062 0.9375 43.8125 C0.67259766 45.55466797 0.67259766 45.55466797 0.40234375 47.33203125 C0.26957031 48.21246094 0.13679687 49.09289062 0 50 C-1.65 49.67 -3.3 49.34 -5 49 C-3.93913967 45.78767528 -2.85320844 42.59076292 -1.7109375 39.40625 C2.20744651 28.15400753 3.7224451 17.59261655 0.4375 5.8671875 C0 4 0 4 0 0 Z " fill="#0F4297" transform="translate(196,151)"/>
<path d="M0 0 C3.97531786 5.96297679 2.49499876 14.06261215 1.34765625 20.87109375 C-0.66966403 29.32998607 -3.83268552 36.01831949 -9 43 C-9.33 41.68 -9.66 40.36 -10 39 C-9.34 39 -8.68 39 -8 39 C-7.67 37.35 -7.34 35.7 -7 34 C-6.34 34 -5.68 34 -5 34 C-5.33 32.35 -5.66 30.7 -6 29 C-5.34 29 -4.68 29 -4 29 C-4 28.34 -4 27.68 -4 27 C-4.66 27 -5.32 27 -6 27 C-5.34 21.06 -4.68 15.12 -4 9 C-3.01 9.66 -2.02 10.32 -1 11 C-0.67 7.37 -0.34 3.74 0 0 Z " fill="#19499B" transform="translate(191,159)"/>
<path d="M0 0 C0.33 0 0.66 0 1 0 C1.14695312 0.60585937 1.29390625 1.21171875 1.4453125 1.8359375 C3.27370804 8.66615071 6.19599212 14.07759252 10 20 C10.33 20.66 10.66 21.32 11 22 C10.01 22 9.02 22 8 22 C8 21.34 8 20.68 8 20 C7.34 20 6.68 20 6 20 C6.33 21.65 6.66 23.3 7 25 C8.32 25 9.64 25 11 25 C11.33 26.98 11.66 28.96 12 31 C3.41744428 24.92941181 -1.22512042 15.95692086 -4 6 C-3.01 5.34 -2.02 4.68 -1 4 C-0.27617533 1.94074861 -0.27617533 1.94074861 0 0 Z " fill="#25A8F2" transform="translate(95,181)"/>
<path d="M0 0 C2.79111352 1.39555676 4.35831147 2.62526873 6.25 5.125 C7 8.375 7 8.375 7.25 11.125 C4.58333333 13.125 1.91666667 15.125 -0.75 17.125 C-1.08 15.805 -1.41 14.485 -1.75 13.125 C-3.07 13.455 -4.39 13.785 -5.75 14.125 C-6.74 12.805 -7.73 11.485 -8.75 10.125 C-7.1 9.795 -5.45 9.465 -3.75 9.125 C-3.42 8.135 -3.09 7.145 -2.75 6.125 C-1.43 6.125 -0.11 6.125 1.25 6.125 C0.92 5.135 0.59 4.145 0.25 3.125 C-3.43754757 3.62331724 -5.35490662 4.22567643 -7.75 7.125 C-8.74 6.795 -9.73 6.465 -10.75 6.125 C-3.79689022 0.17258592 -3.79689022 0.17258592 0 0 Z " fill="#2C4494" transform="translate(191.75,115.875)"/>
<path d="M0 0 C1.13695312 0.12761719 1.13695312 0.12761719 2.296875 0.2578125 C3.37485771 3.55800537 3.45909919 4.89905688 2.00390625 8.1171875 C1.37871094 9.07109375 0.75351563 10.025 0.109375 11.0078125 C-0.50292969 11.97203125 -1.11523438 12.93625 -1.74609375 13.9296875 C-3.703125 16.2578125 -3.703125 16.2578125 -5.81640625 17.2109375 C-6.43902344 17.22640625 -7.06164062 17.241875 -7.703125 17.2578125 C-8.363125 16.5978125 -9.023125 15.9378125 -9.703125 15.2578125 C-9.703125 10.00278713 -7.1679318 6.32010966 -4.46875 2.015625 C-2.703125 0.2578125 -2.703125 0.2578125 0 0 Z " fill="#21B2F1" transform="translate(184.703125,61.7421875)"/>
<path d="M0 0 C2.296875 -0.25390625 2.296875 -0.25390625 5 0 C9.5481431 4.4374582 11.73392436 9.74722249 12 16 C10.35 16.33 8.7 16.66 7 17 C0.17156208 7.33711615 0.17156208 7.33711615 -1 2 C-0.67 1.34 -0.34 0.68 0 0 Z " fill="#7ECFE8" transform="translate(100,62)"/>
<path d="M0 0 C1.12535156 0.00580078 1.12535156 0.00580078 2.2734375 0.01171875 C3.02367187 0.00785156 3.77390625 0.00398437 4.546875 0 C10.14682697 0.01010822 10.14682697 0.01010822 11.2734375 1.13671875 C11.3984375 3.63671875 11.3984375 3.63671875 11.2734375 6.13671875 C9.45227747 7.95787878 6.96671986 7.26906955 4.546875 7.2734375 C3.79664063 7.26957031 3.04640625 7.26570312 2.2734375 7.26171875 C1.14808594 7.26751953 1.14808594 7.26751953 0 7.2734375 C-5.59995197 7.26332928 -5.59995197 7.26332928 -6.7265625 6.13671875 C-6.8515625 3.63671875 -6.8515625 3.63671875 -6.7265625 1.13671875 C-4.90540247 -0.68444128 -2.41984486 0.00436795 0 0 Z " fill="#95DBF0" transform="translate(216.7265625,131.86328125)"/>
<path d="M0 0 C1.12535156 0.00580078 1.12535156 0.00580078 2.2734375 0.01171875 C3.02367188 0.00785156 3.77390625 0.00398437 4.546875 0 C10.14682697 0.01010822 10.14682697 0.01010822 11.2734375 1.13671875 C11.3984375 3.63671875 11.3984375 3.63671875 11.2734375 6.13671875 C9.45227747 7.95787878 6.96671986 7.26906955 4.546875 7.2734375 C3.79664062 7.26957031 3.04640625 7.26570312 2.2734375 7.26171875 C1.14808594 7.26751953 1.14808594 7.26751953 0 7.2734375 C-5.59995197 7.26332928 -5.59995197 7.26332928 -6.7265625 6.13671875 C-6.8515625 3.63671875 -6.8515625 3.63671875 -6.7265625 1.13671875 C-4.90540247 -0.68444128 -2.41984486 0.00436795 0 0 Z " fill="#95DAF1" transform="translate(65.7265625,131.86328125)"/>
<path d="M0 0 C2.00720923 0.28674418 4.0085944 0.61866701 6 1 C6.33 1.99 6.66 2.98 7 4 C7.639375 4.309375 8.27875 4.61875 8.9375 4.9375 C11.49831999 6.2567103 12.02880681 7.32921873 13 10 C13 10.99 13 11.98 13 13 C11.35 13.66 9.7 14.32 8 15 C0.35077664 8.13486559 0.35077664 8.13486559 -1.0625 3.5625 C-1 1 -1 1 0 0 Z " fill="#6071A9" transform="translate(127,153)"/>
<path d="M0 0 C0 3.15987325 -0.38214873 4.36034793 -2 7 C-4.95656377 8.97104251 -7.26515233 9.57524314 -10.67578125 10.36328125 C-14.14127274 11.31265119 -17.39660051 12.70238716 -20.703125 14.09765625 C-24.79207033 15.70402763 -28.28395475 16.12782303 -32.68359375 16.1328125 C-34.32231445 16.13474609 -34.32231445 16.13474609 -35.99414062 16.13671875 C-37.13044922 16.13285156 -38.26675781 16.12898438 -39.4375 16.125 C-40.56994141 16.12886719 -41.70238281 16.13273437 -42.86914062 16.13671875 C-43.96291016 16.13542969 -45.05667969 16.13414062 -46.18359375 16.1328125 C-47.17931396 16.13168457 -48.17503418 16.13055664 -49.20092773 16.12939453 C-51.90203192 16.00452883 -54.36887185 15.60554132 -57 15 C-57 14.01 -57 13.02 -57 12 C-49.40095259 12.88655553 -49.40095259 12.88655553 -47.19140625 13.51171875 C-33.53661369 16.55423046 -20.11372848 12.7864076 -8.3125 5.875 C-5.44118306 4.04013426 -2.70863664 2.06663473 0 0 Z " fill="#0F479C" transform="translate(181,211)"/>
<path d="M0 0 C1.78670972 2.68006459 3.21589207 5.32895199 4.6875 8.1875 C6.75685898 12.07010918 8.88495203 15.1500603 11.9375 18.3125 C15.00753958 21.57778333 15.00753958 21.57778333 14.9375 25.5 C14.628125 26.325 14.31875 27.15 14 28 C8.25 24.375 8.25 24.375 6 21 C5.92094936 18.66800612 5.91201231 16.33167378 6 14 C4.68 14.33 3.36 14.66 2 15 C0.68 10.71 -0.64 6.42 -2 2 C-1.34 2 -0.68 2 0 2 C0 1.34 0 0.68 0 0 Z " fill="#164199" transform="translate(91,189)"/>
<path d="M0 0 C1.65 0 3.3 0 5 0 C6.125 4.75 6.125 4.75 5 7 C4.34 7 3.68 7 3 7 C3 7.66 3 8.32 3 9 C1.3203125 10.62109375 1.3203125 10.62109375 -0.875 12.4375 C-3.46193722 14.58400884 -5.11184374 16.16776562 -7 19 C-7.66 18.67 -8.32 18.34 -9 18 C-7.68 15.03 -6.36 12.06 -5 9 C-4.01 9 -3.02 9 -2 9 C-2 8.01 -2 7.02 -2 6 C-3.98 7.32 -5.96 8.64 -8 10 C-7.1875 8.0625 -7.1875 8.0625 -6 6 C-5.01 5.67 -4.02 5.34 -3 5 C-3 4.34 -3 3.68 -3 3 C-2.34 3 -1.68 3 -1 3 C-0.67 2.01 -0.34 1.02 0 0 Z " fill="#3B5092" transform="translate(164,144)"/>
<path d="M0 0 C6.6 0 13.2 0 20 0 C19.67 0.66 19.34 1.32 19 2 C15.33012779 3.22329074 12.66032178 2.88021006 8.8125 2.5625 C7.54019531 2.46066406 6.26789063 2.35882813 4.95703125 2.25390625 C3.98121094 2.17011719 3.00539062 2.08632812 2 2 C2 2.66 2 3.32 2 4 C0.02 4.33 -1.96 4.66 -4 5 C-3.34 5.66 -2.68 6.32 -2 7 C-5.96 7 -9.92 7 -14 7 C-13.67 6.01 -13.34 5.02 -13 4 C-12.01 3.67 -11.02 3.34 -10 3 C-9.67 2.34 -9.34 1.68 -9 1 C-2.25 0.875 -2.25 0.875 0 2 C0 1.34 0 0.68 0 0 Z " fill="#203A8E" transform="translate(133,123)"/>
<path d="M0 0 C0.66 0.33 1.32 0.66 2 1 C2 9.91 2 18.82 2 28 C1.01 28.33 0.02 28.66 -1 29 C-1.33 29.66 -1.66 30.32 -2 31 C-2.11641822 23.5621694 -1.97708319 16.1755232 -1.5625 8.75 C-1.52326416 7.99920166 -1.48402832 7.24840332 -1.44360352 6.47485352 C-1.12173696 1.12173696 -1.12173696 1.12173696 0 0 Z " fill="#1DB3FB" transform="translate(195,158)"/>
<path d="M0 0 C0.99 0.66 1.98 1.32 3 2 C2.01 2 1.02 2 0 2 C0.12375 2.721875 0.2475 3.44375 0.375 4.1875 C0 7 0 7 -2.8125 9.5625 C-3.36035156 9.96984375 -3.90820312 10.3771875 -4.47265625 10.796875 C-6.35757576 12.28167093 -7.57948239 14.08230122 -9 16 C-9.66 16 -10.32 16 -11 16 C-11.33 15.34 -11.66 14.68 -12 14 C-12.66 14 -13.32 14 -14 14 C-14 15.98 -14 17.96 -14 20 C-14.66 20 -15.32 20 -16 20 C-16.75 18.25 -16.75 18.25 -17 16 C-15.1875 13.75 -15.1875 13.75 -13 12 C-12.34 12 -11.68 12 -11 12 C-10.79375 11.0925 -10.5875 10.185 -10.375 9.25 C-8.66006298 5.19651249 -6.76504862 4.15145636 -3 2 C-2.01 1.34 -1.02 0.68 0 0 Z " fill="#2F4691" transform="translate(109,122)"/>
<path d="M0 0 C2.75 0.25 2.75 0.25 5 1 C5 1.99 5 2.98 5 4 C4.01 4.66 3.02 5.32 2 6 C1.505 6.53625 1.01 7.0725 0.5 7.625 C-1 9 -1 9 -4 9 C-1.1575146 10.57273568 -1.1575146 10.57273568 2 11 C1.67 11.99 1.34 12.98 1 14 C-2.37462715 13.45276317 -4.08235 12.9451 -7 11 C-7.33 10.01 -7.66 9.02 -8 8 C-8.99 8.495 -8.99 8.495 -10 9 C-10.99 8.01 -11.98 7.02 -13 6 C-12.01 6 -11.02 6 -10 6 C-9.67 5.34 -9.34 4.68 -9 4 C-8.2575 4.0825 -7.515 4.165 -6.75 4.25 C-3.84352216 4.28704359 -3.84352216 4.28704359 -2 1.9375 C-1.34 1.298125 -0.68 0.65875 0 0 Z " fill="#203B8B" transform="translate(188,118)"/>
<path d="M0 0 C0 0.99 0 1.98 0 3 C-0.99 3.33 -1.98 3.66 -3 4 C-4.06513942 6.19572758 -4.06513942 6.19572758 -4.875 8.8125 C-6.50061773 13.15575348 -7.85279737 15.61535849 -12 18 C-14.3125 18.75 -14.3125 18.75 -16 19 C-16 18.34 -16 17.68 -16 17 C-16.66 16.67 -17.32 16.34 -18 16 C-15.38308836 13.32529045 -12.75518292 10.66165519 -10.125 8 C-9.00544922 6.8553125 -9.00544922 6.8553125 -7.86328125 5.6875 C-7.14785156 4.965625 -6.43242187 4.24375 -5.6953125 3.5 C-5.03547363 2.8296875 -4.37563477 2.159375 -3.69580078 1.46875 C-2 0 -2 0 0 0 Z " fill="#203C87" transform="translate(162,150)"/>
<path d="M0 0 C0 3.33333333 0 6.66666667 0 10 C0.62864442 12.15616917 0.62864442 12.15616917 1.5 14.25 C1.91765625 15.30960938 1.91765625 15.30960938 2.34375 16.390625 C2.5603125 16.92171875 2.776875 17.4528125 3 18 C3.99 18 4.98 18 6 18 C7 24.625 7 24.625 7 28 C5.72651788 26.27278316 4.45632943 24.54313762 3.1875 22.8125 C2.47980469 21.84957031 1.77210937 20.88664062 1.04296875 19.89453125 C-4.40399281 12.17713447 -4.40399281 12.17713447 -4.1875 6.1875 C-4.16042969 5.21167969 -4.13335937 4.23585937 -4.10546875 3.23046875 C-4.07066406 2.49441406 -4.03585938 1.75835937 -4 1 C-2 0 -2 0 0 0 Z " fill="#375297" transform="translate(91,185)"/>
<path d="M0 0 C0.02716089 3.02089478 0.04691657 6.04154129 0.0625 9.0625 C0.07087891 9.91005859 0.07925781 10.75761719 0.08789062 11.63085938 C0.10683006 16.5361722 -0.16673655 21.16444755 -1 26 C-3.00083538 24.3521753 -3.91570272 23.46230964 -4.38818359 20.87109375 C-4.39156738 20.06800781 -4.39495117 19.26492187 -4.3984375 18.4375 C-4.40230469 17.55835938 -4.40617187 16.67921875 -4.41015625 15.7734375 C-4.39855469 14.85820312 -4.38695313 13.94296875 -4.375 13 C-4.39240234 11.62714844 -4.39240234 11.62714844 -4.41015625 10.2265625 C-4.40628906 9.34742188 -4.40242188 8.46828125 -4.3984375 7.5625 C-4.39336182 6.35787109 -4.39336182 6.35787109 -4.38818359 5.12890625 C-3.9681004 2.82505377 -2.7468845 0 0 0 Z " fill="#223A8B" transform="translate(99,158)"/>
<path d="M0 0 C1.02480469 0.0515625 2.04960937 0.103125 3.10546875 0.15625 C4.70068359 0.25292969 4.70068359 0.25292969 6.328125 0.3515625 C7.94654297 0.43664062 7.94654297 0.43664062 9.59765625 0.5234375 C12.25850199 0.66472134 14.91837731 0.81611516 17.578125 0.9765625 C15.36296017 3.67863554 14.1957008 4.87028591 10.6953125 5.47265625 C3.50965653 5.342795 -2.68436553 4.5316451 -9.421875 1.9765625 C-6.12147382 -0.01318553 -3.81844405 -0.21213578 0 0 Z " fill="#1CB3FC" transform="translate(137.421875,220.0234375)"/>
<path d="M0 0 C0.66 0 1.32 0 2 0 C2 0.99 2 1.98 2 3 C2.66 3 3.32 3 4 3 C4 4.65 4 6.3 4 8 C4.66 8 5.32 8 6 8 C6.08107583 9.93681161 6.13922475 11.8745934 6.1875 13.8125 C6.22230469 14.89144531 6.25710937 15.97039062 6.29296875 17.08203125 C6 20 6 20 4.48828125 21.88671875 C3.99714844 22.25410156 3.50601563 22.62148437 3 23 C2.52006844 20.45847565 2.04103273 17.91678778 1.5625 15.375 C1.42779297 14.66214844 1.29308594 13.94929687 1.15429688 13.21484375 C0.88960019 11.8074321 0.62735001 10.3995579 0.36767578 8.99121094 C0.03186304 7.17255974 -0.31364094 5.35570487 -0.66015625 3.5390625 C-0.77230469 2.70117188 -0.88445312 1.86328125 -1 1 C-0.67 0.67 -0.34 0.34 0 0 Z " fill="#1E3D90" transform="translate(185,151)"/>
<path d="M0 0 C2 1 2 1 2 1 Z M-2.25 0.75 C-1.5075 0.8325 -0.765 0.915 0 1 C0.66 2.32 1.32 3.64 2 5 C-3.65275661 8.80946641 -8.22613615 9.72740991 -15 10 C-15.33 9.34 -15.66 8.68 -16 8 C-14.39125 7.38125 -14.39125 7.38125 -12.75 6.75 C-10.11875084 5.64572073 -8.91882063 4.916433 -6.875 2.8125 C-5 1 -5 1 -2.25 0.75 Z " fill="#20ADF5" transform="translate(174,211)"/>
<path d="M0 0 C5.38584495 6.3144389 7.42433222 10.79624375 7 19 C6.34 18.67 5.68 18.34 5 18 C5 17.34 5 16.68 5 16 C4.34 16 3.68 16 3 16 C1.02 11.71 -0.96 7.42 -3 3 C-2.34 3 -1.68 3 -1 3 C-0.67 2.01 -0.34 1.02 0 0 Z " fill="#1BB3FB" transform="translate(187,139)"/>
<path d="M0 0 C0.66 0 1.32 0 2 0 C1.67 0.99 1.34 1.98 1 3 C1 5.31 1 7.62 1 10 C7.6 10.33 14.2 10.66 21 11 C21 11.33 21 11.66 21 12 C16.38 12.33 11.76 12.66 7 13 C8.32 13.99 9.64 14.98 11 16 C9.68 17.32 8.36 18.64 7 20 C7 18.68 7 17.36 7 16 C5.865625 15.87625 4.73125 15.7525 3.5625 15.625 C1.7990625 15.315625 1.7990625 15.315625 0 15 C-1.30459914 12.39080172 -1.1326594 10.41057385 -1.125 7.5 C-1.12757813 6.5203125 -1.13015625 5.540625 -1.1328125 4.53125 C-1 2 -1 2 0 0 Z " fill="#213A87" transform="translate(131,91)"/>
<path d="M0 0 C0.32613281 0.48082031 0.65226563 0.96164063 0.98828125 1.45703125 C4.07397274 3.82372666 7.44155967 3.57299527 11.1875 3.6875 C11.93708984 3.72166016 12.68667969 3.75582031 13.45898438 3.79101562 C15.30546838 3.87334294 17.15270994 3.93835281 19 4 C19 4.66 19 5.32 19 6 C13.72 6 8.44 6 3 6 C2.67 7.32 2.34 8.64 2 10 C7.61 10 13.22 10 19 10 C19 10.33 19 10.66 19 11 C12.07 11 5.14 11 -2 11 C-2 3 -2 3 0 0 Z " fill="#6578B3" transform="translate(133,91)"/>
<path d="M0 0 C0.33 0 0.66 0 1 0 C0.55303557 5.08127987 -0.18182544 9.8023503 -1.5234375 14.73828125 C-2.5103838 19.4222313 -2.6979582 24.23091887 -3 29 C-5.93411909 26.06588091 -5.42404734 22.93448249 -5.4375 19 C-5.44136719 18.23631104 -5.44523437 17.47262207 -5.44921875 16.68579102 C-5.31783379 10.21987193 -3.69338538 5.36859946 0 0 Z " fill="#273D82" transform="translate(88,151)"/>
<path d="M0 0 C2.64 0 5.28 0 8 0 C6.02 0.99 6.02 0.99 4 2 C5.32 2.33 6.64 2.66 8 3 C8 3.99 8 4.98 8 6 C7.01 6.495 7.01 6.495 6 7 C6.66 7.66 7.32 8.32 8 9 C1.07 9 -5.86 9 -13 9 C-13 8.67 -13 8.34 -13 8 C-12.22914063 7.96261719 -11.45828125 7.92523438 -10.6640625 7.88671875 C-9.15972656 7.78810547 -9.15972656 7.78810547 -7.625 7.6875 C-6.12839844 7.60048828 -6.12839844 7.60048828 -4.6015625 7.51171875 C-3.74304688 7.34285156 -2.88453125 7.17398438 -2 7 C0.36980013 4.04622502 0.36980013 4.04622502 0 0 Z " fill="#6D80BA" transform="translate(149,107)"/>
<path d="M0 0 C0.33 0 0.66 0 1 0 C1.33 5.61 1.66 11.22 2 17 C2.66 12.71 3.32 8.42 4 4 C4.33 4 4.66 4 5 4 C5.02685095 6.47923801 5.04676547 8.9581884 5.0625 11.4375 C5.07087891 12.14455078 5.07925781 12.85160156 5.08789062 13.58007812 C5.09653588 15.38693559 5.05220011 17.19387603 5 19 C4.67 19.33 4.34 19.66 4 20 C3.63239269 22.32817964 3.29758419 24.6618385 3 27 C0.93284682 23.00350386 -0.12641534 19.84720814 -0.09765625 15.33203125 C-0.09443359 14.43935547 -0.09121094 13.54667969 -0.08789062 12.62695312 C-0.07951172 11.69818359 -0.07113281 10.76941406 -0.0625 9.8125 C-0.05798828 8.87212891 -0.05347656 7.93175781 -0.04882812 6.96289062 C-0.03704626 4.64186288 -0.02059558 2.32096356 0 0 Z " fill="#6A7FBA" transform="translate(82,161)"/>
<path d="M0 0 C0.33 0.66 0.66 1.32 1 2 C-0.32 2 -1.64 2 -3 2 C-3 2.66 -3 3.32 -3 4 C-0.03 4.495 -0.03 4.495 3 5 C-0.23319447 7.15546298 -2.16896958 7.68074747 -6 8 C-6.99 7.34 -7.98 6.68 -9 6 C-9 6.66 -9 7.32 -9 8 C-9.66 8 -10.32 8 -11 8 C-10.6875 5.625 -10.6875 5.625 -10 3 C-6.55549263 0.70366176 -4.06187717 0.45983515 0 0 Z " fill="#52639E" transform="translate(124,113)"/>
<path d="M0 0 C-4.46218182 5.41836363 -10.48345475 8.53076775 -17 11 C-17.99 10.67 -18.98 10.34 -20 10 C-18.8125 8.5 -18.8125 8.5 -17 7 C-14.3125 6.8125 -14.3125 6.8125 -12 7 C-11.67 5.35 -11.34 3.7 -11 2 C-7.17679443 0.57741188 -4.08718695 -0.24042276 0 0 Z " fill="#6B7CAF" transform="translate(182,218)"/>
<path d="M0 0 C1.32 0.33 2.64 0.66 4 1 C5 5.875 5 5.875 5 7 C5.99 7 6.98 7 8 7 C8 8.65 8 10.3 8 12 C5.04567948 10.61557626 2.48757231 9.01447893 -0.125 7.0625 C-0.80820313 6.55847656 -1.49140625 6.05445313 -2.1953125 5.53515625 C-4 4 -4 4 -6 1 C-4.02 1.99 -4.02 1.99 -2 3 C-0.84188612 1.94729537 -0.84188612 1.94729537 0 0 Z " fill="#4E6AAD" transform="translate(105,212)"/>
<path d="M0 0 C4.95 0 9.9 0 15 0 C15 1.32 15 2.64 15 4 C10.05 4 5.1 4 0 4 C0 2.68 0 1.36 0 0 Z " fill="#26B1ED" transform="translate(211,134)"/>
<path d="M0 0 C4.95 0 9.9 0 15 0 C15 1.32 15 2.64 15 4 C10.05 4 5.1 4 0 4 C0 2.68 0 1.36 0 0 Z " fill="#27B0ED" transform="translate(61,134)"/>
<path d="M0 0 C1.3303125 0.4021875 1.3303125 0.4021875 2.6875 0.8125 C2.3575 1.8025 2.0275 2.7925 1.6875 3.8125 C0.4809375 4.2765625 0.4809375 4.2765625 -0.75 4.75 C-3.45407493 5.57858159 -3.45407493 5.57858159 -4.625 7.9375 C-4.851875 8.55625 -5.07875 9.175 -5.3125 9.8125 C-5.9725 9.4825 -6.6325 9.1525 -7.3125 8.8125 C-7.3125 9.8025 -7.3125 10.7925 -7.3125 11.8125 C-7.9725 11.8125 -8.6325 11.8125 -9.3125 11.8125 C-9.06468511 7.5996468 -8.63873116 5.25990273 -6.125 1.8125 C-3.3125 -0.1875 -3.3125 -0.1875 0 0 Z " fill="#394F97" transform="translate(116.3125,130.1875)"/>
<path d="M0 0 C2.75 0.25 2.75 0.25 5 1 C5 1.66 5 2.32 5 3 C5.99 3.33 6.98 3.66 8 4 C7 6 7 6 4.75 7.1875 C1.69751418 8.08937081 0.02265546 7.86361585 -3 7 C-3.33 6.01 -3.66 5.02 -4 4 C-2.3125 1.9375 -2.3125 1.9375 0 0 Z " fill="#7786B5" transform="translate(204,96)"/>
<path d="M0 0 C3 1 3 1 4 3 C-2.20267707 4.82262172 -7.74155547 5.27882956 -14.1875 5.1875 C-15.06341797 5.18685547 -15.93933594 5.18621094 -16.84179688 5.18554688 C-21.01428014 5.15707656 -24.93365637 5.05236636 -29 4 C-29 3.67 -29 3.34 -29 3 C-27.58460938 3.03480469 -27.58460938 3.03480469 -26.140625 3.0703125 C-12.71318567 3.53016288 -12.71318567 3.53016288 0 0 Z " fill="#8B9BC5" transform="translate(158,227)"/>
<path d="M0 0 C0.78375 0.04125 1.5675 0.0825 2.375 0.125 C3.1875 2.125 3.1875 2.125 3.375 5.125 C1.96332428 7.97468868 0.22615239 10.54363524 -1.625 13.125 C-3.2665049 9.8419902 -2.14388624 6.69954967 -1.625 3.125 C-2.07875 3.95 -2.5325 4.775 -3 5.625 C-3.53625 6.45 -4.0725 7.275 -4.625 8.125 C-5.285 8.125 -5.945 8.125 -6.625 8.125 C-4.21323529 0.20063025 -4.21323529 0.20063025 0 0 Z " fill="#77CDED" transform="translate(184.625,61.875)"/>
<path d="M0 0 C7.04939741 0.58744978 13.1040215 2.71113434 18 8 C17.01 8.33 16.02 8.66 15 9 C14.67 8.67 14.34 8.34 14 8 C11.67182036 7.63239269 9.3381615 7.29758419 7 7 C7 7.66 7 8.32 7 9 C5.68 8.34 4.36 7.68 3 7 C3.99 7 4.98 7 6 7 C6 5.35 6 3.7 6 2 C5.01 2.33 4.02 2.66 3 3 C3 2.34 3 1.68 3 1 C2.01 0.67 1.02 0.34 0 0 Z " fill="#5667A2" transform="translate(154,122)"/>
<path d="M0 0 C6.47725863 -0.20894383 12.7751014 -0.00086026 19 2 C19.33 2.66 19.66 3.32 20 4 C18.700625 3.814375 17.40125 3.62875 16.0625 3.4375 C8.36874885 2.63814923 0.68770953 3.42030033 -7 4 C-6.67 3.34 -6.34 2.68 -6 2 C-4.02 2 -2.04 2 0 2 C0 1.34 0 0.68 0 0 Z " fill="#7A89B4" transform="translate(135,125)"/>
<path d="M0 0 C4.62 2.31 9.24 4.62 14 7 C14 7.33 14 7.66 14 8 C10.37 8 6.74 8 3 8 C2.67 7.01 2.34 6.02 2 5 C-0.01508358 4.26676204 -0.01508358 4.26676204 -2 4 C-1 1 -1 1 0 0 Z " fill="#1A3E94" transform="translate(110,215)"/>
<path d="M0 0 C0.33 0 0.66 0 1 0 C2.17293889 6.3778552 3.29530838 12.50321562 3 19 C1 18 1 18 0 15 C-0.53109375 14.5359375 -1.0621875 14.071875 -1.609375 13.59375 C-3 12 -3 12 -2.890625 9.84375 C-2.67921875 9.0703125 -2.4678125 8.296875 -2.25 7.5 C-2.04890625 6.7265625 -1.8478125 5.953125 -1.640625 5.15625 C-1.12694788 3.42728799 -0.57036601 1.71109802 0 0 Z " fill="#1C4091" transform="translate(99,174)"/>
<path d="M0 0 C0.05447047 1.41623216 0.09300508 2.83308191 0.125 4.25 C0.14820312 5.03890625 0.17140625 5.8278125 0.1953125 6.640625 C-0.0171622 9.20731941 -0.71345895 10.7916067 -2 13 C-2.33 12.01 -2.66 11.02 -3 10 C-3.99 10.33 -4.98 10.66 -6 11 C-6 8.69 -6 6.38 -6 4 C-5.34 4 -4.68 4 -4 4 C-4 3.34 -4 2.68 -4 2 C-1 0 -1 0 0 0 Z " fill="#4C5F9E" transform="translate(106,140)"/>
<path d="M0 0 C1.34544332 2.21573007 2.04952143 3.49450767 1.79296875 6.11328125 C1.59316406 6.83902344 1.39335937 7.56476563 1.1875 8.3125 C0.18668817 12.2124377 -0.49032571 16.00755137 -1 20 C-2.65 19.67 -4.3 19.34 -6 19 C-5.71382812 18.15179688 -5.42765625 17.30359375 -5.1328125 16.4296875 C-4.00235079 13.00711722 -2.93005188 9.57150281 -1.875 6.125 C-1.34519531 4.39636719 -1.34519531 4.39636719 -0.8046875 2.6328125 C-0.53914062 1.76398438 -0.27359375 0.89515625 0 0 Z " fill="#14479B" transform="translate(197,181)"/>
<path d="M0 0 C3.36945315 6.06501568 3.12800013 12.05591007 3.0625 18.8125 C3.05798828 19.69615234 3.05347656 20.57980469 3.04882812 21.49023438 C3.03709866 23.66018559 3.01916495 25.83010172 3 28 C2.67 28 2.34 28 2 28 C1.92652344 26.75283203 1.92652344 26.75283203 1.8515625 25.48046875 C1.77679688 24.39378906 1.70203125 23.30710938 1.625 22.1875 C1.55539063 21.10855469 1.48578125 20.02960938 1.4140625 18.91796875 C1.18804267 15.81373814 1.18804267 15.81373814 -1 13 C-1.38499891 11.34450469 -1.72793135 9.6777567 -2 8 C-1.34 8 -0.68 8 0 8 C0 5.36 0 2.72 0 0 Z " fill="#8595C3" transform="translate(202,152)"/>
<path d="M0 0 C0.33 0.99 0.66 1.98 1 3 C-1.40549862 7.44092053 -3.66898348 9.55686248 -8 12 C-8.6496875 13.0209375 -8.6496875 13.0209375 -9.3125 14.0625 C-11.97944997 17.12455367 -15.0775546 17.2283714 -19 18 C-16.86464736 15.75854288 -14.63543401 13.93212176 -12.125 12.125 C-7.39568028 8.61922905 -3.3993088 4.83059672 0 0 Z " fill="#D1EFF8" transform="translate(179,146)"/>
<path d="M0 0 C1.98 0 3.96 0 6 0 C5.67 1.32 5.34 2.64 5 4 C2.36 4.33 -0.28 4.66 -3 5 C-3 5.66 -3 6.32 -3 7 C-5.97 6.505 -5.97 6.505 -9 6 C-9 5.34 -9 4.68 -9 4 C-7.68 4 -6.36 4 -5 4 C-5 3.34 -5 2.68 -5 2 C-3.35 2 -1.7 2 0 2 C0 1.34 0 0.68 0 0 Z " fill="#21398A" transform="translate(130,111)"/>
<path d="M0 0 C2.4375 0.8125 2.4375 0.8125 5 2 C5.33 2.99 5.66 3.98 6 5 C5.01 6.485 5.01 6.485 4 8 C-1.53846154 7.38461538 -1.53846154 7.38461538 -3.875 5.4375 C-4.24625 4.963125 -4.6175 4.48875 -5 4 C-3.35 3.34 -1.7 2.68 0 2 C0 1.34 0 0.68 0 0 Z " fill="#6372A8" transform="translate(81,96)"/>
<path d="M0 0 C0.99 0 1.98 0 3 0 C3.67408308 1.26691507 4.33900497 2.53870749 5 3.8125 C5.556875 4.87404297 5.556875 4.87404297 6.125 5.95703125 C7 8 7 8 7 11 C5.35 11 3.7 11 2 11 C0.57741188 7.17679443 -0.24042276 4.08718695 0 0 Z " fill="#39BAF2" transform="translate(102,64)"/>
<path d="M0 0 C7.42857143 -0.14285714 7.42857143 -0.14285714 11 1 C11 1.66 11 2.32 11 3 C11.66 3 12.32 3 13 3 C13 3.66 13 4.32 13 5 C11.58376784 5.05447047 10.16691809 5.09300508 8.75 5.125 C7.96109375 5.14820313 7.1721875 5.17140625 6.359375 5.1953125 C3.79268059 4.9828378 2.2083933 4.28654105 0 3 C0 2.01 0 1.02 0 0 Z " fill="#385093" transform="translate(161,129)"/>
<path d="M0 0 C0 4 0 4 -2 7 C-2.99 6.67 -3.98 6.34 -5 6 C-4.34 4.68 -3.68 3.36 -3 2 C-4.32 2 -5.64 2 -7 2 C-6.67 2.99 -6.34 3.98 -6 5 C-6.66 5 -7.32 5 -8 5 C-8 4.34 -8 3.68 -8 3 C-9.32 3.33 -10.64 3.66 -12 4 C-8.20200235 -0.17779742 -5.57396889 -1.54832469 0 0 Z " fill="#7381B0" transform="translate(227,87)"/>
<path d="M0 0 C1.65 0 3.3 0 5 0 C5 0.66 5 1.32 5 2 C3.3203125 3.62109375 3.3203125 3.62109375 1.125 5.4375 C-1.46193722 7.58400884 -3.11184374 9.16776562 -5 12 C-5.66 11.67 -6.32 11.34 -7 11 C-5.68 8.03 -4.36 5.06 -3 2 C-2.01 2 -1.02 2 0 2 C0 1.34 0 0.68 0 0 Z " fill="#4E62A0" transform="translate(162,151)"/>
<path d="M0 0 C1.65 0 3.3 0 5 0 C5 0.66 5 1.32 5 2 C5.66 2 6.32 2 7 2 C7 2.66 7 3.32 7 4 C6.34 4 5.68 4 5 4 C5 4.66 5 5.32 5 6 C1.7 6 -1.6 6 -5 6 C-4.67 5.01 -4.34 4.02 -4 3 C-1.9375 2.3125 -1.9375 2.3125 0 2 C0 1.34 0 0.68 0 0 Z " fill="#596DAC" transform="translate(157,111)"/>
<path d="M0 0 C0.33 0 0.66 0 1 0 C2.27845417 6.23246407 3.57116481 13.37630524 0 19 C-0.99 19.66 -1.98 20.32 -3 21 C-2 14 -1 7 0 0 Z " fill="#20398F" transform="translate(202,162)"/>
<path d="M0 0 C3.8063457 0.67170806 7.35206816 1.72746564 11 3 C10.01 4.485 10.01 4.485 9 6 C5.76990139 6.41235301 3.84028675 6.58820073 1.125 4.6875 C0 3 0 3 0 0 Z " fill="#2E4892" transform="translate(71,94)"/>
<path d="M0 0 C1.32 0 2.64 0 4 0 C3.34 1.65 2.68 3.3 2 5 C0.68 4.67 -0.64 4.34 -2 4 C-2 4.66 -2 5.32 -2 6 C-2.66 6 -3.32 6 -4 6 C-4 6.66 -4 7.32 -4 8 C-5.32 8.33 -6.64 8.66 -8 9 C-7.67 7.35 -7.34 5.7 -7 4 C-6.34 4 -5.68 4 -5 4 C-5 3.34 -5 2.68 -5 2 C-4.360625 1.855625 -3.72125 1.71125 -3.0625 1.5625 C-1.02454854 1.18992819 -1.02454854 1.18992819 0 0 Z " fill="#23398B" transform="translate(220,89)"/>
<path d="M0 0 C1.50570723 4.34112993 0.14728132 6.62172855 -1.7421875 10.60546875 C-3.63084752 14.20096128 -5.75239737 17.61938457 -8 21 C-8.33 19.68 -8.66 18.36 -9 17 C-8.34 17 -7.68 17 -7 17 C-6.67 15.35 -6.34 13.7 -6 12 C-5.34 12 -4.68 12 -4 12 C-4.33 10.35 -4.66 8.7 -5 7 C-4.01 6.67 -3.02 6.34 -2 6 C-0.77479736 2.99152582 -0.77479736 2.99152582 0 0 Z " fill="#0F459C" transform="translate(190,181)"/>
<path d="M0 0 C3.34373475 0.55728913 6.03312999 1.35173889 9 3 C9 3.33 9 3.66 9 4 C7.02 4.33 5.04 4.66 3 5 C3.66 6.32 4.32 7.64 5 9 C1.7 8.01 -1.6 7.02 -5 6 C-5 5.67 -5 5.34 -5 5 C-3.35 5 -1.7 5 0 5 C0 4.34 0 3.68 0 3 C0.66 3 1.32 3 2 3 C2 2.34 2 1.68 2 1 C1.34 0.67 0.68 0.34 0 0 Z " fill="#7586B6" transform="translate(162,112)"/>
<path d="M0 0 C0.99 0.33 1.98 0.66 3 1 C3 1.66 3 2.32 3 3 C6.3 3.33 9.6 3.66 13 4 C13 4.33 13 4.66 13 5 C12.13117188 5.04898438 11.26234375 5.09796875 10.3671875 5.1484375 C9.21476562 5.22320312 8.06234375 5.29796875 6.875 5.375 C5.16957031 5.47941406 5.16957031 5.47941406 3.4296875 5.5859375 C0.04078244 5.99507638 -2.78886547 6.8811061 -6 8 C-6.99 8 -7.98 8 -9 8 C-9.33 7.01 -9.66 6.02 -10 5 C-7.03 5 -4.06 5 -1 5 C-0.67 3.35 -0.34 1.7 0 0 Z " fill="#455798" transform="translate(136,110)"/>
<path d="M0 0 C2.31 0.33 4.62 0.66 7 1 C7 1.66 7 2.32 7 3 C7.66 3 8.32 3 9 3 C9 3.66 9 4.32 9 5 C10.32 5 11.64 5 13 5 C13 5.99 13 6.98 13 8 C9.58978257 7.21302675 6.31114834 6.12880057 3 5 C3 4.34 3 3.68 3 3 C2.01 2.67 1.02 2.34 0 2 C0 1.34 0 0.68 0 0 Z " fill="#18B6F9" transform="translate(111,212)"/>
<path d="M0 0 C1.9375 0.8125 1.9375 0.8125 4 2 C4.33 2.99 4.66 3.98 5 5 C5.99 5 6.98 5 8 5 C9 11.625 9 11.625 9 15 C7.67981412 13.25579087 6.36911398 11.50439909 5.0625 9.75 C4.33160156 8.77546875 3.60070312 7.8009375 2.84765625 6.796875 C1.24654921 4.3732119 0.42363762 2.8242508 0 0 Z " fill="#697BAF" transform="translate(89,198)"/>
<path d="M0 0 C4.78184955 4.09872818 7.95568759 9.01308509 10 15 C9.6328125 17.30859375 9.6328125 17.30859375 9 19 C8.25943359 17.50146484 8.25943359 17.50146484 7.50390625 15.97265625 C6.85687605 14.6692186 6.20973489 13.36583602 5.5625 12.0625 C5.23701172 11.40314453 4.91152344 10.74378906 4.57617188 10.06445312 C3.10888654 6.81709965 3.10888654 6.81709965 1 4 C0.67 4.66 0.34 5.32 0 6 C-1.32 5.67 -2.64 5.34 -4 5 C-2.93453047 2.86906094 -1.70840281 1.63412443 0 0 Z " fill="#50AEED" transform="translate(186,136)"/>
<path d="M0 0 C2 3 2 3 2 6 C0.25 7.5 0.25 7.5 -2 9 C-2.7425 9.556875 -3.485 10.11375 -4.25 10.6875 C-4.8275 11.120625 -5.405 11.55375 -6 12 C-6.33 10.68 -6.66 9.36 -7 8 C-7.99 8.33 -8.98 8.66 -10 9 C-9.67 8.01 -9.34 7.02 -9 6 C-7.02 6.495 -7.02 6.495 -5 7 C-4.67 6.01 -4.34 5.02 -4 4 C-3.01 4.33 -2.02 4.66 -1 5 C-0.67 3.35 -0.34 1.7 0 0 Z " fill="#8592BF" transform="translate(197,121)"/>
<path d="M0 0 C0.3125 3.3125 0.3125 3.3125 0 7 C-2.5 8.9375 -2.5 8.9375 -5 10 C-5.33 9.34 -5.66 8.68 -6 8 C-6.66 7.67 -7.32 7.34 -8 7 C-6.8572081 5.83035398 -5.71068285 4.66435444 -4.5625 3.5 C-3.92441406 2.8503125 -3.28632813 2.200625 -2.62890625 1.53125 C-1 0 -1 0 0 0 Z " fill="#203A87" transform="translate(152,159)"/>
<path d="M0 0 C2.66666667 0.66666667 5.33333333 1.33333333 8 2 C7.67 3.65 7.34 5.3 7 7 C1.125 6.125 1.125 6.125 0 5 C-0.04063832 3.33382885 -0.042721 1.66611905 0 0 Z " fill="#3B5196" transform="translate(62,88)"/>
<path d="M0 0 C-3.46642155 3.17755309 -7.38898294 4.45964644 -12 5 C-14.25 4.546875 -14.25 4.546875 -16 4 C-4.82258065 -1.85483871 -4.82258065 -1.85483871 0 0 Z " fill="#B9E3F4" transform="translate(168,163)"/>
<path d="M0 0 C0.66 0.33 1.32 0.66 2 1 C0.6062718 5.43458973 -1.60582235 7.87378374 -5 11 C-4.814375 10.2575 -4.62875 9.515 -4.4375 8.75 C-4.00796892 6.05009037 -4.14877026 4.55368923 -5 2 C-2.625 0.9375 -2.625 0.9375 0 0 Z " fill="#5F74AE" transform="translate(196,198)"/>
<path d="M0 0 C0.66 0 1.32 0 2 0 C2 4.95 2 9.9 2 15 C2.66 15.33 3.32 15.66 4 16 C2.35 15.67 0.7 15.34 -1 15 C-1.02685412 12.68756208 -1.04632841 10.3750373 -1.0625 8.0625 C-1.07410156 6.77472656 -1.08570312 5.48695312 -1.09765625 4.16015625 C-1 1 -1 1 0 0 Z " fill="#7888AF" transform="translate(129,91)"/>
<path d="M0 0 C0.99 0 1.98 0 3 0 C3.103125 0.61875 3.20625 1.2375 3.3125 1.875 C3.87525373 4.36526484 3.87525373 4.36526484 7 6 C3.04 6 -0.92 6 -5 6 C-4.67 5.01 -4.34 4.02 -4 3 C-3.01 2.67 -2.02 2.34 -1 2 C-0.67 1.34 -0.34 0.68 0 0 Z " fill="#5468A7" transform="translate(124,124)"/>
<path d="M0 0 C1.18142578 0.13148438 1.18142578 0.13148438 2.38671875 0.265625 C3.33998047 0.50539062 3.33998047 0.50539062 4.3125 0.75 C4.6425 1.41 4.9725 2.07 5.3125 2.75 C-4.09752278 4.26708428 -4.09752278 4.26708428 -8.6875 1.75 C-5.5633675 -0.1087516 -3.59432466 -0.45151847 0 0 Z " fill="#5B6CAB" transform="translate(128.6875,226.25)"/>
<path d="M0 0 C0 3.51716303 -0.82445585 4.37121748 -3 7 C-2.01 7.33 -1.02 7.66 0 8 C0 8.66 0 9.32 0 10 C-1.98 10.99 -1.98 10.99 -4 12 C-5.65 10.68 -7.3 9.36 -9 8 C-6.03 5.36 -3.06 2.72 0 0 Z " fill="#29A4F1" transform="translate(180,203)"/>
<path d="M0 0 C1.65 0 3.3 0 5 0 C5.33 2.31 5.66 4.62 6 7 C5.01 7.66 4.02 8.32 3 9 C0 3.375 0 3.375 0 0 Z " fill="#25AAF2" transform="translate(92,189)"/>
<path d="M0 0 C2.64465038 3.1254959 3.84414715 6.08788267 5 10 C3.68 9.67 2.36 9.34 1 9 C0.67 9.99 0.34 10.98 0 12 C-0.66 11.67 -1.32 11.34 -2 11 C-1.855625 10.29875 -1.71125 9.5975 -1.5625 8.875 C-0.98521625 5.92443859 -0.48304859 2.96729849 0 0 Z " fill="#9DD8F8" transform="translate(180,147)"/>
<path d="M0 0 C0.88945312 0.00322266 1.77890625 0.00644531 2.6953125 0.00976562 C4.07589844 0.02233398 4.07589844 0.02233398 5.484375 0.03515625 C6.42023438 0.03966797 7.35609375 0.04417969 8.3203125 0.04882812 C10.62506541 0.06058707 12.92968727 0.07702199 15.234375 0.09765625 C15.234375 0.42765625 15.234375 0.75765625 15.234375 1.09765625 C8.634375 1.42765625 2.034375 1.75765625 -4.765625 2.09765625 C-4.765625 2.75765625 -4.765625 3.41765625 -4.765625 4.09765625 C-7.735625 3.60265625 -7.735625 3.60265625 -10.765625 3.09765625 C-7.56846546 -0.09950329 -4.37481285 -0.02804367 0 0 Z " fill="#8090B9" transform="translate(137.765625,120.90234375)"/>
<path d="M0 0 C0.99 0.33 1.98 0.66 3 1 C3 1.66 3 2.32 3 3 C2.34 3 1.68 3 1 3 C0.7525 3.639375 0.505 4.27875 0.25 4.9375 C-1 7 -1 7 -3.125 7.75 C-4.053125 7.87375 -4.053125 7.87375 -5 8 C-5.33 6.68 -5.66 5.36 -6 4 C-4.7934375 3.566875 -4.7934375 3.566875 -3.5625 3.125 C-0.8673532 2.26737432 -0.8673532 2.26737432 0 0 Z " fill="#1A4281" transform="translate(142,170)"/>
<path d="M0 0 C1 3 1 3 0 6 C0.66 6 1.32 6 2 6 C2 7.65 2 9.3 2 11 C1.34 11 0.68 11 0 11 C-0.33 12.32 -0.66 13.64 -1 15 C-2.60725635 11.78548731 -2.05748185 8.56387464 -2 5 C-2.99 5.495 -2.99 5.495 -4 6 C-2.84826645 3.53199953 -1.95216435 1.95216435 0 0 Z " fill="#7A8AB8" transform="translate(107,136)"/>
<path d="M0 0 C2.56397092 1.31861361 3.69206155 2.6850741 5.1875 5.125 C3.8675 5.455 2.5475 5.785 1.1875 6.125 C0.8575 5.135 0.5275 4.145 0.1875 3.125 C-3.50004757 3.62331724 -5.41740662 4.22567643 -7.8125 7.125 C-8.8025 6.795 -9.7925 6.465 -10.8125 6.125 C-3.85808734 0.17147055 -3.85808734 0.17147055 0 0 Z " fill="#8391BB" transform="translate(191.8125,115.875)"/>
<path d="M0 0 C0.33 0 0.66 0 1 0 C0.48517081 5.852795 -0.45357192 11.3297637 -2 17 C-2.33 17 -2.66 17 -3 17 C-3.3540919 10.48208608 -3.03901852 5.82478551 0 0 Z " fill="#1D3B93" transform="translate(88,151)"/>
<path d="M0 0 C1.3418344 2.68366879 0.73004953 4.15280683 0 7 C-0.33 7.33 -0.66 7.66 -1 8 C-1.52928076 10.31282351 -1.96333715 12.63721913 -2.40234375 14.96875 C-2.69818359 15.97421875 -2.69818359 15.97421875 -3 17 C-3.66 17.33 -4.32 17.66 -5 18 C-3.7 3.7 -3.7 3.7 0 0 Z " fill="#7985B5" transform="translate(88,143)"/>
<path d="M0 0 C0.99 0.33 1.98 0.66 3 1 C3 2.65 3 4.3 3 6 C0.625 6.625 0.625 6.625 -2 7 C-2.66 6.34 -3.32 5.68 -4 5 C-4 4.01 -4 3.02 -4 2 C-2.68 2.33 -1.36 2.66 0 3 C0 2.01 0 1.02 0 0 Z " fill="#71C9E9" transform="translate(109,72)"/>
<path d="M0 0 C0.66 0.33 1.32 0.66 2 1 C2.33 2.32 2.66 3.64 3 5 C-0.3 5.33 -3.6 5.66 -7 6 C-7.33 5.34 -7.66 4.68 -8 4 C-6.71349294 3.30289269 -5.42059335 2.61757124 -4.125 1.9375 C-3.40570313 1.55464844 -2.68640625 1.17179688 -1.9453125 0.77734375 C-1.30335938 0.52082031 -0.66140625 0.26429688 0 0 Z " fill="#1AB3FB" transform="translate(166,215)"/>
<path d="M0 0 C0.66 0.99 1.32 1.98 2 3 C2.66 3 3.32 3 4 3 C4.625 5.875 4.625 5.875 5 9 C4.34 9.66 3.68 10.32 3 11 C3.33 9.35 3.66 7.7 4 6 C2.35 6 0.7 6 -1 6 C-1.33 6.99 -1.66 7.98 -2 9 C-2.33 8.34 -2.66 7.68 -3 7 C-2.06421005 4.64018187 -1.06652192 2.30368736 0 0 Z " fill="#6D7EB4" transform="translate(99,147)"/>
<path d="M0 0 C4.75 0.75 4.75 0.75 7 3 C7.99 3.33 8.98 3.66 10 4 C9.67 5.32 9.34 6.64 9 8 C5.01824456 5.89851796 2.64960955 3.63094642 0 0 Z " fill="#14429B" transform="translate(107,203)"/>
<path d="M0 0 C0.66 0.33 1.32 0.66 2 1 C1.3503125 1.556875 1.3503125 1.556875 0.6875 2.125 C-1.20208478 4.03233299 -1.20208478 4.03233299 -2.375 7.0625 C-4 10 -4 10 -6.6875 11.375 C-7.450625 11.58125 -8.21375 11.7875 -9 12 C-7.55575365 8.76138697 -5.74227753 6.38030837 -3.375 3.75 C-2.74335937 3.04359375 -2.11171875 2.3371875 -1.4609375 1.609375 C-0.97882813 1.07828125 -0.49671875 0.5471875 0 0 Z " fill="#8193BC" transform="translate(102,124)"/>
<path d="M0 0 C0.66 0 1.32 0 2 0 C2 0.66 2 1.32 2 2 C3.32 1.34 4.64 0.68 6 0 C4.44499019 3.81684226 1.96404505 6.19195732 -1 9 C-1.66 8.67 -2.32 8.34 -3 8 C-2.67 6.35 -2.34 4.7 -2 3 C-1.01 3.33 -0.02 3.66 1 4 C0.67 2.68 0.34 1.36 0 0 Z " fill="#798CB9" transform="translate(185,209)"/>
<path d="M0 0 C1.32 0.33 2.64 0.66 4 1 C2.73427767 2.15147661 1.46222094 3.29599314 0.1875 4.4375 C-0.52019531 5.07558594 -1.22789062 5.71367187 -1.95703125 6.37109375 C-4 8 -4 8 -7 9 C-7 8.34 -7 7.68 -7 7 C-6.34 7 -5.68 7 -5 7 C-4.9175 6.38125 -4.835 5.7625 -4.75 5.125 C-4 3 -4 3 -1.9375 1.75 C-1.298125 1.5025 -0.65875 1.255 0 1 C0 0.67 0 0.34 0 0 Z " fill="#114599" transform="translate(175,204)"/>
<path d="M0 0 C0 1.32 0 2.64 0 4 C-0.7425 4.103125 -1.485 4.20625 -2.25 4.3125 C-5.17014018 5.04253504 -6.73187554 6.06789398 -9 8 C-7.07834179 2.53066508 -6.10288444 0 0 0 Z " fill="#5467A1" transform="translate(112,119)"/>
<path d="M0 0 C3.73669693 0.41518855 6.73738338 1.11772118 10 3 C10 3.33 10 3.66 10 4 C6.37471432 4.20140476 4.13498292 3.85776765 1 2 C1 3.32 1 4.64 1 6 C0.34 6 -0.32 6 -1 6 C-1.042721 4.33388095 -1.04063832 2.66617115 -1 1 C-0.67 0.67 -0.34 0.34 0 0 Z " fill="#7682AB" transform="translate(61,86)"/>
<path d="M0 0 C0.99 0 1.98 0 3 0 C3 0.66 3 1.32 3 2 C4.32 2.66 5.64 3.32 7 4 C7 5.65 7 7.3 7 9 C0.42857143 5 0.42857143 5 -1 1 C-0.67 0.67 -0.34 0.34 0 0 Z " fill="#263C8B" transform="translate(98,208)"/>
<path d="M0 0 C-2.0625 2.5 -2.0625 2.5 -5 5 C-8.8125 5.3125 -8.8125 5.3125 -12 5 C-3.89473684 -1.94736842 -3.89473684 -1.94736842 0 0 Z " fill="#C7EAF6" transform="translate(113,175)"/>
<path d="M0 0 C6.75 0.75 6.75 0.75 9 3 C8.64644564 5.26274788 8.02455574 6.95088852 7 9 C5.68 8.34 4.36 7.68 3 7 C3.99 7 4.98 7 6 7 C6 5.35 6 3.7 6 2 C5.01 2.33 4.02 2.66 3 3 C3 2.34 3 1.68 3 1 C2.01 0.67 1.02 0.34 0 0 Z " fill="#7787BB" transform="translate(154,122)"/>
<path d="M0 0 C0.99 0.99 1.98 1.98 3 3 C2.34 3 1.68 3 1 3 C0.67 4.65 0.34 6.3 0 8 C-0.99 8.33 -1.98 8.66 -3 9 C-3.33 8.01 -3.66 7.02 -4 6 C-3.525625 5.566875 -3.05125 5.13375 -2.5625 4.6875 C-0.76313043 2.97690387 -0.76313043 2.97690387 0 0 Z " fill="#1F3C8A" transform="translate(190,202)"/>
<path d="M0 0 C1.9375 0.75 1.9375 0.75 4 2 C4.75 4.125 4.75 4.125 5 6 C3.68 6.33 2.36 6.66 1 7 C0 4 0 4 0 0 Z " fill="#1C4589" transform="translate(146,171)"/>
<path d="M0 0 C1.24546405 2.49092811 0.7767578 3.41080733 0 6 C1.65 5.67 3.3 5.34 5 5 C4.34 6.32 3.68 7.64 3 9 C1.68 8.67 0.36 8.34 -1 8 C-1.625 5.6875 -1.625 5.6875 -2 3 C-1.34 2.01 -0.68 1.02 0 0 Z " fill="#8AD5ED" transform="translate(177,70)"/>
<path d="M0 0 C0 0.99 0 1.98 0 3 C1.65 3 3.3 3 5 3 C3.1875 4.5625 3.1875 4.5625 1 6 C-2.39914975 4.86695008 -3.05254451 3.87481525 -5 1 C-2 0 -2 0 0 0 Z " fill="#184B9C" transform="translate(163,210)"/>
<path d="M0 0 C1.12588014 0.95729916 2.2506715 1.91587895 3.375 2.875 C4.00148438 3.40867188 4.62796875 3.94234375 5.2734375 4.4921875 C6.55836651 5.61432007 7.79371975 6.79371975 9 8 C6.37886292 8 4.49064888 7.68707555 2 7 C1.34 4.69 0.68 2.38 0 0 Z " fill="#254A8F" transform="translate(110,199)"/>
<path d="M0 0 C1.32 0.99 2.64 1.98 4 3 C2.84826645 5.46800047 1.95216435 7.04783565 0 9 C0 8.01 0 7.02 0 6 C-0.66 6 -1.32 6 -2 6 C-2.33 5.01 -2.66 4.02 -3 3 C-2.01 2.67 -1.02 2.34 0 2 C0 1.34 0 0.68 0 0 Z " fill="#283E84" transform="translate(139,163)"/>
<path d="M0 0 C1.65 0 3.3 0 5 0 C4.38125 0.2475 3.7625 0.495 3.125 0.75 C0.86976683 1.81201152 0.86976683 1.81201152 0.0625 3.9375 C-1.65649605 7.27437468 -4.74897707 8.37448854 -8 10 C-7.1875 8.0625 -7.1875 8.0625 -6 6 C-5.01 5.67 -4.02 5.34 -3 5 C-3 4.34 -3 3.68 -3 3 C-2.34 3 -1.68 3 -1 3 C-0.67 2.01 -0.34 1.02 0 0 Z " fill="#99A7CA" transform="translate(164,144)"/>
<path d="M0 0 C0.99 0.33 1.98 0.66 3 1 C2.979375 1.886875 2.95875 2.77375 2.9375 3.6875 C2.99286219 6.62169631 3.3305734 9.15493696 4 12 C1.13546142 8.58983503 -0.34703566 5.09305456 -2 1 C-1.34 0.67 -0.68 0.34 0 0 Z " fill="#13479B" transform="translate(192,139)"/>
<path d="M0 0 C0.99 0.33 1.98 0.66 3 1 C2.65120368 4.25543229 1.97866739 5.01873107 -0.5625 7.25 C-1.7690625 8.11625 -1.7690625 8.11625 -3 9 C-3 7.35 -3 5.7 -3 4 C-2.34 4 -1.68 4 -1 4 C-0.67 2.68 -0.34 1.36 0 0 Z " fill="#5D6DA5" transform="translate(112,135)"/>
<path d="M0 0 C0.99 0.33 1.98 0.66 3 1 C3 1.99 3 2.98 3 4 C4.9375006 6.18777466 4.9375006 6.18777466 7 8 C3.41087588 8 2.89142971 7.33563446 0.3125 5 C-0.31011719 4.443125 -0.93273437 3.88625 -1.57421875 3.3125 C-2.04472656 2.879375 -2.51523438 2.44625 -3 2 C-2.01 1.34 -1.02 0.68 0 0 Z " fill="#5E71A9" transform="translate(179,125)"/>
<path d="M0 0 C0.99 0.33 1.98 0.66 3 1 C3.33 1.99 3.66 2.98 4 4 C3.67 4.66 3.34 5.32 3 6 C1.35 5.67 -0.3 5.34 -2 5 C-1.34 3.35 -0.68 1.7 0 0 Z " fill="#455394" transform="translate(203,98)"/>
<path d="M0 0 C1.32 0 2.64 0 4 0 C3.67 1.65 3.34 3.3 3 5 C1.35 5 -0.3 5 -2 5 C-1.34 3.35 -0.68 1.7 0 0 Z " fill="#173E93" transform="translate(177,199)"/>
<path d="M0 0 C1.134375 0.020625 2.26875 0.04125 3.4375 0.0625 C3.1075 1.3825 2.7775 2.7025 2.4375 4.0625 C1.1175 4.3925 -0.2025 4.7225 -1.5625 5.0625 C-2.5525 3.7425 -3.5425 2.4225 -4.5625 1.0625 C-3.5625 0.0625 -3.5625 0.0625 0 0 Z " fill="#27408E" transform="translate(168.5625,115.9375)"/>
<path d="M0 0 C0.99 0.33 1.98 0.66 3 1 C3 4.96 3 8.92 3 13 C2.67 13 2.34 13 2 13 C1.66127487 11.58461283 1.32925376 10.16762037 1 8.75 C0.814375 7.96109375 0.62875 7.1721875 0.4375 6.359375 C0 4 0 4 0 0 Z " fill="#13489E" transform="translate(196,151)"/>
<path d="M0 0 C1.98 0.495 1.98 0.495 4 1 C3.67 2.65 3.34 4.3 3 6 C1.68 5.67 0.36 5.34 -1 5 C-0.67 3.35 -0.34 1.7 0 0 Z " fill="#4F5E95" transform="translate(142,39)"/>
<path d="M0 0 C0.33 0.66 0.66 1.32 1 2 C0.0625 4.125 0.0625 4.125 -1 6 C-1.66 6 -2.32 6 -3 6 C-3.66 7.65 -4.32 9.3 -5 11 C-5.99 10.67 -6.98 10.34 -8 10 C-5.36 6.7 -2.72 3.4 0 0 Z " fill="#0C469C" transform="translate(190,200)"/>
<path d="M0 0 C0.66 0.33 1.32 0.66 2 1 C2 3.64 2 6.28 2 9 C1.34 9 0.68 9 0 9 C-0.33 9.99 -0.66 10.98 -1 12 C-0.67 8.04 -0.34 4.08 0 0 Z " fill="#4C6099" transform="translate(202,176)"/>
<path d="M0 0 C0 1.65 0 3.3 0 5 C-1.65 5 -3.3 5 -5 5 C-5 4.01 -5 3.02 -5 2 C-2 0 -2 0 0 0 Z " fill="#2C408C" transform="translate(160,124)"/>
<path d="M0 0 C0.33 0 0.66 0 1 0 C1 1.65 1 3.3 1 5 C0.01 5.33 -0.98 5.66 -2 6 C-1.79375 6.763125 -1.5875 7.52625 -1.375 8.3125 C-1 11 -1 11 -3 14 C-4.15837626 9.94568308 -3.83691257 7.78187881 -2 4 C-1.34 4 -0.68 4 0 4 C0 2.68 0 1.36 0 0 Z " fill="#5C6FAD" transform="translate(89,180)"/>
<path d="M0 0 C2 1.1875 2 1.1875 4 3 C4.25 5.6875 4.25 5.6875 4 8 C3.01 8.33 2.02 8.66 1 9 C-0.4783226 6.04335481 -0.06032783 3.25770263 0 0 Z " fill="#264797" transform="translate(187,168)"/>
<path d="M0 0 C1.15810065 2.31620131 1.50512238 4.46375217 2 7 C2.33 7.99 2.66 8.98 3 10 C2.01 10.495 2.01 10.495 1 11 C-0.32 8.36 -1.64 5.72 -3 3 C-2.34 3 -1.68 3 -1 3 C-0.67 2.01 -0.34 1.02 0 0 Z " fill="#24A7EC" transform="translate(187,139)"/>
<path d="M0 0 C2.61500768 2.36595933 4.38999603 4.86049226 6 8 C5.67 8.66 5.34 9.32 5 10 C2.9754262 8.06745228 1.57894208 6.36841312 0 4 C0 2.68 0 1.36 0 0 Z " fill="#86D4EF" transform="translate(105,63)"/>
<path d="M0 0 C2.31 0 4.62 0 7 0 C7 1.65 7 3.3 7 5 C4.11562221 3.70700306 2.12780579 2.34058637 0 0 Z " fill="#7585B5" transform="translate(106,219)"/>
<path d="M0 0 C0.33 0 0.66 0 1 0 C1 2.97 1 5.94 1 9 C0.67 8.34 0.34 7.68 0 7 C-0.66 7 -1.32 7 -2 7 C-2.125 4.625 -2.125 4.625 -2 2 C-1.34 1.34 -0.68 0.68 0 0 Z " fill="#243D8B" transform="translate(105,140)"/>
<path d="M0 0 C3.77545388 1.09068668 6.47043472 1.9083091 9 5 C5.93606987 5.25532751 4.36766788 5.21861333 1.6875 3.625 C1.130625 3.08875 0.57375 2.5525 0 2 C0 1.34 0 0.68 0 0 Z " fill="#6F80AE" transform="translate(72,91)"/>
<path d="M0 0 C4.455 1.98 4.455 1.98 9 4 C9 4.33 9 4.66 9 5 C6.69 5 4.38 5 2 5 C2 4.01 2 3.02 2 2 C1.34 2 0.68 2 0 2 C0 1.34 0 0.68 0 0 Z " fill="#1246A1" transform="translate(115,218)"/>
<path d="M0 0 C2.97 0.495 2.97 0.495 6 1 C6 1.66 6 2.32 6 3 C5.34 3 4.68 3 4 3 C4 3.66 4 4.32 4 5 C2.68 4.67 1.36 4.34 0 4 C0.66 3.01 1.32 2.02 2 1 C1.34 0.67 0.68 0.34 0 0 Z " fill="#233C84" transform="translate(158,112)"/>
<path d="M0 0 C1.32 0.66 2.64 1.32 4 2 C-2.75 6 -2.75 6 -5 6 C-5 5.34 -5 4.68 -5 4 C-4.01 4 -3.02 4 -2 4 C-2 3.34 -2 2.68 -2 2 C-1.34 2 -0.68 2 0 2 C0 1.34 0 0.68 0 0 Z " fill="#8491BB" transform="translate(218,93)"/>
<path d="M0 0 C1.32 0.33 2.64 0.66 4 1 C3.34 2.32 2.68 3.64 2 5 C0.68 4.34 -0.64 3.68 -2 3 C-1.34 2.01 -0.68 1.02 0 0 Z " fill="#1A3E8D" transform="translate(118,207)"/>
<path d="M0 0 C0.33 1.32 0.66 2.64 1 4 C-0.98 4.33 -2.96 4.66 -5 5 C-4.1875 3.0625 -4.1875 3.0625 -3 1 C-2.01 0.67 -1.02 0.34 0 0 Z " fill="#1F4089" transform="translate(182,194)"/>
<path d="M0 0 C0.33 0 0.66 0 1 0 C1 2.64 1 5.28 1 8 C-0.65 8 -2.3 8 -4 8 C-4 7.34 -4 6.68 -4 6 C-3.01 5.34 -2.02 4.68 -1 4 C-0.27617533 1.94074861 -0.27617533 1.94074861 0 0 Z " fill="#74C6EC" transform="translate(95,181)"/>
<path d="M0 0 C0.66 0.33 1.32 0.66 2 1 C1.67 2.32 1.34 3.64 1 5 C-0.98 5 -2.96 5 -5 5 C-4 2 -4 2 -2.0625 0.75 C-1.381875 0.5025 -0.70125 0.255 0 0 Z " fill="#203A89" transform="translate(124,125)"/>
<path d="M0 0 C0 1.32 0 2.64 0 4 C-2.475 3.01 -2.475 3.01 -5 2 C-5 2.66 -5 3.32 -5 4 C-5.66 4 -6.32 4 -7 4 C-7 3.01 -7 2.02 -7 1 C-2.25 0 -2.25 0 0 0 Z " fill="#223C8D" transform="translate(120,117)"/>
<path d="M0 0 C3.125 -0.1875 3.125 -0.1875 6 0 C6.33 0.66 6.66 1.32 7 2 C2.545 2.495 2.545 2.495 -2 3 C-1.34 2.01 -0.68 1.02 0 0 Z " fill="#4A5DA4" transform="translate(127,227)"/>
<path d="M0 0 C0.66 0 1.32 0 2 0 C2.33 2.31 2.66 4.62 3 7 C2.01 6.67 1.02 6.34 0 6 C-0.38218767 4.34385343 -0.71395102 2.67542976 -1 1 C-0.67 0.67 -0.34 0.34 0 0 Z " fill="#1CB5FC" transform="translate(95,189)"/>
<path d="M0 0 C0.99 0.33 1.98 0.66 3 1 C3 1.66 3 2.32 3 3 C2.34 3 1.68 3 1 3 C0.67 3.99 0.34 4.98 0 6 C-0.99 6 -1.98 6 -3 6 C-2 4 -1 2 0 0 Z " fill="#1F398C" transform="translate(142,170)"/>
<path d="M0 0 C0.99 0.495 0.99 0.495 2 1 C1.67 1.66 1.34 2.32 1 3 C1.99 3.33 2.98 3.66 4 4 C2.68 5.32 1.36 6.64 0 8 C0 5.36 0 2.72 0 0 Z " fill="#364D90" transform="translate(152,158)"/>
<path d="M0 0 C1.32 0 2.64 0 4 0 C3.625 2.4375 3.625 2.4375 3 5 C2.01 5.495 2.01 5.495 1 6 C0.67 4.02 0.34 2.04 0 0 Z " fill="#5263A0" transform="translate(98,132)"/>
<path d="M0 0 C2.31 0.33 4.62 0.66 7 1 C4.38058783 2.74627478 2.96175123 3.38722388 0 4 C0 2.68 0 1.36 0 0 Z " fill="#6F7FB5" transform="translate(120,117)"/>
<path d="M0 0 C0.99 0 1.98 0 3 0 C3 1.98 3 3.96 3 6 C2.01 5.67 1.02 5.34 0 5 C0 3.35 0 1.7 0 0 Z " fill="#21B2F5" transform="translate(102,64)"/>
<path d="M0 0 C3 1 3 1 3 1 Z " fill="#FFFFFF" transform="translate(62,84)"/>
<path d="" fill="#FFFFFF" transform="translate(0,0)"/>
<path d="" fill="#FFFFFF" transform="translate(0,0)"/>
<path d="" fill="#FFFFFF" transform="translate(0,0)"/>
<path d="" fill="#FFFFFF" transform="translate(0,0)"/>
<path d="" fill="#FFFFFF" transform="translate(0,0)"/>
<path d="" fill="#FFFFFF" transform="translate(0,0)"/>
</svg>
